SplineFontDB: 3.2
FontName: GenSekiHentaiganaGothic-Bold
FullName: GenSeki Hentaigana Gothic Bold
FamilyName: GenSeki Hentaigana Gothic
Weight: Bold
Copyright: Copyright 2014-2021 Adobe (http://www.adobe.com/), with Reserved Font Name 'Source'. Source is a trademark of Adobe in the United States and/or other countries.
Version: 2.1
ItalicAngle: 0
UnderlinePosition: -100
UnderlineWidth: 50
Ascent: 880
Descent: 120
InvalidEm: 0
LayerCount: 2
Layer: 0 0 "+gMyXYgAA" 1
Layer: 1 0 "+Uk2XYgAA" 0
HasVMetrics: 1
XUID: [1021 501 934139072 14135697]
BaseHoriz: 4 'icfb' 'icft' 'ideo' 'romn'
BaseScript: 'DFLT' 2  -85 845 -120 0
BaseScript: 'cyrl' 3  -85 845 -120 0
BaseScript: 'grek' 3  -85 845 -120 0
BaseScript: 'hani' 2  -85 845 -120 0
BaseScript: 'kana' 2  -85 845 -120 0
BaseScript: 'latn' 3  -85 845 -120 0
BaseVert: 4 'icfb' 'icft' 'ideo' 'romn'
BaseScript: 'DFLT' 2  35 965 0 120
BaseScript: 'cyrl' 3  35 965 0 120
BaseScript: 'grek' 3  35 965 0 120
BaseScript: 'hani' 2  35 965 0 120
BaseScript: 'kana' 2  35 965 0 120
BaseScript: 'latn' 3  35 965 0 120
StyleMap: 0x0020
FSType: 0
OS2Version: 0
OS2_WeightWidthSlopeOnly: 0
OS2_UseTypoMetrics: 0
CreationTime: 1746358171
ModificationTime: 1746429737
PfmFamily: 33
TTFWeight: 700
TTFWidth: 5
LineGap: 0
VLineGap: 0
Panose: 2 11 8 0 0 0 0 0 0 0
OS2TypoAscent: 880
OS2TypoAOffset: 0
OS2TypoDescent: -120
OS2TypoDOffset: 0
OS2TypoLinegap: 0
OS2WinAscent: 880
OS2WinAOffset: 0
OS2WinDescent: 120
OS2WinDOffset: 0
HheadAscent: 880
HheadAOffset: 0
HheadDescent: -120
HheadDOffset: 0
OS2SubXSize: 650
OS2SubYSize: 600
OS2SubXOff: 0
OS2SubYOff: 75
OS2SupXSize: 650
OS2SupYSize: 600
OS2SupXOff: 0
OS2SupYOff: 350
OS2StrikeYSize: 50
OS2StrikeYPos: 325
OS2CapHeight: 733
OS2XHeight: 543
OS2Vendor: 'ZIHI'
Lookup: 4 0 0 "Dakuten and handakuten" { "Dakuten and handakuten subtable"  } ['ccmp' ('DFLT' <'dflt' > 'kana' <'JAN ' 'dflt' > ) ]

StartChar: .notdef
Encoding: 1114112 -1 0
Width: 1000
GlyphClass: 1
Flags: W
LayerCount: 2
Fore
SplineSet
100 -120 m 1
 100 880 l 1
 900 880 l 1
 900 -120 l 1
 100 -120 l 1
500 421 m 1
 818 830 l 1
 182 830 l 1
 500 421 l 1
532 380 m 1
 850 -29 l 1
 850 789 l 1
 532 380 l 1
182 -70 m 1
 818 -70 l 1
 500 339 l 1
 182 -70 l 1
150 789 m 1
 150 -29 l 1
 468 380 l 1
 150 789 l 1
EndSplineSet
EndChar

StartChar: exclam
Encoding: 33 33 2
Width: 370
GlyphClass: 1
Flags: W
LayerCount: 2
Fore
SplineSet
126 436 m 1
 116 621 l 1
 111 761 l 1
 185 761 l 1
 259 761 l 1
 254 621 l 1
 233 252 l 1
 137 252 l 1
 126 436 l 1
250 151 m 0
 267 134 276 110 276 82 c 0
 276 55 267 31 250 14 c 0
 234 -4 212 -14 185 -14 c 0
 133 -14 94 28 94 82 c 0
 94 137 133 178 185 178 c 0
 212 178 234 168 250 151 c 0
EndSplineSet
EndChar

StartChar: quotedbl
Encoding: 34 34 3
Width: 574
GlyphClass: 1
Flags: W
LayerCount: 2
Fore
SplineSet
106 533 m 1
 92 641 l 1
 87 779 l 1
 162 779 l 1
 237 779 l 1
 232 641 l 1
 203 425 l 1
 121 425 l 1
 106 533 l 1
356 533 m 1
 342 641 l 1
 337 779 l 1
 412 779 l 1
 487 779 l 1
 482 641 l 1
 453 425 l 1
 371 425 l 1
 356 533 l 1
EndSplineSet
EndChar

StartChar: numbersign
Encoding: 35 35 4
Width: 590
GlyphClass: 1
Flags: W
LayerCount: 2
Fore
SplineSet
325 108 m 1
 338 217 l 1
 212 217 l 1
 199 108 l 1
 186 0 l 1
 99 0 l 1
 125 217 l 1
 82 217 l 2
 67 217 53 216 39 215 c 0
 35 217 35 313 39 315 c 0
 51 314 71 313 87 313 c 2
 136 313 l 1
 153 450 l 1
 107 450 l 2
 92 450 77 449 62 448 c 0
 58 450 58 545 62 548 c 0
 74 546 96 545 113 545 c 2
 165 545 l 1
 189 738 l 1
 275 738 l 1
 252 545 l 1
 378 545 l 1
 403 738 l 1
 489 738 l 1
 466 545 l 1
 511 545 l 2
 526 545 541 546 556 547 c 0
 560 545 560 450 556 447 c 0
 544 449 522 450 505 450 c 2
 454 450 l 1
 437 313 l 1
 485 313 l 2
 501 313 517 314 533 315 c 0
 537 313 537 217 533 214 c 0
 520 216 497 217 479 217 c 2
 425 217 l 1
 400 0 l 1
 312 0 l 1
 325 108 l 1
357 381 m 1
 366 450 l 1
 240 450 l 1
 231 381 l 1
 223 313 l 1
 349 313 l 1
 357 381 l 1
EndSplineSet
EndChar

StartChar: dollar
Encoding: 36 36 5
Width: 590
GlyphClass: 1
Flags: W
LayerCount: 2
Fore
SplineSet
369 406 m 0
 445 368 521 317 521 205 c 0
 521 96 460 15 345 -8 c 1
 345 -66 l 2
 345 -86 346 -110 348 -124 c 0
 345 -130 246 -130 243 -124 c 0
 245 -110 246 -88 246 -68 c 2
 246 -12 l 1
 178 -4 101 27 48 75 c 1
 113 175 l 1
 168 131 220 106 278 106 c 0
 348 106 380 137 380 194 c 0
 380 262 304 292 229 332 c 0
 153 372 77 422 77 526 c 0
 77 635 141 710 246 730 c 1
 246 788 l 2
 246 808 245 832 243 846 c 0
 246 852 345 852 348 846 c 0
 346 832 345 808 345 789 c 2
 345 732 l 1
 417 722 468 687 511 642 c 1
 437 557 l 1
 396 595 361 615 309 615 c 0
 250 615 217 588 217 532 c 0
 217 471 293 445 369 406 c 0
EndSplineSet
EndChar

StartChar: percent
Encoding: 37 37 6
Width: 963
GlyphClass: 1
Flags: W
LayerCount: 2
Fore
SplineSet
82 347 m 0
 51 388 32 447 32 521 c 0
 32 669 106 754 212 754 c 0
 318 754 393 669 393 521 c 0
 393 447 374 388 342 347 c 0
 310 307 265 285 212 285 c 0
 159 285 114 307 82 347 c 0
267 404 m 0
 281 428 289 467 289 521 c 0
 289 629 255 671 212 671 c 0
 169 671 135 629 135 521 c 0
 135 467 144 428 157 404 c 0
 171 379 191 368 212 368 c 0
 234 368 253 379 267 404 c 0
437 370 m 1
 639 754 l 1
 726 754 l 1
 525 370 l 1
 324 -14 l 1
 236 -14 l 1
 437 370 l 1
621 48 m 0
 589 89 570 148 570 222 c 0
 570 370 645 456 751 456 c 0
 856 456 931 370 931 222 c 0
 931 148 912 89 880 48 c 0
 849 8 804 -14 751 -14 c 0
 698 -14 653 8 621 48 c 0
805 106 m 0
 819 130 827 168 827 222 c 0
 827 332 794 372 751 372 c 0
 707 372 674 332 674 222 c 0
 674 168 682 130 696 106 c 0
 710 81 729 70 751 70 c 0
 773 70 792 81 805 106 c 0
EndSplineSet
EndChar

StartChar: ampersand
Encoding: 38 38 7
Width: 740
GlyphClass: 1
Flags: W
LayerCount: 2
Fore
SplineSet
662 281 m 0
 642 238 617 198 588 159 c 1
 636 132 681 113 719 106 c 1
 684 -14 l 1
 624 -1 561 25 498 64 c 1
 437 16 363 -14 272 -14 c 0
 195 -14 134 10 93 48 c 0
 52 87 30 139 30 196 c 0
 30 299 95 359 169 407 c 1
 140 462 123 517 123 566 c 0
 123 669 198 754 316 754 c 0
 421 754 488 689 488 592 c 0
 488 494 408 433 329 379 c 1
 373 323 429 270 489 225 c 1
 528 277 560 340 579 414 c 1
 714 414 l 1
 700 368 683 323 662 281 c 0
203 129 m 0
 225 111 255 100 290 100 c 0
 327 100 363 113 397 136 c 1
 366 162 336 190 308 219 c 0
 281 248 255 278 231 309 c 1
 195 278 170 245 170 205 c 0
 170 174 182 147 203 129 c 0
265 631 m 0
 252 616 244 594 244 567 c 0
 244 536 254 502 271 468 c 1
 300 486 326 503 344 523 c 0
 363 543 374 565 374 592 c 0
 374 629 357 656 319 656 c 0
 298 656 279 647 265 631 c 0
EndSplineSet
EndChar

StartChar: quotesingle
Encoding: 39 39 8
Width: 325
GlyphClass: 1
Flags: W
LayerCount: 2
Fore
SplineSet
106 533 m 1
 92 641 l 1
 87 779 l 1
 162 779 l 1
 237 779 l 1
 232 641 l 1
 203 425 l 1
 121 425 l 1
 106 533 l 1
EndSplineSet
EndChar

StartChar: parenleft
Encoding: 40 40 9
Width: 378
GlyphClass: 1
Flags: W
LayerCount: 2
Fore
SplineSet
124 39 m 0
 99 124 85 215 85 315 c 0
 85 415 99 506 124 591 c 0
 150 676 188 756 235 833 c 1
 326 794 l 1
 242 648 204 479 204 315 c 0
 204 151 242 -17 326 -163 c 1
 235 -202 l 1
 188 -125 150 -46 124 39 c 0
EndSplineSet
EndChar

StartChar: parenright
Encoding: 41 41 10
Width: 378
GlyphClass: 1
Flags: W
LayerCount: 2
Fore
SplineSet
254 39 m 0
 228 -46 191 -125 143 -202 c 1
 52 -163 l 1
 136 -17 174 151 174 315 c 0
 174 479 136 648 52 794 c 1
 143 833 l 1
 191 756 228 676 254 591 c 0
 279 506 293 415 293 315 c 0
 293 215 279 124 254 39 c 0
EndSplineSet
EndChar

StartChar: asterisk
Encoding: 42 42 11
Width: 507
GlyphClass: 1
Flags: W
LayerCount: 2
Fore
SplineSet
371 521 m 1
 405 464 l 1
 342 418 l 1
 297 468 l 1
 253 518 l 1
 165 418 l 1
 102 464 l 1
 168 578 l 1
 50 631 l 1
 74 705 l 1
 200 677 l 1
 214 808 l 1
 293 808 l 1
 305 677 l 1
 433 705 l 1
 457 631 l 1
 337 578 l 1
 371 521 l 1
EndSplineSet
EndChar

StartChar: plus
Encoding: 43 43 12
Width: 590
GlyphClass: 1
Flags: W
LayerCount: 2
Fore
SplineSet
349 533 m 1
 349 427 l 1
 450 427 l 2
 485 427 518 429 551 432 c 1
 555 427 555 322 551 320 c 0
 539 321 519 322 501 322 c 2
 450 322 l 1
 349 322 l 1
 349 216 l 2
 349 180 351 136 354 110 c 1
 349 104 240 104 235 110 c 1
 238 136 240 180 240 216 c 2
 240 322 l 1
 139 322 l 2
 105 322 72 320 39 318 c 1
 35 322 35 427 39 431 c 1
 64 429 105 427 139 427 c 2
 240 427 l 1
 240 534 l 2
 240 570 238 614 235 640 c 1
 240 646 349 646 352 640 c 0
 350 627 349 606 349 587 c 2
 349 533 l 1
EndSplineSet
EndChar

StartChar: comma
Encoding: 44 44 13
Width: 325
GlyphClass: 1
Flags: W
LayerCount: 2
Fore
SplineSet
142 -75 m 0
 163 -51 174 -24 174 5 c 1
 164 4 l 1
 116 4 72 35 72 91 c 0
 72 144 115 178 168 178 c 0
 235 178 273 124 273 33 c 0
 273 -26 256 -77 224 -119 c 0
 192 -161 145 -194 84 -214 c 1
 53 -134 l 1
 92 -119 122 -99 142 -75 c 0
EndSplineSet
EndChar

StartChar: hyphen
Encoding: 45 45 14
Width: 370
GlyphClass: 1
Flags: W
LayerCount: 2
Fore
SplineSet
185 339 m 1
 254 339 l 2
 278 339 300 340 322 342 c 0
 326 339 326 233 322 230 c 0
 305 232 278 233 254 233 c 2
 185 233 l 1
 117 233 l 2
 93 233 71 232 49 230 c 0
 45 233 45 339 49 342 c 0
 66 340 93 339 117 339 c 2
 185 339 l 1
EndSplineSet
EndChar

StartChar: period
Encoding: 46 46 15
Width: 325
GlyphClass: 1
Flags: W
LayerCount: 2
Fore
SplineSet
97 14 m 0
 81 31 71 55 71 82 c 0
 71 110 81 134 97 151 c 0
 114 168 137 178 163 178 c 0
 215 178 254 137 254 82 c 0
 254 28 215 -14 163 -14 c 0
 137 -14 114 -4 97 14 c 0
EndSplineSet
EndChar

StartChar: slash
Encoding: 47 47 16
Width: 387
GlyphClass: 1
Flags: W
LayerCount: 2
Fore
SplineSet
138 312 m 1
 263 806 l 1
 360 806 l 1
 236 312 l 1
 112 -181 l 1
 14 -181 l 1
 138 312 l 1
EndSplineSet
EndChar

StartChar: zero
Encoding: 48 48 17
Width: 590
GlyphClass: 1
Flags: W
LayerCount: 2
Fore
SplineSet
113 84 m 0
 69 149 44 246 44 374 c 0
 44 629 144 754 295 754 c 0
 446 754 546 628 546 374 c 0
 546 246 521 149 477 84 c 0
 433 19 371 -14 295 -14 c 0
 220 -14 157 19 113 84 c 0
375 159 m 0
 394 201 406 270 406 374 c 0
 406 580 359 641 295 641 c 0
 231 641 183 580 183 374 c 0
 183 270 195 201 215 159 c 0
 235 117 263 101 295 101 c 0
 327 101 355 117 375 159 c 0
EndSplineSet
EndChar

StartChar: one
Encoding: 49 49 18
Width: 589
GlyphClass: 1
Flags: W
LayerCount: 2
Fore
SplineSet
407 370 m 1
 407 0 l 1
 334 0 l 1
 262 0 l 1
 262 583 l 1
 130 513 l 1
 71 608 l 1
 299 741 l 1
 407 741 l 1
 407 370 l 1
EndSplineSet
EndChar

StartChar: two
Encoding: 50 50 19
Width: 590
GlyphClass: 1
Flags: W
LayerCount: 2
Fore
SplineSet
415 0 m 1
 291 0 l 1
 43 0 l 1
 43 85 l 1
 245 265 363 404 363 519 c 0
 363 592 323 638 252 638 c 0
 198 638 154 603 117 562 c 1
 35 641 l 1
 104 715 170 754 271 754 c 0
 411 754 504 664 504 526 c 0
 504 392 392 248 257 115 c 1
 295 120 344 124 379 124 c 2
 459 124 l 2
 487 124 513 126 539 128 c 1
 543 124 543 0 539 -3 c 0
 524 -1 499 0 477 0 c 2
 415 0 l 1
EndSplineSet
EndChar

StartChar: three
Encoding: 51 51 20
Width: 590
GlyphClass: 1
Flags: W
LayerCount: 2
Fore
SplineSet
444 703 m 0
 486 670 510 621 510 557 c 0
 510 477 465 419 387 388 c 1
 387 383 l 1
 470 360 534 298 534 200 c 0
 534 132 504 79 457 42 c 0
 409 6 344 -14 273 -14 c 0
 157 -14 78 30 26 89 c 1
 95 182 l 1
 139 139 192 106 260 106 c 0
 335 106 386 143 386 209 c 0
 386 282 343 327 183 327 c 1
 183 433 l 1
 318 433 362 479 362 546 c 0
 362 604 326 638 263 638 c 0
 210 638 167 614 124 573 c 1
 48 664 l 1
 112 719 183 754 270 754 c 0
 342 754 402 737 444 703 c 0
EndSplineSet
EndChar

StartChar: four
Encoding: 52 52 21
Width: 590
GlyphClass: 1
Flags: W
LayerCount: 2
Fore
SplineSet
159 516 m 1
 297 741 l 1
 474 741 l 1
 474 304 l 1
 518 304 l 2
 534 304 548 305 562 306 c 0
 566 304 566 192 562 190 c 0
 551 191 534 192 518 192 c 2
 474 192 l 1
 474 96 l 2
 474 64 476 24 478 0 c 1
 474 -6 337 -6 333 0 c 1
 335 24 337 64 337 96 c 2
 337 192 l 1
 179 192 l 1
 21 192 l 1
 21 292 l 1
 159 516 l 1
221 396 m 1
 164 304 l 1
 250 304 l 1
 337 304 l 1
 337 455 l 2
 337 498 340 565 343 609 c 1
 338 609 l 1
 320 569 300 528 279 488 c 2
 221 396 l 1
EndSplineSet
EndChar

StartChar: five
Encoding: 53 53 22
Width: 590
GlyphClass: 1
Flags: W
LayerCount: 2
Fore
SplineSet
95 561 m 1
 105 741 l 1
 303 741 l 1
 402 741 l 2
 435 741 468 743 501 745 c 1
 505 741 505 617 501 611 c 1
 468 615 413 617 367 617 c 2
 232 617 l 1
 218 460 l 1
 247 474 273 480 307 480 c 0
 432 480 535 407 535 246 c 0
 535 81 412 -14 277 -14 c 0
 159 -14 82 32 26 87 c 1
 94 181 l 1
 136 140 189 106 257 106 c 0
 334 106 388 155 388 242 c 0
 388 328 337 376 263 376 c 0
 220 376 196 366 152 338 c 1
 85 381 l 1
 95 561 l 1
EndSplineSet
EndChar

StartChar: six
Encoding: 54 54 23
Width: 590
GlyphClass: 1
Flags: W
LayerCount: 2
Fore
SplineSet
131 76 m 0
 82 137 50 230 50 360 c 0
 50 498 84 597 137 661 c 0
 190 725 262 754 336 754 c 0
 427 754 493 716 537 670 c 1
 459 582 l 1
 433 611 388 636 346 636 c 0
 260 636 191 572 184 388 c 1
 225 438 288 466 335 466 c 0
 459 466 548 392 548 234 c 0
 548 82 442 -14 316 -14 c 0
 246 -14 180 15 131 76 c 0
385 132 m 0
 403 155 414 189 414 234 c 0
 414 322 372 362 308 362 c 0
 269 362 224 340 187 284 c 1
 194 217 210 170 232 140 c 0
 254 110 282 97 313 97 c 0
 341 97 366 109 385 132 c 0
EndSplineSet
EndChar

StartChar: seven
Encoding: 55 55 24
Width: 590
GlyphClass: 1
Flags: W
LayerCount: 2
Fore
SplineSet
216 617 m 1
 133 617 l 2
 104 617 77 615 50 613 c 1
 46 617 46 741 50 746 c 1
 80 743 132 741 173 741 c 2
 296 741 l 1
 542 741 l 1
 542 651 l 1
 370 441 347 289 334 0 c 1
 186 0 l 1
 199 257 242 421 383 617 c 1
 216 617 l 1
EndSplineSet
EndChar

StartChar: eight
Encoding: 56 56 25
Width: 590
GlyphClass: 1
Flags: W
LayerCount: 2
Fore
SplineSet
117 42 m 0
 73 77 47 126 47 184 c 0
 47 279 105 341 174 377 c 1
 174 382 l 1
 117 423 76 479 76 557 c 0
 76 677 170 753 299 753 c 0
 430 753 514 674 514 556 c 0
 514 483 467 422 419 387 c 1
 419 382 l 1
 488 345 544 285 544 184 c 0
 544 128 519 79 475 43 c 0
 432 8 370 -14 295 -14 c 0
 224 -14 162 7 117 42 c 0
368 621 m 0
 352 639 327 650 296 650 c 0
 246 650 206 617 206 557 c 0
 206 523 221 497 245 476 c 0
 269 455 303 439 341 423 c 1
 377 460 394 503 394 547 c 0
 394 577 385 603 368 621 c 0
210 120 m 0
 233 101 264 90 298 90 c 0
 361 90 407 125 407 189 c 0
 407 228 390 255 361 277 c 0
 331 300 290 318 242 338 c 1
 202 305 174 256 174 200 c 0
 174 167 188 139 210 120 c 0
EndSplineSet
EndChar

StartChar: nine
Encoding: 57 57 26
Width: 590
GlyphClass: 1
Flags: W
LayerCount: 2
Fore
SplineSet
459 667 m 0
 508 607 539 516 539 387 c 0
 539 247 505 147 452 82 c 0
 400 16 329 -14 255 -14 c 0
 163 -14 96 25 52 70 c 1
 130 159 l 1
 157 129 203 106 247 106 c 0
 329 106 397 169 404 354 c 1
 365 304 302 274 252 274 c 0
 128 274 40 350 40 507 c 0
 40 659 146 754 273 754 c 0
 344 754 410 727 459 667 c 0
204 609 m 0
 186 587 175 553 175 507 c 0
 175 420 216 379 280 379 c 0
 320 379 366 401 402 459 c 1
 396 526 380 572 357 601 c 0
 335 631 307 643 275 643 c 0
 248 643 223 632 204 609 c 0
EndSplineSet
EndChar

StartChar: colon
Encoding: 58 58 27
Width: 325
GlyphClass: 1
Flags: W
LayerCount: 2
Fore
SplineSet
97 393 m 0
 81 410 71 434 71 461 c 0
 71 489 81 513 97 530 c 0
 114 547 137 557 163 557 c 0
 215 557 254 516 254 461 c 0
 254 407 215 366 163 366 c 0
 137 366 114 376 97 393 c 0
97 14 m 0
 81 31 71 55 71 82 c 0
 71 110 81 134 97 151 c 0
 114 168 137 178 163 178 c 0
 215 178 254 137 254 82 c 0
 254 28 215 -14 163 -14 c 0
 137 -14 114 -4 97 14 c 0
EndSplineSet
EndChar

StartChar: semicolon
Encoding: 59 59 28
Width: 325
GlyphClass: 1
Flags: W
LayerCount: 2
Fore
SplineSet
97 393 m 0
 81 410 71 434 71 461 c 0
 71 489 81 513 97 530 c 0
 114 547 137 557 163 557 c 0
 215 557 254 516 254 461 c 0
 254 407 215 366 163 366 c 0
 137 366 114 376 97 393 c 0
142 -75 m 0
 163 -51 174 -24 174 5 c 1
 164 4 l 1
 116 4 72 35 72 91 c 0
 72 144 115 178 168 178 c 0
 235 178 273 124 273 33 c 0
 273 -26 256 -77 224 -119 c 0
 192 -161 145 -194 84 -214 c 1
 53 -134 l 1
 92 -119 122 -99 142 -75 c 0
EndSplineSet
EndChar

StartChar: less
Encoding: 60 60 29
Width: 590
GlyphClass: 1
Flags: W
LayerCount: 2
Fore
SplineSet
295 225 m 1
 39 325 l 1
 39 429 l 1
 295 528 l 1
 551 627 l 1
 551 505 l 1
 341 434 l 1
 187 379 l 1
 187 375 l 1
 341 320 l 1
 551 248 l 1
 551 126 l 1
 295 225 l 1
EndSplineSet
EndChar

StartChar: equal
Encoding: 61 61 30
Width: 590
GlyphClass: 1
Flags: W
LayerCount: 2
Fore
SplineSet
295 556 m 1
 423 556 l 2
 467 556 509 558 551 562 c 1
 555 556 555 452 551 446 c 1
 519 450 467 452 423 452 c 2
 295 452 l 1
 167 452 l 2
 123 452 81 450 39 446 c 1
 35 452 35 556 39 562 c 1
 71 558 123 556 167 556 c 2
 295 556 l 1
295 298 m 1
 423 298 l 2
 467 298 509 300 551 304 c 1
 555 298 555 193 551 187 c 1
 519 191 467 193 423 193 c 2
 295 193 l 1
 167 193 l 2
 123 193 81 191 39 187 c 1
 35 193 35 298 39 304 c 1
 71 300 123 298 167 298 c 2
 295 298 l 1
EndSplineSet
EndChar

StartChar: greater
Encoding: 62 62 31
Width: 590
GlyphClass: 1
Flags: W
LayerCount: 2
Fore
SplineSet
295 528 m 1
 551 429 l 1
 551 325 l 1
 295 225 l 1
 39 126 l 1
 39 248 l 1
 249 320 l 1
 402 375 l 1
 402 379 l 1
 249 434 l 1
 39 505 l 1
 39 627 l 1
 295 528 l 1
EndSplineSet
EndChar

StartChar: question
Encoding: 63 63 32
Width: 514
GlyphClass: 1
Flags: W
LayerCount: 2
Fore
SplineSet
241 438 m 0
 281 486 323 526 323 573 c 0
 323 623 290 655 238 655 c 0
 194 655 159 633 127 598 c 1
 45 673 l 1
 97 732 169 774 256 774 c 0
 376 774 465 711 465 583 c 0
 465 512 421 465 379 417 c 0
 338 370 298 323 305 252 c 1
 177 252 l 1
 165 333 202 390 241 438 c 0
176 14 m 0
 160 31 150 55 150 82 c 0
 150 110 160 134 176 151 c 0
 193 168 216 178 242 178 c 0
 294 178 333 137 333 82 c 0
 333 28 294 -14 242 -14 c 0
 216 -14 193 -4 176 14 c 0
EndSplineSet
EndChar

StartChar: at
Encoding: 64 64 33
Width: 1007
GlyphClass: 1
Flags: W
LayerCount: 2
Fore
SplineSet
204 610 m 0
 296 701 422 752 557 752 c 0
 798 752 950 589 950 356 c 0
 950 151 816 47 701 47 c 0
 637 47 585 77 575 133 c 1
 572 133 l 1
 539 89 482 57 434 57 c 0
 349 57 289 121 289 225 c 0
 289 359 384 499 515 499 c 0
 553 499 583 482 603 443 c 1
 605 443 l 1
 621 490 l 1
 711 490 l 1
 686 368 l 1
 662 246 l 2
 644 173 662 139 716 139 c 0
 785 139 857 221 857 351 c 0
 857 520 763 662 545 662 c 0
 349 662 156 494 156 236 c 0
 156 13 308 -99 489 -99 c 0
 551 -99 617 -79 665 -54 c 1
 698 -135 l 1
 630 -173 558 -190 478 -190 c 0
 252 -190 55 -51 55 232 c 0
 55 389 113 519 204 610 c 0
432 345 m 0
 412 312 400 270 400 233 c 0
 400 177 426 150 466 150 c 0
 492 150 517 166 549 206 c 1
 563 286 l 1
 578 366 l 1
 563 392 545 403 519 403 c 0
 483 403 453 379 432 345 c 0
EndSplineSet
EndChar

StartChar: A
Encoding: 65 65 34
Width: 641
GlyphClass: 1
Flags: W
LayerCount: 2
Fore
SplineSet
526 370 m 1
 645 0 l 1
 489 0 l 1
 437 190 l 1
 317 190 l 1
 198 190 l 1
 146 0 l 1
 -4 0 l 1
 233 741 l 1
 408 741 l 1
 526 370 l 1
351 506 m 0
 341 547 330 589 319 628 c 1
 315 628 l 1
 295 547 274 463 252 386 c 2
 230 305 l 1
 318 305 l 1
 406 305 l 1
 384 386 l 2
 373 425 362 465 351 506 c 0
EndSplineSet
EndChar

StartChar: B
Encoding: 66 66 35
Width: 681
GlyphClass: 1
Flags: W
LayerCount: 2
Fore
SplineSet
91 370 m 1
 91 556 l 2
 91 619 88 695 83 741 c 0
 83 746 88 746 91 746 c 0
 121 743 171 741 213 741 c 2
 336 741 l 2
 488 741 604 696 604 558 c 0
 604 489 566 420 503 397 c 1
 503 393 l 1
 583 374 641 317 641 218 c 0
 641 69 518 0 355 0 c 2
 223 0 l 1
 91 0 l 1
 91 370 l 1
428 465 m 0
 450 482 460 507 460 536 c 0
 460 601 416 627 327 627 c 2
 239 627 l 1
 239 533 l 1
 239 439 l 1
 326 439 l 2
 373 439 407 449 428 465 c 0
457 142 m 0
 483 160 497 189 497 227 c 0
 497 299 444 330 342 330 c 2
 239 330 l 1
 239 222 l 1
 239 114 l 1
 342 114 l 2
 392 114 431 123 457 142 c 0
EndSplineSet
EndChar

StartChar: C
Encoding: 67 67 36
Width: 656
GlyphClass: 1
Flags: W
LayerCount: 2
Fore
SplineSet
153 84 m 0
 92 148 54 244 54 367 c 0
 54 489 93 586 156 652 c 0
 219 718 305 754 398 754 c 0
 493 754 567 709 615 659 c 1
 538 565 l 1
 500 601 457 627 401 627 c 0
 289 627 206 531 206 372 c 0
 206 211 281 114 398 114 c 0
 462 114 511 144 550 187 c 1
 629 95 l 1
 568 24 489 -14 392 -14 c 0
 299 -14 215 20 153 84 c 0
EndSplineSet
EndChar

StartChar: D
Encoding: 68 68 37
Width: 714
GlyphClass: 1
Flags: W
LayerCount: 2
Fore
SplineSet
91 370 m 1
 91 556 l 2
 91 619 88 695 83 741 c 0
 83 746 88 746 91 746 c 0
 116 743 157 741 192 741 c 2
 294 741 l 2
 521 741 660 623 660 374 c 0
 660 124 521 0 302 0 c 2
 196 0 l 1
 91 0 l 1
 91 370 l 1
239 496 m 1
 239 371 l 1
 239 120 l 1
 284 120 l 2
 423 120 509 194 509 374 c 0
 509 554 423 622 284 622 c 2
 239 622 l 1
 239 496 l 1
EndSplineSet
EndChar

StartChar: E
Encoding: 69 69 38
Width: 615
GlyphClass: 1
Flags: W
LayerCount: 2
Fore
SplineSet
91 370 m 1
 91 556 l 2
 91 619 88 695 83 741 c 0
 83 746 88 746 91 746 c 0
 119 743 165 741 204 741 c 2
 318 741 l 2
 395 741 470 745 545 751 c 1
 549 741 549 617 545 610 c 1
 507 614 443 617 392 617 c 2
 239 617 l 1
 239 446 l 1
 369 446 l 2
 412 446 455 448 498 452 c 1
 502 446 502 322 498 316 c 1
 466 320 412 322 369 322 c 2
 239 322 l 1
 239 124 l 1
 398 124 l 2
 452 124 504 127 556 131 c 1
 560 124 560 0 556 -5 c 1
 527 -2 480 0 440 0 c 2
 323 0 l 1
 207 0 l 2
 167 0 120 -2 91 -5 c 0
 83 -5 83 -2 83 0 c 0
 94 46 91 122 91 185 c 2
 91 370 l 1
EndSplineSet
EndChar

StartChar: F
Encoding: 70 70 39
Width: 585
GlyphClass: 1
Flags: W
LayerCount: 2
Fore
SplineSet
91 370 m 1
 91 556 l 2
 91 619 88 695 83 741 c 0
 83 746 88 746 91 746 c 0
 119 743 167 741 205 741 c 2
 319 741 l 1
 433 741 l 2
 471 741 509 743 547 746 c 1
 551 741 551 617 547 610 c 1
 509 614 445 617 393 617 c 2
 239 617 l 1
 239 424 l 1
 371 424 l 2
 416 424 459 426 502 430 c 1
 506 424 506 300 502 294 c 1
 470 298 416 300 371 300 c 2
 239 300 l 1
 239 0 l 1
 91 0 l 1
 91 370 l 1
EndSplineSet
EndChar

StartChar: G
Encoding: 71 71 40
Width: 717
GlyphClass: 1
Flags: W
LayerCount: 2
Fore
SplineSet
650 242 m 1
 650 75 l 1
 599 25 511 -14 409 -14 c 0
 208 -14 54 120 54 367 c 0
 54 611 212 754 409 754 c 0
 516 754 590 708 638 659 c 1
 559 565 l 1
 522 600 480 627 414 627 c 0
 290 627 206 531 206 372 c 0
 206 211 279 114 425 114 c 0
 460 114 497 124 517 142 c 1
 517 288 l 1
 451 288 l 2
 428 288 407 287 386 285 c 0
 382 288 382 409 386 412 c 0
 402 410 430 409 452 409 c 2
 518 409 l 1
 650 409 l 1
 650 242 l 1
EndSplineSet
EndChar

StartChar: H
Encoding: 72 72 41
Width: 757
GlyphClass: 1
Flags: W
LayerCount: 2
Fore
SplineSet
666 370 m 1
 666 0 l 1
 519 0 l 1
 519 320 l 1
 379 320 l 1
 239 320 l 1
 239 0 l 1
 91 0 l 1
 91 741 l 1
 239 741 l 1
 239 448 l 1
 519 448 l 1
 519 741 l 1
 666 741 l 1
 666 370 l 1
EndSplineSet
EndChar

StartChar: I
Encoding: 73 73 42
Width: 330
GlyphClass: 1
Flags: W
LayerCount: 2
Fore
SplineSet
239 370 m 1
 239 0 l 1
 165 0 l 1
 91 0 l 1
 91 741 l 1
 239 741 l 1
 239 370 l 1
EndSplineSet
EndChar

StartChar: J
Encoding: 74 74 43
Width: 568
GlyphClass: 1
Flags: W
LayerCount: 2
Fore
SplineSet
481 490 m 1
 481 239 l 2
 481 100 411 -14 252 -14 c 0
 145 -14 72 29 23 116 c 1
 124 191 l 1
 152 137 192 114 234 114 c 0
 299 114 333 149 333 251 c 2
 333 741 l 1
 407 741 l 1
 481 741 l 1
 481 490 l 1
EndSplineSet
EndChar

StartChar: K
Encoding: 75 75 44
Width: 686
GlyphClass: 1
Flags: W
LayerCount: 2
Fore
SplineSet
91 370 m 1
 91 741 l 1
 239 741 l 1
 239 419 l 1
 242 419 l 1
 487 741 l 1
 568 741 l 1
 650 741 l 1
 424 449 l 1
 690 0 l 1
 528 0 l 1
 336 333 l 1
 239 208 l 1
 239 0 l 1
 91 0 l 1
 91 370 l 1
EndSplineSet
EndChar

StartChar: L
Encoding: 76 76 45
Width: 578
GlyphClass: 1
Flags: W
LayerCount: 2
Fore
SplineSet
91 370 m 1
 91 741 l 1
 239 741 l 1
 239 124 l 1
 390 124 l 2
 440 124 490 126 540 130 c 1
 544 124 544 0 540 -5 c 1
 512 -2 466 0 428 0 c 2
 315 0 l 1
 203 0 l 2
 165 0 119 -2 91 -5 c 0
 83 -5 83 -2 83 0 c 0
 94 46 91 122 91 185 c 2
 91 370 l 1
EndSplineSet
EndChar

StartChar: M
Encoding: 77 77 46
Width: 853
GlyphClass: 1
Flags: W
LayerCount: 2
Fore
SplineSet
91 370 m 1
 91 741 l 1
 255 741 l 1
 381 393 l 2
 397 348 411 299 426 252 c 1
 431 252 l 1
 447 299 460 348 475 393 c 2
 599 741 l 1
 681 741 l 1
 763 741 l 1
 763 300 l 2
 763 200 767 75 775 0 c 1
 763 -6 628 -6 621 0 c 1
 625 38 628 102 628 154 c 2
 628 309 l 2
 628 380 639 482 647 552 c 1
 642 552 l 1
 582 378 l 1
 468 67 l 1
 383 67 l 1
 268 378 l 1
 209 552 l 1
 205 552 l 1
 212 482 224 380 224 309 c 2
 224 154 l 2
 224 102 227 38 231 0 c 1
 224 -6 91 -6 83 0 c 1
 88 46 91 122 91 185 c 2
 91 370 l 1
EndSplineSet
EndChar

StartChar: N
Encoding: 78 78 47
Width: 749
GlyphClass: 1
Flags: W
LayerCount: 2
Fore
SplineSet
657 370 m 1
 657 0 l 1
 581 0 l 1
 506 0 l 1
 293 396 l 1
 218 555 l 1
 213 555 l 1
 219 475 232 382 232 297 c 2
 232 0 l 1
 91 0 l 1
 91 741 l 1
 242 741 l 1
 457 346 l 1
 532 186 l 1
 537 186 l 1
 529 263 517 361 517 445 c 2
 517 593 l 2
 517 643 515 704 511 741 c 1
 517 747 657 747 665 741 c 1
 660 695 657 619 657 556 c 2
 657 370 l 1
EndSplineSet
EndChar

StartChar: O
Encoding: 79 79 48
Width: 770
GlyphClass: 1
Flags: W
LayerCount: 2
Fore
SplineSet
146 90 m 0
 88 157 54 254 54 374 c 0
 54 614 189 754 385 754 c 0
 581 754 716 614 716 374 c 0
 716 254 682 157 624 90 c 0
 566 23 483 -14 385 -14 c 0
 287 -14 204 23 146 90 c 0
516 185 m 0
 548 230 565 295 565 374 c 0
 565 532 495 627 385 627 c 0
 275 627 206 532 206 374 c 0
 206 295 223 230 254 185 c 0
 285 140 330 114 385 114 c 0
 440 114 485 140 516 185 c 0
EndSplineSet
EndChar

StartChar: P
Encoding: 80 80 49
Width: 667
GlyphClass: 1
Flags: W
LayerCount: 2
Fore
SplineSet
91 370 m 1
 91 741 l 1
 212 741 l 1
 334 741 l 2
 498 741 624 683 624 508 c 0
 624 339 497 263 338 263 c 2
 239 263 l 1
 239 0 l 1
 91 0 l 1
 91 370 l 1
442 412 m 0
 467 434 479 466 479 508 c 0
 479 594 425 623 323 623 c 2
 239 623 l 1
 239 501 l 1
 239 380 l 1
 328 380 l 2
 379 380 417 391 442 412 c 0
EndSplineSet
EndChar

StartChar: Q
Encoding: 81 81 50
Width: 770
GlyphClass: 1
Flags: W
LayerCount: 2
Fore
SplineSet
254 178 m 0
 285 132 330 107 385 107 c 0
 440 107 485 132 516 178 c 0
 548 224 565 291 565 374 c 0
 565 532 495 627 385 627 c 0
 275 627 206 532 206 374 c 0
 206 291 223 224 254 178 c 0
146 654 m 0
 204 719 287 754 385 754 c 0
 483 754 566 719 624 654 c 0
 682 589 716 494 716 374 c 0
 716 171 620 35 473 -3 c 1
 507 -59 574 -83 641 -83 c 0
 673 -83 701 -77 722 -70 c 1
 749 -179 l 1
 723 -192 678 -201 624 -201 c 0
 473 -201 367 -120 317 -8 c 1
 159 23 54 162 54 374 c 0
 54 494 88 589 146 654 c 0
EndSplineSet
EndChar

StartChar: R
Encoding: 82 82 51
Width: 682
GlyphClass: 1
Flags: W
LayerCount: 2
Fore
SplineSet
444 427 m 0
 469 447 482 477 482 516 c 0
 482 596 430 623 335 623 c 2
 239 623 l 1
 239 510 l 1
 239 397 l 1
 335 397 l 2
 383 397 419 407 444 427 c 0
91 370 m 1
 91 741 l 1
 219 741 l 1
 348 741 l 2
 504 741 627 686 627 516 c 0
 627 405 571 336 486 303 c 1
 659 0 l 1
 494 0 l 1
 342 280 l 1
 239 280 l 1
 239 0 l 1
 91 0 l 1
 91 370 l 1
EndSplineSet
EndChar

StartChar: S
Encoding: 83 83 52
Width: 624
GlyphClass: 1
Flags: W
LayerCount: 2
Fore
SplineSet
144 692 m 0
 190 731 254 754 328 754 c 0
 415 754 501 719 561 658 c 1
 486 566 l 1
 439 604 390 627 328 627 c 0
 263 627 223 598 223 549 c 0
 223 496 275 477 338 451 c 2
 435 412 l 2
 525 375 584 317 584 210 c 0
 584 150 559 94 512 53 c 0
 466 12 398 -14 312 -14 c 0
 213 -14 114 24 42 94 c 1
 127 196 l 1
 179 147 250 114 315 114 c 0
 392 114 433 147 433 199 c 0
 433 254 387 271 321 299 c 2
 223 342 l 2
 148 372 72 432 72 540 c 0
 72 600 99 654 144 692 c 0
EndSplineSet
EndChar

StartChar: T
Encoding: 84 84 53
Width: 625
GlyphClass: 1
Flags: W
LayerCount: 2
Fore
SplineSet
238 308 m 1
 238 617 l 1
 134 617 l 2
 98 617 64 615 30 612 c 1
 26 617 26 741 30 747 c 1
 65 743 124 741 171 741 c 2
 312 741 l 1
 454 741 l 2
 501 741 548 743 595 747 c 1
 599 741 599 617 595 612 c 1
 569 615 527 617 491 617 c 2
 386 617 l 1
 386 0 l 1
 238 0 l 1
 238 308 l 1
EndSplineSet
EndChar

StartChar: U
Encoding: 85 85 54
Width: 748
GlyphClass: 1
Flags: W
LayerCount: 2
Fore
SplineSet
519 530 m 1
 519 741 l 1
 661 741 l 1
 661 333 l 2
 661 88 556 -14 376 -14 c 0
 194 -14 88 88 88 333 c 2
 88 741 l 1
 161 741 l 1
 235 741 l 1
 235 320 l 2
 235 166 289 114 376 114 c 0
 462 114 519 166 519 320 c 2
 519 530 l 1
EndSplineSet
EndChar

StartChar: V
Encoding: 86 86 55
Width: 619
GlyphClass: 1
Flags: W
LayerCount: 2
Fore
SplineSet
511 370 m 1
 398 0 l 1
 309 0 l 1
 221 0 l 1
 -5 741 l 1
 151 741 l 1
 248 380 l 2
 271 298 287 224 310 141 c 1
 315 141 l 1
 339 224 355 298 378 380 c 2
 474 741 l 1
 624 741 l 1
 511 370 l 1
EndSplineSet
EndChar

StartChar: W
Encoding: 87 87 56
Width: 915
GlyphClass: 1
Flags: W
LayerCount: 2
Fore
SplineSet
826 370 m 1
 758 0 l 1
 666 0 l 1
 574 0 l 1
 491 367 l 2
 479 424 468 481 460 537 c 1
 456 537 l 1
 445 481 434 424 423 367 c 2
 342 0 l 1
 161 0 l 1
 19 741 l 1
 170 741 l 1
 227 379 l 2
 239 301 251 223 262 143 c 1
 266 143 l 1
 281 223 297 302 313 379 c 2
 398 741 l 1
 525 741 l 1
 611 379 l 2
 628 303 642 223 658 143 c 1
 663 143 l 1
 674 223 685 302 696 379 c 2
 755 741 l 1
 895 741 l 1
 826 370 l 1
EndSplineSet
EndChar

StartChar: X
Encoding: 88 88 57
Width: 627
GlyphClass: 1
Flags: W
LayerCount: 2
Fore
SplineSet
118 190 m 1
 222 381 l 1
 26 741 l 1
 108 741 l 1
 191 741 l 1
 265 587 l 2
 283 553 298 517 320 471 c 1
 324 471 l 1
 342 517 358 553 374 587 c 2
 444 741 l 1
 600 741 l 1
 405 375 l 1
 613 0 l 1
 449 0 l 1
 366 164 l 2
 348 202 329 241 308 286 c 1
 304 286 l 1
 285 241 268 202 250 164 c 2
 171 0 l 1
 15 0 l 1
 118 190 l 1
EndSplineSet
EndChar

StartChar: Y
Encoding: 89 89 58
Width: 580
GlyphClass: 1
Flags: W
LayerCount: 2
Fore
SplineSet
105 506 m 1
 -6 741 l 1
 72 741 l 1
 151 741 l 1
 225 560 l 2
 246 505 266 453 289 396 c 1
 293 396 l 1
 316 453 337 505 359 560 c 2
 433 741 l 1
 587 741 l 1
 364 271 l 1
 364 0 l 1
 217 0 l 1
 217 271 l 1
 105 506 l 1
EndSplineSet
EndChar

StartChar: Z
Encoding: 90 90 59
Width: 613
GlyphClass: 1
Flags: W
LayerCount: 2
Fore
SplineSet
397 388 m 1
 225 124 l 1
 399 124 l 2
 457 124 515 127 573 131 c 1
 577 124 577 0 573 -6 c 1
 540 -2 485 0 441 0 c 2
 308 0 l 1
 43 0 l 1
 43 89 l 1
 388 617 l 1
 232 617 l 2
 180 617 128 614 76 610 c 1
 72 617 72 741 76 751 c 1
 137 745 240 741 323 741 c 2
 570 741 l 1
 570 652 l 1
 397 388 l 1
EndSplineSet
EndChar

StartChar: bracketleft
Encoding: 91 91 60
Width: 378
GlyphClass: 1
Flags: W
LayerCount: 2
Fore
SplineSet
101 315 m 1
 101 803 l 1
 216 803 l 2
 254 803 292 805 330 808 c 1
 334 803 334 724 330 721 c 0
 316 723 292 724 271 724 c 2
 211 724 l 1
 211 -94 l 1
 271 -94 l 2
 292 -94 311 -93 330 -91 c 0
 334 -94 334 -172 330 -175 c 0
 316 -173 292 -172 273 -172 c 2
 215 -172 l 1
 101 -172 l 1
 101 315 l 1
EndSplineSet
EndChar

StartChar: backslash
Encoding: 92 92 61
Width: 387
GlyphClass: 1
Flags: W
LayerCount: 2
Fore
SplineSet
152 312 m 1
 28 806 l 1
 125 806 l 1
 249 312 l 1
 374 -181 l 1
 276 -181 l 1
 152 312 l 1
EndSplineSet
EndChar

StartChar: bracketright
Encoding: 93 93 62
Width: 378
GlyphClass: 1
Flags: W
LayerCount: 2
Fore
SplineSet
276 315 m 1
 276 -172 l 1
 162 -172 l 1
 105 -172 l 2
 86 -172 67 -173 48 -175 c 0
 44 -172 44 -94 48 -91 c 0
 62 -93 86 -94 107 -94 c 2
 167 -94 l 1
 167 724 l 1
 107 724 l 2
 86 724 67 723 48 721 c 0
 44 724 44 803 48 808 c 1
 76 805 124 803 162 803 c 2
 276 803 l 1
 276 315 l 1
EndSplineSet
EndChar

StartChar: asciicircum
Encoding: 94 94 63
Width: 590
GlyphClass: 1
Flags: W
LayerCount: 2
Fore
SplineSet
147 537 m 1
 235 761 l 1
 355 761 l 1
 442 537 l 1
 529 314 l 1
 407 314 l 1
 350 474 l 1
 297 627 l 1
 292 627 l 1
 240 474 l 1
 182 314 l 1
 60 314 l 1
 147 537 l 1
EndSplineSet
EndChar

StartChar: underscore
Encoding: 95 95 64
Width: 567
GlyphClass: 1
Flags: W
LayerCount: 2
Fore
SplineSet
283 -70 m 1
 418 -70 l 2
 463 -70 508 -68 553 -64 c 1
 557 -70 557 -155 553 -161 c 1
 520 -157 463 -155 418 -155 c 2
 283 -155 l 1
 148 -155 l 2
 102 -155 58 -157 14 -161 c 1
 10 -155 10 -70 14 -64 c 1
 47 -68 102 -70 148 -70 c 2
 283 -70 l 1
EndSplineSet
EndChar

StartChar: grave
Encoding: 96 96 65
Width: 626
GlyphClass: 1
Flags: W
LayerCount: 2
Fore
SplineSet
296 822 m 1
 381 721 l 1
 309 650 l 1
 210 738 l 1
 111 827 l 1
 211 924 l 1
 296 822 l 1
EndSplineSet
EndChar

StartChar: a
Encoding: 97 97 66
Width: 591
GlyphClass: 1
Flags: W
LayerCount: 2
Fore
SplineSet
520 245 m 1
 520 163 l 1
 520 0 l 1
 400 0 l 1
 390 60 l 1
 385 60 l 1
 337 17 281 -14 216 -14 c 0
 116 -14 51 57 51 153 c 0
 51 272 148 335 373 359 c 1
 371 414 347 456 278 456 c 0
 226 456 176 433 124 402 c 1
 72 500 l 1
 137 540 217 574 305 574 c 0
 447 574 520 489 520 327 c 2
 520 245 l 1
287 252 m 0
 264 246 245 238 231 229 c 0
 202 212 191 190 191 164 c 0
 191 120 222 101 265 101 c 0
 307 101 338 121 373 156 c 1
 373 268 l 1
 339 264 311 259 287 252 c 0
EndSplineSet
EndChar

StartChar: b
Encoding: 98 98 67
Width: 644
GlyphClass: 1
Flags: W
LayerCount: 2
Fore
SplineSet
79 399 m 1
 79 798 l 1
 152 798 l 1
 226 798 l 1
 226 597 l 1
 221 507 l 1
 266 547 322 574 377 574 c 0
 515 574 598 461 598 290 c 0
 598 97 483 -14 360 -14 c 0
 310 -14 256 12 211 59 c 1
 206 59 l 1
 194 0 l 1
 79 0 l 1
 79 399 l 1
412 151 m 0
 434 181 447 226 447 287 c 0
 447 394 413 453 336 453 c 0
 298 453 264 434 226 396 c 1
 226 272 l 1
 226 149 l 1
 260 118 297 107 328 107 c 0
 361 107 391 122 412 151 c 0
EndSplineSet
EndChar

StartChar: c
Encoding: 99 99 68
Width: 527
GlyphClass: 1
Flags: W
LayerCount: 2
Fore
SplineSet
123 63 m 0
 74 114 44 187 44 280 c 0
 44 373 78 447 130 497 c 0
 183 547 254 574 330 574 c 0
 399 574 452 548 493 511 c 1
 423 418 l 1
 395 441 369 454 338 454 c 0
 252 454 194 385 194 280 c 0
 194 174 252 106 333 106 c 0
 374 106 411 125 442 151 c 1
 500 54 l 1
 447 7 379 -14 317 -14 c 0
 240 -14 172 13 123 63 c 0
EndSplineSet
EndChar

StartChar: d
Encoding: 100 100 69
Width: 644
GlyphClass: 1
Flags: W
LayerCount: 2
Fore
SplineSet
566 399 m 1
 566 0 l 1
 446 0 l 1
 435 58 l 1
 431 58 l 1
 390 17 334 -14 276 -14 c 0
 136 -14 47 96 47 280 c 0
 47 462 162 574 282 574 c 0
 345 574 384 550 424 513 c 1
 419 601 l 1
 419 798 l 1
 492 798 l 1
 566 798 l 1
 566 399 l 1
228 151 m 0
 248 122 277 107 314 107 c 0
 353 107 387 123 419 165 c 1
 419 288 l 1
 419 411 l 1
 385 442 350 453 314 453 c 0
 251 453 198 393 198 282 c 0
 198 224 209 180 228 151 c 0
EndSplineSet
EndChar

StartChar: e
Encoding: 101 101 70
Width: 581
GlyphClass: 1
Flags: W
LayerCount: 2
Fore
SplineSet
445 238 m 1
 359 238 l 1
 187 238 l 1
 199 147 259 100 343 100 c 0
 388 100 427 113 468 138 c 1
 518 48 l 1
 463 10 392 -14 323 -14 c 0
 166 -14 44 95 44 280 c 0
 44 461 172 574 305 574 c 0
 459 574 539 462 539 306 c 0
 539 279 536 252 532 238 c 1
 445 238 l 1
228 429 m 0
 206 408 190 378 184 337 c 1
 298 337 l 1
 413 337 l 1
 413 412 380 460 307 460 c 0
 278 460 250 450 228 429 c 0
EndSplineSet
EndChar

StartChar: f
Encoding: 102 102 71
Width: 372
GlyphClass: 1
Flags: W
LayerCount: 2
Fore
SplineSet
250 222 m 1
 250 0 l 1
 177 0 l 1
 104 0 l 1
 104 444 l 1
 28 444 l 1
 28 553 l 1
 104 559 l 1
 104 605 l 2
 104 721 158 812 298 812 c 0
 342 812 380 803 405 793 c 1
 378 683 l 1
 359 692 338 696 318 696 c 0
 275 696 250 670 250 608 c 2
 250 560 l 1
 304 560 l 2
 323 560 340 561 357 563 c 0
 361 560 361 444 357 441 c 0
 344 443 323 444 304 444 c 2
 250 444 l 1
 250 222 l 1
EndSplineSet
EndChar

StartChar: g
Encoding: 103 103 72
Width: 597
GlyphClass: 1
Flags: W
LayerCount: 2
Fore
SplineSet
499 -186 m 0
 446 -222 370 -243 276 -243 c 0
 144 -243 43 -198 43 -99 c 0
 43 -52 70 -12 123 17 c 1
 123 22 l 1
 93 41 72 70 72 117 c 0
 72 158 100 197 134 221 c 1
 134 225 l 1
 95 253 59 306 59 372 c 0
 59 503 166 574 284 574 c 0
 317 574 346 568 370 560 c 1
 470 560 l 1
 521 560 l 2
 539 560 555 561 571 562 c 0
 575 560 575 452 571 450 c 0
 560 451 541 452 524 452 c 2
 476 452 l 1
 490 433 501 402 501 367 c 0
 501 240 405 177 284 177 c 0
 263 177 237 181 212 190 c 1
 198 177 188 165 188 141 c 0
 188 112 211 96 276 96 c 2
 372 96 l 2
 507 96 581 54 581 -44 c 0
 581 -101 552 -150 499 -186 c 0
223 295 m 0
 238 277 260 268 284 268 c 0
 309 268 331 277 347 295 c 0
 363 313 373 339 373 372 c 0
 373 437 334 473 284 473 c 0
 235 473 197 437 197 372 c 0
 197 339 207 313 223 295 c 0
201 -130 m 0
 224 -143 258 -149 298 -149 c 0
 341 -149 376 -140 401 -125 c 0
 426 -111 440 -91 440 -69 c 0
 440 -29 407 -18 347 -18 c 2
 278 -18 l 2
 245 -18 222 -16 201 -11 c 1
 176 -31 165 -53 165 -77 c 0
 165 -100 178 -118 201 -130 c 0
EndSplineSet
EndChar

StartChar: h
Encoding: 104 104 73
Width: 640
GlyphClass: 1
Flags: W
LayerCount: 2
Fore
SplineSet
79 399 m 1
 79 798 l 1
 226 798 l 1
 226 597 l 1
 219 492 l 1
 263 534 319 574 395 574 c 0
 516 574 568 490 568 349 c 2
 568 0 l 1
 421 0 l 1
 421 331 l 2
 421 418 397 448 342 448 c 0
 297 448 267 426 226 385 c 1
 226 0 l 1
 152 0 l 1
 79 0 l 1
 79 399 l 1
EndSplineSet
EndChar

StartChar: i
Encoding: 105 105 74
Width: 304
GlyphClass: 1
Flags: W
LayerCount: 2
Fore
SplineSet
226 280 m 1
 226 0 l 1
 152 0 l 1
 79 0 l 1
 79 560 l 1
 226 560 l 1
 226 280 l 1
214 789 m 0
 229 775 238 755 238 731 c 0
 238 707 229 687 214 673 c 0
 199 659 178 651 153 651 c 0
 101 651 68 682 68 731 c 0
 68 779 101 811 153 811 c 0
 178 811 199 803 214 789 c 0
EndSplineSet
EndChar

StartChar: j
Encoding: 106 106 75
Width: 306
GlyphClass: 1
Flags: W
LayerCount: 2
Fore
SplineSet
80 271 m 1
 80 560 l 1
 154 560 l 1
 228 560 l 1
 228 -14 l 2
 228 -135 181 -229 40 -229 c 0
 -3 -229 -32 -222 -54 -213 c 1
 -28 -105 l 1
 -13 -110 2 -113 19 -113 c 0
 66 -113 80 -81 80 -18 c 2
 80 271 l 1
215 789 m 0
 230 775 239 755 239 731 c 0
 239 707 230 687 215 673 c 0
 200 659 179 651 153 651 c 0
 103 651 68 682 68 731 c 0
 68 779 103 811 153 811 c 0
 179 811 200 803 215 789 c 0
EndSplineSet
EndChar

StartChar: k
Encoding: 107 107 76
Width: 604
GlyphClass: 1
Flags: W
LayerCount: 2
Fore
SplineSet
79 399 m 1
 79 798 l 1
 224 798 l 1
 224 320 l 1
 228 320 l 1
 419 560 l 1
 499 560 l 1
 580 560 l 1
 388 329 l 1
 598 0 l 1
 438 0 l 1
 302 233 l 1
 224 142 l 1
 224 0 l 1
 79 0 l 1
 79 399 l 1
EndSplineSet
EndChar

StartChar: l
Encoding: 108 108 77
Width: 315
GlyphClass: 1
Flags: W
LayerCount: 2
Fore
SplineSet
226 474 m 1
 226 151 l 2
 226 117 241 106 255 106 c 0
 261 106 265 106 275 108 c 1
 293 -1 l 1
 276 -8 252 -14 218 -14 c 0
 115 -14 79 53 79 157 c 2
 79 798 l 1
 152 798 l 1
 226 798 l 1
 226 474 l 1
EndSplineSet
EndChar

StartChar: m
Encoding: 109 109 78
Width: 964
GlyphClass: 1
Flags: W
LayerCount: 2
Fore
SplineSet
79 280 m 1
 79 560 l 1
 199 560 l 1
 210 485 l 1
 213 485 l 1
 260 534 312 574 385 574 c 0
 465 574 512 538 538 476 c 1
 590 530 645 574 717 574 c 0
 836 574 890 490 890 349 c 2
 890 0 l 1
 744 0 l 1
 744 331 l 2
 744 418 719 448 666 448 c 0
 634 448 598 428 558 385 c 1
 558 0 l 1
 412 0 l 1
 412 331 l 2
 412 418 387 448 333 448 c 0
 301 448 265 428 226 385 c 1
 226 0 l 1
 152 0 l 1
 79 0 l 1
 79 280 l 1
EndSplineSet
EndChar

StartChar: n
Encoding: 110 110 79
Width: 641
GlyphClass: 1
Flags: W
LayerCount: 2
Fore
SplineSet
79 280 m 1
 79 560 l 1
 199 560 l 1
 210 486 l 1
 213 486 l 1
 262 534 319 574 395 574 c 0
 516 574 568 490 568 349 c 2
 568 0 l 1
 421 0 l 1
 421 331 l 2
 421 418 397 448 342 448 c 0
 297 448 267 426 226 385 c 1
 226 0 l 1
 152 0 l 1
 79 0 l 1
 79 280 l 1
EndSplineSet
EndChar

StartChar: o
Encoding: 111 111 80
Width: 626
GlyphClass: 1
Flags: W
LayerCount: 2
Fore
SplineSet
500 497 m 0
 550 447 582 373 582 280 c 0
 582 187 550 114 500 63 c 0
 450 13 383 -14 313 -14 c 0
 172 -14 44 94 44 280 c 0
 44 466 172 574 313 574 c 0
 383 574 450 547 500 497 c 0
225 406 m 0
 205 376 194 333 194 280 c 0
 194 227 205 184 225 153 c 0
 245 123 275 106 313 106 c 0
 389 106 432 174 432 280 c 0
 432 385 389 454 313 454 c 0
 275 454 245 437 225 406 c 0
EndSplineSet
EndChar

StartChar: p
Encoding: 112 112 81
Width: 644
GlyphClass: 1
Flags: W
LayerCount: 2
Fore
SplineSet
79 172 m 1
 79 560 l 1
 199 560 l 1
 210 502 l 1
 213 502 l 1
 260 542 317 574 378 574 c 0
 515 574 598 461 598 289 c 0
 598 97 483 -14 360 -14 c 0
 311 -14 263 8 221 47 c 1
 226 -44 l 1
 226 -215 l 1
 152 -215 l 1
 79 -215 l 1
 79 172 l 1
412 151 m 0
 434 181 447 226 447 287 c 0
 447 394 413 453 336 453 c 0
 298 453 264 434 226 396 c 1
 226 272 l 1
 226 149 l 1
 262 118 297 107 328 107 c 0
 361 107 391 122 412 151 c 0
EndSplineSet
EndChar

StartChar: q
Encoding: 113 113 82
Width: 644
GlyphClass: 1
Flags: W
LayerCount: 2
Fore
SplineSet
566 172 m 1
 566 -215 l 1
 492 -215 l 1
 419 -215 l 1
 419 -37 l 1
 424 53 l 1
 385 14 330 -14 276 -14 c 0
 136 -14 47 96 47 280 c 0
 47 462 162 574 282 574 c 0
 344 574 389 552 434 505 c 1
 438 505 l 1
 451 560 l 1
 566 560 l 1
 566 172 l 1
228 151 m 0
 248 122 277 107 314 107 c 0
 353 107 387 123 419 165 c 1
 419 288 l 1
 419 411 l 1
 385 442 350 453 314 453 c 0
 251 453 198 393 198 282 c 0
 198 224 209 180 228 151 c 0
EndSplineSet
EndChar

StartChar: r
Encoding: 114 114 83
Width: 436
GlyphClass: 1
Flags: W
LayerCount: 2
Fore
SplineSet
79 280 m 1
 79 560 l 1
 199 560 l 1
 210 461 l 1
 213 461 l 1
 254 534 314 574 372 574 c 0
 403 574 421 569 437 562 c 1
 413 435 l 1
 393 441 377 444 353 444 c 0
 310 444 258 415 226 334 c 1
 226 0 l 1
 152 0 l 1
 79 0 l 1
 79 280 l 1
EndSplineSet
EndChar

StartChar: s
Encoding: 115 115 84
Width: 495
GlyphClass: 1
Flags: W
LayerCount: 2
Fore
SplineSet
114 526 m 0
 150 556 202 574 266 574 c 0
 347 574 410 541 456 505 c 1
 390 416 l 1
 350 444 311 464 270 464 c 0
 219 464 195 442 195 410 c 0
 195 369 246 354 306 332 c 0
 380 304 462 266 462 163 c 0
 462 114 443 69 405 37 c 0
 367 6 312 -14 239 -14 c 0
 164 -14 82 18 26 64 c 1
 93 157 l 1
 143 119 190 96 243 96 c 0
 299 96 324 120 324 155 c 0
 324 197 266 216 207 239 c 0
 136 266 57 309 57 403 c 0
 57 453 77 496 114 526 c 0
EndSplineSet
EndChar

StartChar: t
Encoding: 116 116 85
Width: 421
GlyphClass: 1
Flags: W
LayerCount: 2
Fore
SplineSet
246 320 m 1
 246 196 l 2
 246 132 273 102 323 102 c 0
 341 102 363 108 378 114 c 1
 403 7 l 1
 372 -2 333 -14 284 -14 c 0
 151 -14 100 71 100 195 c 2
 100 319 l 1
 100 444 l 1
 21 444 l 1
 21 553 l 1
 108 560 l 1
 125 711 l 1
 246 711 l 1
 246 560 l 1
 316 560 l 2
 339 560 362 561 385 563 c 0
 389 560 389 444 385 441 c 0
 368 443 339 444 316 444 c 2
 246 444 l 1
 246 320 l 1
EndSplineSet
EndChar

StartChar: u
Encoding: 117 117 86
Width: 637
GlyphClass: 1
Flags: W
LayerCount: 2
Fore
SplineSet
559 280 m 1
 559 0 l 1
 439 0 l 1
 428 81 l 1
 424 81 l 1
 376 24 323 -14 246 -14 c 0
 125 -14 73 70 73 211 c 2
 73 560 l 1
 219 560 l 1
 219 229 l 2
 219 142 244 112 299 112 c 0
 344 112 374 132 412 182 c 1
 412 560 l 1
 485 560 l 1
 559 560 l 1
 559 280 l 1
EndSplineSet
EndChar

StartChar: v
Encoding: 118 118 87
Width: 576
GlyphClass: 1
Flags: W
LayerCount: 2
Fore
SplineSet
109 280 m 1
 14 560 l 1
 162 560 l 1
 243 281 l 2
 259 226 273 168 289 111 c 1
 294 111 l 1
 309 168 324 226 339 281 c 2
 421 560 l 1
 562 560 l 1
 375 0 l 1
 290 0 l 1
 205 0 l 1
 109 280 l 1
EndSplineSet
EndChar

StartChar: w
Encoding: 119 119 88
Width: 863
GlyphClass: 1
Flags: W
LayerCount: 2
Fore
SplineSet
100 280 m 1
 28 560 l 1
 174 560 l 1
 236 284 l 2
 245 229 253 175 262 120 c 1
 267 120 l 1
 278 175 288 230 302 284 c 2
 370 560 l 1
 500 560 l 1
 570 284 l 2
 583 229 593 175 606 120 c 1
 610 120 l 1
 620 175 628 229 638 284 c 2
 698 560 l 1
 835 560 l 1
 697 0 l 1
 610 0 l 1
 524 0 l 1
 465 244 l 2
 453 297 443 348 432 408 c 1
 427 408 l 1
 417 348 408 296 397 244 c 2
 340 0 l 1
 172 0 l 1
 100 280 l 1
EndSplineSet
EndChar

StartChar: x
Encoding: 120 120 89
Width: 562
GlyphClass: 1
Flags: W
LayerCount: 2
Fore
SplineSet
103 145 m 1
 191 291 l 1
 27 560 l 1
 185 560 l 1
 241 461 l 2
 257 429 274 397 291 366 c 1
 295 366 l 1
 308 397 323 429 336 461 c 2
 383 560 l 1
 535 560 l 1
 371 275 l 1
 546 0 l 1
 467 0 l 1
 388 0 l 1
 326 103 l 2
 309 136 290 169 272 200 c 1
 267 200 l 1
 251 169 236 136 220 103 c 2
 169 0 l 1
 16 0 l 1
 103 145 l 1
EndSplineSet
EndChar

StartChar: y
Encoding: 121 121 90
Width: 574
GlyphClass: 1
Flags: W
LayerCount: 2
Fore
SplineSet
461 271 m 1
 362 -17 l 2
 313 -149 253 -224 128 -224 c 0
 95 -224 73 -220 51 -214 c 1
 78 -101 l 1
 88 -104 104 -108 117 -108 c 0
 174 -108 206 -72 222 -23 c 2
 232 11 l 1
 14 560 l 1
 88 560 l 1
 162 560 l 1
 251 300 l 2
 268 250 282 196 298 142 c 1
 303 142 l 1
 315 194 329 248 343 300 c 2
 420 560 l 1
 561 560 l 1
 461 271 l 1
EndSplineSet
EndChar

StartChar: z
Encoding: 122 122 91
Width: 511
GlyphClass: 1
Flags: W
LayerCount: 2
Fore
SplineSet
166 261 m 1
 292 444 l 1
 180 444 l 2
 143 444 106 442 69 439 c 1
 65 444 65 560 69 569 c 1
 119 563 203 560 272 560 c 2
 475 560 l 1
 475 481 l 1
 224 116 l 1
 354 116 l 2
 398 116 441 118 484 122 c 1
 488 116 488 0 484 -5 c 1
 457 -2 410 0 373 0 c 2
 262 0 l 1
 41 0 l 1
 41 78 l 1
 166 261 l 1
EndSplineSet
EndChar

StartChar: braceleft
Encoding: 123 123 92
Width: 378
GlyphClass: 1
Flags: W
LayerCount: 2
Fore
SplineSet
157 -138 m 0
 134 -114 123 -75 123 -14 c 0
 123 67 133 113 133 186 c 0
 133 229 111 270 37 272 c 1
 37 359 l 1
 111 361 133 403 133 444 c 0
 133 517 123 564 123 644 c 0
 123 705 134 745 157 769 c 0
 180 794 216 803 264 803 c 2
 297 803 l 2
 308 803 319 804 330 805 c 0
 334 803 334 724 330 723 c 0
 328 723 324 724 319 724 c 2
 307 724 l 2
 255 724 242 704 242 638 c 0
 242 575 246 519 246 448 c 0
 246 365 222 331 167 317 c 1
 167 313 l 1
 222 299 246 265 246 182 c 0
 246 112 242 56 242 -8 c 0
 242 -73 255 -94 307 -94 c 2
 319 -94 l 2
 324 -94 327 -93 330 -93 c 0
 334 -94 334 -172 330 -174 c 0
 322 -173 308 -172 297 -172 c 2
 264 -172 l 2
 216 -172 180 -163 157 -138 c 0
EndSplineSet
EndChar

StartChar: bar
Encoding: 124 124 93
Width: 296
GlyphClass: 1
Flags: W
LayerCount: 2
Fore
SplineSet
100 283 m 1
 100 567 l 2
 100 663 96 780 88 851 c 1
 100 857 196 857 208 851 c 1
 200 780 196 663 196 567 c 2
 196 283 l 1
 196 -1 l 2
 196 -96 200 -214 208 -284 c 1
 196 -290 100 -290 88 -284 c 1
 96 -214 100 -96 100 -1 c 2
 100 283 l 1
EndSplineSet
EndChar

StartChar: braceright
Encoding: 125 125 94
Width: 378
GlyphClass: 1
Flags: W
LayerCount: 2
Fore
SplineSet
220 -138 m 0
 197 -163 162 -172 113 -172 c 2
 80 -172 l 2
 68 -172 58 -173 48 -174 c 0
 44 -172 44 -94 48 -93 c 0
 50 -93 54 -94 59 -94 c 2
 71 -94 l 2
 122 -94 136 -73 136 -8 c 0
 136 56 131 112 131 182 c 0
 131 265 156 299 211 313 c 1
 211 317 l 1
 156 331 131 365 131 448 c 0
 131 519 136 575 136 638 c 0
 136 704 122 724 71 724 c 2
 59 724 l 2
 54 724 51 723 48 723 c 0
 44 724 44 803 48 805 c 0
 56 804 68 803 80 803 c 2
 113 803 l 2
 162 803 197 794 220 769 c 0
 244 745 255 705 255 644 c 0
 255 564 245 517 245 444 c 0
 245 403 267 361 342 359 c 1
 342 272 l 1
 267 270 245 229 245 186 c 0
 245 113 255 67 255 -14 c 0
 255 -75 244 -114 220 -138 c 0
EndSplineSet
EndChar

StartChar: asciitilde
Encoding: 126 126 95
Width: 590
GlyphClass: 1
Flags: W
LayerCount: 2
Fore
SplineSet
283 323 m 0
 253 345 227 367 196 367 c 0
 164 367 136 343 112 300 c 1
 35 358 l 1
 87 440 143 471 198 471 c 0
 244 471 278 449 307 427 c 0
 337 405 363 383 394 383 c 0
 425 383 453 405 477 449 c 1
 555 390 l 1
 503 309 446 278 392 278 c 0
 346 278 313 300 283 323 c 0
EndSplineSet
EndChar

StartChar: uni3031
Encoding: 12337 12337 96
Width: 1000
VWidth: 2000
Flags: W
LayerCount: 2
Fore
SplineSet
707 -526 m 1
 635 -551 l 1
 540 -293 382 -7 237 225 c 0
 201 283 178 332 167 380 c 0
 149 462 171 536 222 637 c 0
 305 804 486 1115 585 1331 c 1
 653 1296 l 1
 722 1261 l 1
 593 1035 408 714 332 568 c 0
 297 502 283 443 307 380 c 0
 314 360 326 337 341 314 c 0
 481 98 675 -227 779 -500 c 1
 707 -526 l 1
EndSplineSet
Substitution2: "Vertical forms subtable" uni3031.vert
EndChar

StartChar: uni3031.vert
Encoding: 1114113 -1 97
Width: 1000
VWidth: 2000
Flags: W
LayerCount: 2
Fore
SplineSet
707 -1026 m 1
 635 -1051 l 1
 540 -793 382 -507 237 -275 c 0
 201 -217 178 -168 167 -120 c 0
 149 -38 171 36 222 137 c 0
 305 304 486 615 585 831 c 1
 653 796 l 1
 722 761 l 1
 593 535 408 214 332 68 c 0
 297 2 283 -57 307 -120 c 0
 314 -140 326 -163 341 -186 c 0
 481 -402 675 -727 779 -1000 c 1
 707 -1026 l 1
EndSplineSet
EndChar

StartChar: uni3032
Encoding: 12338 12338 98
Width: 1000
VWidth: 2000
Flags: W
LayerCount: 2
Fore
SplineSet
710 819 m 0
 727 789 743 760 752 741 c 1
 661 702 l 1
 652 722 637 752 621 781 c 0
 604 811 587 840 574 859 c 1
 662 896 l 1
 675 878 693 848 710 819 c 0
758 838 m 0
 741 866 723 895 709 913 c 1
 797 951 l 1
 811 933 829 904 846 875 c 0
 863 846 880 817 890 797 c 1
 801 759 l 1
 791 780 775 809 758 838 c 0
707 -526 m 1
 635 -551 l 1
 540 -293 382 -7 237 225 c 0
 201 283 178 332 167 380 c 0
 149 462 171 536 222 637 c 0
 305 804 486 1115 585 1331 c 1
 653 1296 l 1
 722 1261 l 1
 593 1035 408 714 332 568 c 0
 297 502 283 443 307 380 c 0
 314 360 326 337 341 314 c 0
 481 98 675 -227 779 -500 c 1
 707 -526 l 1
EndSplineSet
Substitution2: "Vertical forms subtable" uni3032.vert
EndChar

StartChar: uni3032.vert
Encoding: 1114114 -1 99
Width: 1000
VWidth: 2000
Flags: W
LayerCount: 2
Fore
SplineSet
710 319 m 0
 727 289 743 260 752 241 c 1
 661 202 l 1
 652 222 637 252 621 281 c 0
 604 311 587 340 574 359 c 1
 662 396 l 1
 675 378 693 348 710 319 c 0
758 338 m 0
 741 366 723 395 709 413 c 1
 797 451 l 1
 811 433 829 404 846 375 c 0
 863 346 880 317 890 297 c 1
 801 259 l 1
 791 280 775 309 758 338 c 0
707 -1026 m 1
 635 -1051 l 1
 540 -793 382 -507 237 -275 c 0
 201 -217 178 -168 167 -120 c 0
 149 -38 171 36 222 137 c 0
 305 304 486 615 585 831 c 1
 653 796 l 1
 722 761 l 1
 593 535 408 214 332 68 c 0
 297 2 283 -57 307 -120 c 0
 314 -140 326 -163 341 -186 c 0
 481 -402 675 -727 779 -1000 c 1
 707 -1026 l 1
EndSplineSet
EndChar

StartChar: uni3033
Encoding: 12339 12339 100
Width: 1000
Flags: W
LayerCount: 2
Fore
SplineSet
507 385 m 0
 435 258 370 141 332 68 c 0
 297 2 283 -57 307 -120 c 1
 167 -120 l 1
 149 -38 171 36 222 137 c 0
 305 304 486 615 585 831 c 1
 653 796 l 1
 722 761 l 1
 658 648 579 511 507 385 c 0
EndSplineSet
EndChar

StartChar: uni3034
Encoding: 12340 12340 101
Width: 1000
Flags: W
LayerCount: 2
Fore
SplineSet
507 385 m 0
 435 258 370 141 332 68 c 0
 297 2 283 -57 307 -120 c 1
 167 -120 l 1
 149 -38 171 36 222 137 c 0
 305 304 486 615 585 831 c 1
 653 796 l 1
 722 761 l 1
 658 648 579 511 507 385 c 0
710 319 m 0
 727 289 743 260 752 241 c 1
 661 202 l 1
 652 222 637 252 621 281 c 0
 604 311 587 340 574 359 c 1
 662 396 l 1
 675 378 693 348 710 319 c 0
758 338 m 0
 741 366 723 395 709 413 c 1
 797 451 l 1
 811 433 829 404 846 375 c 0
 863 346 880 317 890 297 c 1
 801 259 l 1
 791 280 775 309 758 338 c 0
EndSplineSet
EndChar

StartChar: uni3035
Encoding: 12341 12341 102
Width: 1000
Flags: W
LayerCount: 2
Fore
SplineSet
574 428 m 0
 653 286 727 137 779 0 c 1
 707 -26 l 1
 635 -51 l 1
 540 207 382 493 237 725 c 0
 201 783 178 832 167 880 c 1
 307 880 l 1
 314 860 326 837 341 814 c 0
 411 706 495 571 574 428 c 0
EndSplineSet
EndChar

StartChar: uni3041
Encoding: 12353 12353 103
Width: 1000
Flags: W
LayerCount: 2
Fore
SplineSet
239 273 m 0
 274 319 321 358 373 384 c 1
 374 417 377 450 380 480 c 1
 356 480 l 2
 316 480 255 483 219 486 c 1
 216 583 l 1
 242 579 318 573 356 573 c 2
 390 573 l 1
 395 616 l 2
 396 630 397 651 397 665 c 1
 453 664 518 657 517 653 c 0
 516 647 507 652 505 641 c 0
 503 634 501 626 499 617 c 2
 492 576 l 1
 582 580 671 591 754 610 c 1
 755 511 l 1
 681 500 576 489 479 483 c 1
 474 419 l 1
 509 427 547 432 584 432 c 2
 597 432 l 1
 604 476 l 1
 702 452 l 1
 690 415 l 1
 786 384 843 309 843 215 c 0
 843 161 826 106 785 60 c 0
 744 15 680 -22 584 -39 c 1
 527 52 l 1
 678 70 736 146 736 224 c 0
 736 270 711 310 661 331 c 1
 619 224 564 146 499 92 c 1
 516 32 l 1
 418 3 l 1
 409 34 l 1
 371 16 331 4 296 4 c 0
 234 4 183 32 183 121 c 0
 183 175 205 228 239 273 c 0
472 262 m 0
 473 241 475 221 477 202 c 1
 495 221 512 242 527 266 c 0
 543 290 557 315 570 345 c 1
 532 344 498 338 470 329 c 1
 470 306 471 283 472 262 c 0
378 202 m 0
 375 228 373 255 372 282 c 1
 346 264 323 240 306 216 c 0
 290 191 280 165 280 140 c 0
 280 118 291 103 316 103 c 0
 336 103 361 112 388 127 c 1
 384 151 381 176 378 202 c 0
EndSplineSet
Substitution2: "Vertical forms subtable" uni3041.vert
EndChar

StartChar: uni3041.vert
Encoding: 1114115 -1 104
Width: 1000
Flags: W
LayerCount: 2
Fore
SplineSet
365 346 m 0
 397 389 441 427 492 453 c 1
 498 540 l 1
 477 540 l 2
 437 540 383 543 349 545 c 1
 347 639 l 1
 372 635 437 631 477 631 c 2
 507 631 l 1
 509 663 l 2
 511 678 512 698 511 711 c 1
 620 708 l 1
 616 694 611 677 609 662 c 2
 603 633 l 1
 686 637 764 646 844 665 c 1
 845 568 l 1
 774 557 679 547 589 543 c 1
 584 485 l 1
 618 493 654 497 690 497 c 2
 698 497 l 1
 705 539 l 1
 800 515 l 1
 789 481 l 1
 875 451 930 380 930 293 c 0
 930 246 916 194 879 150 c 0
 842 106 782 71 689 56 c 1
 635 143 l 1
 786 159 829 237 829 301 c 0
 829 341 805 378 759 398 c 1
 722 303 671 230 610 177 c 1
 627 121 l 1
 534 93 l 1
 525 120 l 1
 490 103 453 92 416 92 c 0
 365 92 314 125 314 203 c 0
 314 253 333 302 365 346 c 0
583 337 m 0
 584 318 586 300 588 283 c 1
 604 300 619 320 633 341 c 0
 648 363 661 387 672 414 c 1
 635 412 606 406 580 396 c 1
 580 376 581 356 583 337 c 0
495 280 m 0
 493 304 492 328 491 352 c 1
 466 334 445 311 430 289 c 0
 415 266 407 244 407 225 c 0
 407 203 418 191 439 191 c 0
 455 191 478 198 505 213 c 1
 501 235 498 257 495 280 c 0
EndSplineSet
Comment: "."
EndChar

StartChar: uni3042
Encoding: 12354 12354 105
Width: 1000
Flags: W
LayerCount: 2
Fore
SplineSet
182 321 m 0
 223 376 281 424 347 456 c 1
 349 497 351 537 355 577 c 1
 325 577 l 2
 276 577 203 580 159 582 c 1
 156 694 l 1
 189 688 272 680 329 680 c 2
 367 680 l 1
 372 732 l 2
 373 750 375 773 374 790 c 1
 435 788 506 780 505 775 c 0
 503 768 493 774 489 760 c 0
 487 751 485 743 483 736 c 2
 474 683 l 1
 588 688 690 700 793 725 c 1
 794 614 l 1
 702 597 576 585 461 580 c 1
 454 493 l 1
 499 504 548 510 594 510 c 2
 611 510 l 1
 615 530 618 554 619 568 c 1
 734 540 l 1
 717 491 l 1
 826 455 899 367 899 256 c 0
 899 188 879 121 831 67 c 0
 782 12 705 -30 589 -47 c 1
 527 53 l 1
 709 74 782 168 782 262 c 0
 782 319 749 370 684 396 c 1
 633 266 558 165 487 104 c 1
 493 80 501 56 508 33 c 1
 400 0 l 1
 388 39 l 1
 342 16 292 1 242 1 c 0
 174 1 116 43 116 140 c 0
 116 202 141 265 182 321 c 0
453 305 m 0
 455 279 458 254 461 230 c 1
 484 254 506 280 525 310 c 0
 546 339 564 374 580 412 c 1
 530 411 487 403 450 391 c 1
 450 388 l 2
 450 359 451 332 453 305 c 0
351 243 m 0
 347 275 345 308 344 341 c 1
 309 317 279 287 258 255 c 0
 239 224 226 193 226 165 c 0
 226 134 240 118 270 118 c 0
 296 118 330 129 364 149 c 1
 359 179 354 211 351 243 c 0
EndSplineSet
AlternateSubs2: "Historical Kana subtable" u1B002 u1B003 u1B004 u1B005
EndChar

StartChar: uni3042_uni3099.ccmp
Encoding: 1114116 -1 106
Width: 1000
Flags: W
LayerCount: 2
Fore
SplineSet
820 735 m 0
 833 712 846 688 855 669 c 1
 785 636 l 1
 773 663 761 685 750 706 c 0
 739 727 727 747 712 769 c 1
 781 798 l 1
 793 782 807 759 820 735 c 0
925 780 m 0
 940 757 954 734 963 715 c 1
 893 680 l 1
 881 706 868 728 856 749 c 0
 844 770 831 790 816 810 c 1
 884 842 l 1
 896 826 911 803 925 780 c 0
182 321 m 0
 223 376 281 424 347 456 c 1
 349 497 351 537 355 577 c 1
 325 577 l 2
 276 577 203 580 159 582 c 1
 156 694 l 1
 189 688 272 680 329 680 c 2
 367 680 l 1
 372 732 l 2
 373 750 375 773 374 790 c 1
 435 788 506 780 505 775 c 0
 503 768 493 774 489 760 c 0
 487 751 485 743 483 736 c 2
 474 683 l 1
 576 687 657 696 742 713 c 1
 743 605 l 1
 661 594 561 584 461 579 c 1
 454 493 l 1
 499 504 548 510 594 510 c 2
 611 510 l 1
 615 530 618 554 619 568 c 1
 734 540 l 1
 717 491 l 1
 826 455 899 367 899 256 c 0
 899 188 879 121 831 67 c 0
 782 12 705 -30 589 -47 c 1
 527 53 l 1
 709 74 782 168 782 262 c 0
 782 319 749 370 684 396 c 1
 633 266 558 165 487 104 c 1
 493 80 501 56 508 33 c 1
 400 0 l 1
 388 39 l 1
 342 16 292 1 242 1 c 0
 174 1 116 43 116 140 c 0
 116 202 141 265 182 321 c 0
453 305 m 0
 455 279 458 254 461 230 c 1
 484 254 506 280 525 310 c 0
 546 339 564 374 580 412 c 1
 530 411 487 403 450 391 c 1
 450 388 l 2
 450 359 451 332 453 305 c 0
351 243 m 0
 347 275 345 308 344 341 c 1
 309 317 279 287 258 255 c 0
 239 224 226 193 226 165 c 0
 226 134 240 118 270 118 c 0
 296 118 330 129 364 149 c 1
 359 179 354 211 351 243 c 0
EndSplineSet
Ligature2: "Dakuten and handakuten subtable" uni3042 uni3099
EndChar

StartChar: uni3043
Encoding: 12355 12355 107
Width: 1000
Flags: W
LayerCount: 2
Fore
SplineSet
283 32 m 0
 249 75 222 146 210 255 c 0
 201 326 199 451 199 490 c 0
 199 510 195 559 193 573 c 1
 321 571 l 1
 319 555 313 493 313 476 c 0
 313 434 313 331 320 276 c 0
 331 175 359 108 396 108 c 0
 431 108 462 208 477 270 c 1
 520 218 l 1
 564 168 l 1
 515 31 468 -27 394 -27 c 0
 356 -27 316 -11 283 32 c 0
812 345 m 0
 838 267 854 187 857 130 c 1
 742 85 l 1
 737 143 725 224 702 305 c 0
 680 386 647 464 601 515 c 1
 710 553 l 1
 752 502 787 424 812 345 c 0
EndSplineSet
Substitution2: "Vertical forms subtable" uni3043.vert
EndChar

StartChar: uni3043.vert
Encoding: 1114117 -1 108
Width: 1000
Flags: W
LayerCount: 2
Fore
SplineSet
586 123 m 0
 559 94 530 80 497 80 c 0
 461 80 424 95 393 136 c 0
 362 176 337 244 325 349 c 0
 317 419 315 523 315 561 c 0
 315 582 311 629 309 640 c 1
 434 640 l 1
 432 624 426 569 426 545 c 0
 426 506 427 438 433 383 c 0
 444 281 464 217 499 217 c 0
 531 217 559 305 573 366 c 1
 659 265 l 1
 637 200 612 153 586 123 c 0
891 428 m 0
 915 351 930 274 934 225 c 1
 821 182 l 1
 817 244 804 322 782 397 c 0
 760 472 730 543 690 589 c 1
 796 625 l 1
 835 580 867 504 891 428 c 0
EndSplineSet
Comment: "."
EndChar

StartChar: uni3044
Encoding: 12356 12356 109
Width: 1000
Flags: W
LayerCount: 2
Fore
SplineSet
202 701 m 1
 274 700 l 1
 268 666 263 610 263 583 c 0
 262 521 263 449 269 380 c 0
 282 242 310 146 369 146 c 0
 414 146 451 259 469 336 c 1
 516 277 l 1
 563 218 l 1
 501 51 442 -7 367 -7 c 0
 263 -7 174 88 148 345 c 0
 138 434 137 546 137 604 c 0
 137 631 135 673 130 702 c 1
 202 701 l 1
741 399 m 0
 714 492 676 580 625 639 c 1
 744 678 l 1
 834 568 905 328 915 181 c 1
 853 156 l 1
 791 132 l 1
 784 210 768 307 741 399 c 0
EndSplineSet
AlternateSubs2: "Historical Kana subtable" u1B006 u1B007 u1B008 u1B009
EndChar

StartChar: uni3044_uni3099.ccmp
Encoding: 1114118 -1 110
Width: 1000
Flags: W
LayerCount: 2
Fore
SplineSet
202 701 m 1
 274 700 l 1
 268 666 263 610 263 583 c 0
 262 521 263 449 269 380 c 0
 282 242 310 146 369 146 c 0
 414 146 451 259 469 336 c 1
 516 277 l 1
 563 218 l 1
 501 51 442 -7 367 -7 c 0
 263 -7 174 88 148 345 c 0
 138 434 137 546 137 604 c 0
 137 631 135 673 130 702 c 1
 202 701 l 1
741 402 m 0
 714 493 676 580 625 639 c 1
 744 678 l 1
 834 568 905 334 915 187 c 1
 853 162 l 1
 791 138 l 1
 784 216 768 311 741 402 c 0
820 735 m 0
 833 712 846 688 855 669 c 1
 785 636 l 1
 773 663 761 685 750 706 c 0
 739 727 727 747 712 769 c 1
 781 798 l 1
 793 782 807 759 820 735 c 0
925 780 m 0
 940 757 954 734 963 715 c 1
 893 680 l 1
 881 706 868 728 856 749 c 0
 844 770 831 790 816 810 c 1
 884 842 l 1
 896 826 911 803 925 780 c 0
EndSplineSet
Ligature2: "Dakuten and handakuten subtable" uni3044 uni3099
EndChar

StartChar: uni3045
Encoding: 12357 12357 111
Width: 1000
Flags: W
LayerCount: 2
Fore
SplineSet
570 115 m 0
 626 148 657 194 657 256 c 0
 657 310 618 349 544 349 c 0
 475 349 385 324 338 309 c 0
 317 302 284 289 267 281 c 1
 235 404 l 1
 260 405 291 410 313 414 c 0
 367 426 473 453 557 453 c 0
 688 453 774 381 774 254 c 0
 774 173 742 104 678 51 c 0
 614 -2 520 -41 398 -59 c 1
 337 50 l 1
 435 62 515 82 570 115 c 0
511 518 m 0
 443 525 376 534 334 542 c 1
 350 645 l 1
 399 635 465 626 530 620 c 0
 596 613 661 609 709 607 c 1
 692 502 l 1
 648 504 579 510 511 518 c 0
EndSplineSet
Substitution2: "Vertical forms subtable" uni3045.vert
EndChar

StartChar: uni3045.vert
Encoding: 1114119 -1 112
Width: 1000
Flags: W
LayerCount: 2
Fore
SplineSet
665 222 m 0
 716 255 743 298 743 354 c 0
 743 401 705 438 638 438 c 0
 561 438 480 412 444 399 c 0
 422 392 397 382 381 374 c 1
 351 490 l 1
 376 492 405 496 427 501 c 0
 479 512 566 537 651 537 c 0
 780 537 855 462 855 350 c 0
 855 277 825 213 766 162 c 0
 707 111 619 75 503 57 c 1
 445 158 l 1
 539 169 614 190 665 222 c 0
609 595 m 0
 546 602 484 610 443 617 c 1
 458 717 l 1
 507 707 567 699 628 693 c 0
 688 686 748 682 795 681 c 1
 778 580 l 1
 736 583 672 588 609 595 c 0
EndSplineSet
Comment: "."
EndChar

StartChar: uni3046
Encoding: 12358 12358 113
Width: 1000
Flags: W
LayerCount: 2
Fore
SplineSet
680 75 m 0
 601 13 489 -28 358 -46 c 1
 290 73 l 1
 524 99 674 178 674 328 c 0
 674 391 625 443 537 443 c 0
 433 443 340 410 292 396 c 0
 265 388 228 373 201 362 c 1
 183 431 l 1
 165 500 l 1
 197 503 238 509 269 516 c 0
 337 532 443 560 553 560 c 0
 701 560 806 474 806 323 c 0
 806 221 759 137 680 75 c 0
519 759 m 0
 599 751 677 746 727 746 c 1
 708 627 l 1
 653 631 574 638 496 647 c 0
 418 654 340 664 286 674 c 1
 304 789 l 1
 359 777 440 766 519 759 c 0
EndSplineSet
AlternateSubs2: "Historical Kana subtable" u1B00A u1B00B u1B00C u1B00D u1B00E
EndChar

StartChar: uni3047
Encoding: 12359 12359 114
Width: 1000
Flags: W
LayerCount: 2
Fore
SplineSet
524 616 m 0
 587 609 649 604 687 601 c 1
 673 498 l 1
 635 502 572 508 509 516 c 0
 447 525 383 533 343 541 c 1
 360 642 l 1
 399 632 461 623 524 616 c 0
460 435 m 0
 518 438 579 441 610 446 c 0
 622 447 645 452 653 455 c 1
 682 420 715 374 710 370 c 0
 704 365 699 377 687 368 c 0
 679 361 671 355 665 349 c 0
 631 320 557 250 539 229 c 1
 548 228 560 225 571 218 c 0
 591 212 606 187 614 162 c 0
 620 141 628 113 635 93 c 0
 644 70 661 62 688 62 c 0
 740 62 800 70 837 78 c 1
 831 -36 l 1
 800 -42 712 -47 672 -47 c 0
 591 -47 559 -22 543 20 c 0
 534 43 527 77 521 97 c 0
 512 123 501 140 479 140 c 0
 464 140 445 123 428 105 c 0
 403 79 347 13 294 -55 c 1
 192 18 l 1
 206 28 216 38 236 58 c 0
 265 86 317 136 369 189 c 0
 422 242 476 298 508 337 c 1
 472 333 376 327 334 323 c 0
 304 320 277 315 260 313 c 1
 251 432 l 1
 270 430 301 429 327 430 c 0
 347 431 402 433 460 435 c 0
EndSplineSet
Substitution2: "Vertical forms subtable" uni3047.vert
EndChar

StartChar: uni3047.vert
Encoding: 1114120 -1 115
Width: 1000
Flags: W
LayerCount: 2
Fore
SplineSet
619 682 m 0
 677 676 734 672 771 669 c 1
 758 571 l 1
 721 574 664 581 605 587 c 0
 548 595 490 604 450 610 c 1
 466 706 l 1
 504 697 562 689 619 682 c 0
558 512 m 0
 609 514 663 517 693 521 c 0
 706 522 727 527 735 530 c 1
 794 462 l 1
 778 451 759 435 747 425 c 0
 714 397 651 338 633 318 c 1
 643 316 652 314 663 308 c 0
 681 302 696 282 702 258 c 0
 709 237 716 210 722 191 c 0
 730 168 749 161 776 161 c 0
 825 161 879 169 915 176 c 1
 909 66 l 1
 880 60 800 55 759 55 c 0
 680 55 649 80 633 121 c 0
 626 143 619 172 614 189 c 0
 605 217 597 230 575 230 c 0
 561 230 544 212 527 194 c 0
 503 169 455 112 404 47 c 1
 304 118 l 1
 317 128 328 137 347 156 c 0
 367 176 416 224 467 275 c 0
 519 327 572 383 602 418 c 1
 566 415 486 409 445 405 c 0
 416 402 385 397 370 394 c 1
 360 510 l 1
 379 508 414 507 439 508 c 0
 459 509 507 510 558 512 c 0
EndSplineSet
Comment: "."
EndChar

StartChar: uni3048
Encoding: 12360 12360 116
Width: 1000
Flags: W
LayerCount: 2
Fore
SplineSet
518 764 m 0
 589 756 658 749 707 746 c 1
 692 633 l 1
 643 637 574 645 504 653 c 0
 433 662 362 672 305 681 c 1
 323 793 l 1
 376 783 448 772 518 764 c 0
339 249 m 0
 404 316 473 388 516 434 c 1
 450 433 337 422 284 417 c 0
 251 414 223 410 203 407 c 1
 192 539 l 1
 213 537 247 535 282 536 c 0
 326 536 539 546 618 556 c 0
 635 558 661 563 671 567 c 1
 705 527 742 473 736 468 c 0
 727 461 723 474 707 462 c 0
 697 454 688 446 679 438 c 0
 635 401 547 318 525 293 c 1
 534 294 551 290 561 287 c 0
 588 278 605 257 618 221 c 0
 626 195 636 159 645 134 c 0
 653 104 674 89 711 89 c 0
 783 89 848 97 895 106 c 1
 887 -20 l 1
 848 -27 752 -34 703 -34 c 0
 614 -34 566 -14 542 49 c 0
 533 77 522 122 515 146 c 0
 505 180 484 193 465 193 c 0
 445 193 426 177 403 154 c 0
 371 121 301 42 236 -43 c 1
 180 -3 l 1
 125 37 l 1
 141 51 164 72 190 97 c 0
 214 122 274 183 339 249 c 0
EndSplineSet
AlternateSubs2: "Historical Kana subtable" u1B001 u1B00F u1B010 u1B011 u1B012 u1B013
EndChar

StartChar: uni3048_uni3099.ccmp
Encoding: 1114121 -1 117
Width: 1000
Flags: W
LayerCount: 2
Fore
SplineSet
515 764 m 0
 584 756 652 749 701 746 c 1
 686 633 l 1
 636 637 570 645 500 653 c 0
 431 662 362 672 305 681 c 1
 323 793 l 1
 376 783 446 772 515 764 c 0
339 249 m 0
 404 316 473 388 516 434 c 1
 450 433 337 422 284 417 c 0
 251 414 223 410 203 407 c 1
 192 539 l 1
 213 537 247 535 282 536 c 0
 326 536 539 546 618 556 c 0
 635 558 661 563 671 567 c 1
 705 527 742 473 736 468 c 0
 727 461 723 474 707 462 c 0
 697 454 688 446 679 438 c 0
 635 401 547 318 525 293 c 1
 534 294 551 290 561 287 c 0
 588 278 605 257 618 221 c 0
 626 195 636 159 645 134 c 0
 653 104 674 89 711 89 c 0
 783 89 848 97 895 106 c 1
 887 -20 l 1
 848 -27 752 -34 703 -34 c 0
 614 -34 566 -14 542 49 c 0
 533 77 522 122 515 146 c 0
 505 180 484 193 465 193 c 0
 445 193 426 177 403 154 c 0
 371 121 301 42 236 -43 c 1
 180 -3 l 1
 125 37 l 1
 141 51 164 72 190 97 c 0
 214 122 274 183 339 249 c 0
816 735 m 0
 830 712 843 688 852 669 c 1
 780 636 l 1
 769 663 758 685 746 706 c 0
 734 727 722 747 707 769 c 1
 776 798 l 1
 788 782 802 759 816 735 c 0
921 780 m 0
 936 757 950 734 960 715 c 1
 889 680 l 1
 876 706 865 728 853 749 c 0
 840 770 827 790 812 810 c 1
 880 842 l 1
 892 826 907 803 921 780 c 0
EndSplineSet
Ligature2: "Dakuten and handakuten subtable" uni3048 uni3099
EndChar

StartChar: uni3049
Encoding: 12361 12361 118
Width: 1000
Flags: W
LayerCount: 2
Fore
SplineSet
732 421 m 0
 695 443 657 465 633 476 c 1
 683 566 l 1
 712 552 751 530 787 509 c 0
 822 489 856 468 877 453 c 1
 821 359 l 1
 804 375 768 398 732 421 c 0
292 75 m 0
 303 67 317 61 327 61 c 0
 342 61 351 70 351 93 c 2
 348 188 l 1
 326 175 307 162 294 147 c 0
 281 133 273 119 273 104 c 0
 273 94 281 83 292 75 c 0
749 294 m 0
 788 263 811 218 811 162 c 0
 811 68 758 -13 618 -41 c 0
 586 -47 551 -49 529 -51 c 1
 493 62 l 1
 526 62 557 62 584 67 c 0
 645 77 699 109 699 164 c 0
 699 218 658 247 589 247 c 0
 531 247 488 240 448 228 c 1
 450 147 l 1
 452 68 l 2
 452 -22 416 -54 362 -54 c 0
 289 -54 169 12 169 98 c 0
 169 174 251 246 346 290 c 1
 346 320 l 1
 346 398 l 1
 304 397 l 2
 261 397 232 399 192 403 c 1
 190 514 l 1
 233 508 276 506 304 506 c 2
 347 506 l 1
 347 554 l 2
 347 573 345 615 343 627 c 1
 461 627 l 1
 460 614 455 573 454 554 c 2
 452 515 l 1
 502 522 551 530 592 542 c 1
 593 434 l 1
 559 427 507 416 448 409 c 1
 447 325 l 1
 496 337 547 343 592 343 c 0
 656 343 710 326 749 294 c 0
EndSplineSet
Substitution2: "Vertical forms subtable" uni3049.vert
EndChar

StartChar: uni3049.vert
Encoding: 1114122 -1 119
Width: 1000
Flags: W
LayerCount: 2
Fore
SplineSet
812 502 m 0
 778 523 744 543 721 554 c 1
 769 641 l 1
 798 628 833 608 866 589 c 0
 899 570 930 551 949 536 c 1
 896 444 l 1
 878 460 846 481 812 502 c 0
407 189 m 0
 417 181 429 175 439 175 c 0
 453 175 461 183 461 205 c 2
 459 292 l 1
 439 280 421 268 409 254 c 0
 398 242 390 229 390 217 c 0
 390 207 397 197 407 189 c 0
835 394 m 0
 872 364 894 321 894 271 c 0
 894 179 850 105 715 79 c 0
 683 72 650 70 630 68 c 1
 593 176 l 1
 625 176 655 177 680 181 c 0
 740 192 784 217 784 272 c 0
 784 318 743 349 683 349 c 0
 632 349 592 342 556 331 c 1
 558 256 l 1
 560 181 l 2
 560 93 523 63 469 63 c 0
 398 63 292 131 292 210 c 0
 292 280 365 350 457 392 c 1
 457 426 l 1
 457 489 l 1
 418 488 l 2
 377 488 357 489 319 493 c 1
 317 602 l 1
 358 596 392 594 418 594 c 2
 457 595 l 1
 457 645 l 2
 457 661 455 704 453 715 c 1
 568 715 l 1
 566 703 562 661 561 644 c 2
 559 604 l 1
 602 610 646 618 683 629 c 1
 686 524 l 1
 654 517 608 508 556 500 c 1
 555 429 l 1
 555 424 l 1
 600 436 645 442 686 442 c 0
 747 442 799 424 835 394 c 0
EndSplineSet
Comment: "."
EndChar

StartChar: uni304A
Encoding: 12362 12362 120
Width: 1000
Flags: W
LayerCount: 2
Fore
SplineSet
774 531 m 0
 730 557 685 583 656 597 c 1
 708 690 l 1
 744 673 790 648 832 623 c 0
 874 598 915 573 939 554 c 1
 883 457 l 1
 860 477 818 504 774 531 c 0
279 232 m 0
 267 223 257 214 248 205 c 0
 231 188 222 170 222 152 c 0
 222 122 266 97 290 97 c 0
 307 97 320 104 320 137 c 2
 318 256 l 1
 304 249 290 240 279 232 c 0
788 376 m 0
 835 340 863 288 863 221 c 0
 863 108 805 23 655 -16 c 0
 612 -25 570 -28 532 -31 c 1
 489 93 l 1
 531 93 571 94 604 99 c 0
 680 114 741 152 741 222 c 0
 741 288 684 326 602 326 c 0
 544 326 483 316 426 299 c 1
 428 207 l 1
 430 116 l 2
 430 -3 388 -35 326 -35 c 0
 235 -35 106 46 106 147 c 0
 106 231 200 318 316 369 c 1
 315 437 l 1
 315 518 l 1
 265 516 l 2
 202 516 165 517 133 521 c 1
 132 636 l 1
 186 630 227 629 261 629 c 2
 316 631 l 1
 317 709 l 2
 317 729 313 776 310 794 c 1
 440 794 l 1
 437 776 433 735 431 710 c 2
 429 642 l 1
 491 650 553 662 602 676 c 1
 604 557 l 1
 551 545 486 535 425 528 c 1
 424 441 l 1
 424 406 l 1
 488 422 553 431 604 431 c 0
 677 431 741 412 788 376 c 0
EndSplineSet
AlternateSubs2: "Historical Kana subtable" u1B014 u1B015 u1B016
EndChar

StartChar: uni304A_uni3099.ccmp
Encoding: 1114123 -1 121
Width: 1000
Flags: W
LayerCount: 2
Fore
SplineSet
927 782 m 0
 941 760 955 737 964 718 c 1
 894 683 l 1
 882 709 869 730 857 750 c 0
 846 770 833 790 818 811 c 1
 886 842 l 1
 898 826 913 804 927 782 c 0
818 741 m 0
 831 718 844 694 853 674 c 1
 782 643 l 1
 770 669 759 691 747 712 c 0
 736 733 725 752 710 773 c 1
 779 803 l 1
 791 787 805 764 818 741 c 0
771 513 m 0
 728 539 683 564 654 578 c 1
 706 671 l 1
 742 653 787 628 829 603 c 0
 870 579 910 554 934 536 c 1
 879 439 l 1
 857 459 815 487 771 513 c 0
279 232 m 0
 267 223 257 214 248 205 c 0
 231 188 222 170 222 152 c 0
 222 122 266 97 290 97 c 0
 307 97 320 104 320 137 c 2
 318 256 l 1
 304 249 290 240 279 232 c 0
788 376 m 0
 835 340 863 288 863 221 c 0
 863 108 805 23 655 -16 c 0
 612 -25 570 -28 532 -31 c 1
 489 93 l 1
 531 93 571 94 604 99 c 0
 680 114 741 152 741 222 c 0
 741 288 684 326 602 326 c 0
 544 326 483 316 426 299 c 1
 428 207 l 1
 430 116 l 2
 430 -3 388 -35 326 -35 c 0
 235 -35 106 46 106 147 c 0
 106 231 200 318 316 369 c 1
 315 437 l 1
 315 518 l 1
 265 516 l 2
 202 516 165 517 133 521 c 1
 132 636 l 1
 186 630 227 629 261 629 c 2
 316 631 l 1
 317 709 l 2
 317 729 313 776 310 794 c 1
 440 794 l 1
 437 776 433 735 431 710 c 2
 429 642 l 1
 491 650 553 662 602 676 c 1
 604 557 l 1
 551 545 486 535 425 528 c 1
 424 441 l 1
 424 406 l 1
 488 422 553 431 604 431 c 0
 677 431 741 412 788 376 c 0
EndSplineSet
Ligature2: "Dakuten and handakuten subtable" uni304A uni3099
EndChar

StartChar: uni304B
Encoding: 12363 12363 122
Width: 1000
Flags: W
LayerCount: 2
Fore
SplineSet
882 507 m 0
 912 439 939 371 953 325 c 1
 834 268 l 1
 821 322 799 392 771 459 c 0
 743 527 710 591 676 633 c 1
 788 682 l 1
 817 641 851 575 882 507 c 0
326 225 m 0
 294 133 255 41 211 -30 c 1
 89 20 l 1
 180 146 245 339 279 471 c 1
 198 461 l 2
 172 457 122 450 94 445 c 1
 83 576 l 1
 116 573 148 575 183 576 c 0
 212 577 257 579 304 584 c 1
 318 656 325 726 324 787 c 1
 394 779 l 1
 464 772 l 1
 459 747 452 717 447 693 c 2
 428 594 l 1
 459 596 487 598 507 598 c 0
 606 598 677 553 677 414 c 0
 677 301 664 146 623 62 c 0
 592 -5 539 -26 469 -26 c 0
 432 -26 388 -20 356 -13 c 1
 336 114 l 1
 372 103 426 94 451 94 c 0
 482 94 507 103 522 135 c 0
 547 190 559 306 559 401 c 0
 559 478 527 488 468 488 c 0
 453 488 430 486 403 484 c 1
 385 411 359 318 326 225 c 0
EndSplineSet
AlternateSubs2: "Historical Kana subtable" u1B017 u1B018 u1B019 u1B01A u1B01B u1B01C u1B01D u1B01E u1B01F u1B020 u1B021 u1B022
EndChar

StartChar: uni304C
Encoding: 12364 12364 123
Width: 1000
Flags: W
LayerCount: 2
Fore
SplineSet
917 779 m 0
 930 755 943 732 951 715 c 1
 877 682 l 1
 868 702 854 726 841 749 c 0
 828 773 814 796 801 815 c 1
 876 845 l 1
 888 827 903 803 917 779 c 0
320 219 m 0
 287 126 248 34 205 -37 c 1
 83 13 l 1
 174 139 239 333 273 464 c 1
 192 455 l 2
 165 450 116 443 87 438 c 1
 76 569 l 1
 111 566 142 568 177 569 c 0
 206 570 250 573 298 578 c 1
 311 650 320 720 318 780 c 1
 387 772 l 1
 458 766 l 1
 452 741 445 710 441 686 c 2
 421 587 l 1
 453 589 480 591 500 591 c 0
 600 591 670 546 670 408 c 0
 670 294 657 139 617 55 c 0
 586 -12 534 -33 462 -33 c 0
 427 -33 382 -26 350 -20 c 1
 330 107 l 1
 366 97 420 87 445 87 c 0
 477 87 500 97 515 128 c 0
 540 183 554 299 554 394 c 0
 554 471 521 482 462 482 c 0
 447 482 424 480 397 478 c 1
 379 405 353 312 320 219 c 0
881 481 m 0
 909 420 934 358 947 315 c 1
 827 260 l 1
 815 314 792 382 764 448 c 0
 736 514 703 578 669 620 c 1
 754 657 l 1
 735 694 712 740 690 770 c 1
 764 802 l 1
 788 767 821 706 839 671 c 1
 793 650 l 1
 822 606 853 543 881 481 c 0
EndSplineSet
AlternateSubs2: "Historical Kana subtable" u1B017_uni3099.ccmp u1B018_uni3099.ccmp u1B019_uni3099.ccmp u1B01A_uni3099.ccmp u1B01B_uni3099.ccmp u1B01C_uni3099.ccmp u1B01D_uni3099.ccmp u1B01E_uni3099.ccmp u1B01F_uni3099.ccmp u1B020_uni3099.ccmp u1B021_uni3099.ccmp u1B022_uni3099.ccmp
EndChar

StartChar: uni304B_uni309A.ccmp
Encoding: 1114124 -1 124
Width: 1000
Flags: W
LayerCount: 2
Fore
SplineSet
884 763 m 0
 874 773 861 779 846 779 c 0
 831 779 818 773 807 763 c 0
 798 753 791 739 791 723 c 0
 791 694 816 669 846 669 c 0
 875 669 900 694 900 723 c 0
 900 739 894 753 884 763 c 0
320 220 m 0
 288 128 249 36 206 -35 c 1
 84 15 l 1
 175 141 239 334 273 464 c 1
 192 455 l 2
 165 450 116 443 87 438 c 1
 76 569 l 1
 111 566 142 568 177 569 c 0
 206 570 250 573 298 578 c 1
 311 650 320 720 318 780 c 1
 387 772 l 1
 458 766 l 1
 452 741 445 710 441 686 c 2
 421 587 l 1
 453 589 480 591 500 591 c 0
 600 591 670 546 670 408 c 0
 670 294 657 141 617 58 c 0
 586 -9 534 -30 462 -30 c 0
 427 -30 382 -24 350 -17 c 1
 330 110 l 1
 366 98 420 90 445 90 c 0
 477 90 500 99 515 131 c 0
 540 185 554 299 554 394 c 0
 554 471 521 482 462 482 c 0
 447 482 424 480 397 478 c 1
 379 406 353 313 320 220 c 0
892 458 m 0
 916 404 936 353 947 315 c 1
 827 260 l 1
 815 314 792 382 764 448 c 0
 736 514 703 578 669 620 c 1
 755 657 l 1
 741 675 733 698 733 723 c 0
 733 787 784 839 846 839 c 0
 907 839 959 787 959 723 c 0
 959 661 907 609 846 609 c 0
 836 609 825 611 815 614 c 1
 841 568 868 512 892 458 c 0
EndSplineSet
Ligature2: "Dakuten and handakuten subtable" uni304B uni309A
EndChar

StartChar: uni304D
Encoding: 12365 12365 125
Width: 1000
Flags: W
LayerCount: 2
Fore
SplineSet
367 489 m 0
 430 488 488 490 539 493 c 1
 527 527 l 2
 521 548 513 568 508 585 c 1
 419 580 309 582 192 593 c 1
 185 702 l 1
 296 689 394 685 478 688 c 1
 466 729 l 2
 461 747 455 766 448 784 c 1
 573 798 l 1
 577 764 585 729 591 697 c 1
 655 704 717 719 776 738 c 1
 791 629 l 1
 740 614 679 602 618 594 c 1
 633 548 l 1
 649 503 l 1
 724 514 783 530 828 543 c 1
 847 431 l 1
 804 419 753 409 696 401 c 1
 712 370 727 340 744 314 c 0
 758 295 770 281 787 265 c 1
 730 177 l 1
 678 189 568 227 449 226 c 0
 393 225 305 209 305 156 c 0
 305 92 371 72 496 72 c 0
 586 72 665 79 732 93 c 1
 726 -28 l 1
 660 -39 574 -46 497 -46 c 0
 309 -46 194 11 191 147 c 0
 187 303 324 318 423 318 c 0
 523 318 586 304 636 288 c 1
 617 320 599 355 583 388 c 1
 525 385 459 383 388 383 c 0
 319 383 245 385 174 389 c 1
 168 501 l 1
 238 494 305 490 367 489 c 0
EndSplineSet
AlternateSubs2: "Historical Kana subtable" u1B023 u1B024 u1B025 u1B026 u1B027 u1B028 u1B029 u1B02A u1B03B
EndChar

StartChar: uni304E
Encoding: 12366 12366 126
Width: 1000
Flags: W
LayerCount: 2
Fore
SplineSet
795 734 m 0
 809 711 822 687 831 668 c 1
 760 635 l 1
 749 662 738 684 727 705 c 0
 714 727 702 747 687 769 c 1
 756 798 l 1
 768 781 782 758 795 734 c 0
901 779 m 0
 915 756 929 733 939 714 c 1
 868 679 l 1
 856 705 844 727 832 748 c 0
 820 770 807 789 791 810 c 1
 859 842 l 1
 872 825 886 802 901 779 c 0
367 489 m 0
 430 488 488 490 539 493 c 1
 527 527 l 2
 521 548 513 568 508 585 c 1
 419 580 309 582 192 593 c 1
 185 702 l 1
 296 689 394 685 478 688 c 1
 466 729 l 2
 461 747 455 766 448 784 c 1
 573 798 l 1
 577 764 585 729 591 697 c 1
 629 701 666 708 702 717 c 1
 723 612 l 1
 689 604 652 598 618 594 c 1
 633 548 l 1
 649 503 l 1
 724 514 783 530 828 543 c 1
 847 431 l 1
 804 419 753 409 696 401 c 1
 712 370 727 340 744 314 c 0
 758 295 770 281 787 265 c 1
 730 177 l 1
 678 189 568 227 449 226 c 0
 393 225 305 209 305 156 c 0
 305 92 371 72 496 72 c 0
 586 72 665 79 732 93 c 1
 726 -28 l 1
 660 -39 574 -46 497 -46 c 0
 309 -46 194 11 191 147 c 0
 187 303 324 318 423 318 c 0
 523 318 586 304 636 288 c 1
 617 320 599 355 583 388 c 1
 525 385 459 383 388 383 c 0
 319 383 245 385 174 389 c 1
 168 501 l 1
 238 494 305 490 367 489 c 0
EndSplineSet
AlternateSubs2: "Historical Kana subtable" u1B023_uni3099.ccmp u1B024_uni3099.ccmp u1B025_uni3099.ccmp u1B026_uni3099.ccmp u1B027_uni3099.ccmp u1B028_uni3099.ccmp u1B029_uni3099.ccmp u1B02A_uni3099.ccmp u1B03B_uni3099.ccmp
EndChar

StartChar: uni304D_uni309A.ccmp
Encoding: 1114125 -1 127
Width: 1000
Flags: W
LayerCount: 2
Fore
SplineSet
806 763 m 0
 796 753 790 739 790 723 c 0
 790 694 815 669 844 669 c 0
 874 669 899 694 899 723 c 0
 899 739 893 753 883 763 c 0
 873 773 859 779 844 779 c 0
 830 779 816 773 806 763 c 0
765 805 m 0
 785 826 813 839 844 839 c 0
 875 839 903 826 924 805 c 0
 945 784 957 755 957 723 c 0
 957 661 906 609 844 609 c 0
 782 609 732 661 732 723 c 0
 732 755 745 784 765 805 c 0
588 74 m 0
 627 78 664 83 697 90 c 1
 691 -32 l 1
 625 -43 539 -50 462 -50 c 0
 368 -50 292 -36 240 -4 c 0
 186 27 157 75 155 144 c 0
 154 205 175 253 196 298 c 1
 254 286 322 260 316 250 c 0
 308 237 299 250 284 225 c 0
 277 208 272 190 272 169 c 0
 272 98 336 69 461 69 c 0
 506 69 548 71 588 74 c 0
332 486 m 0
 394 485 452 487 504 490 c 1
 492 524 l 1
 473 580 l 1
 384 576 274 578 156 589 c 1
 149 699 l 1
 261 686 357 682 443 685 c 1
 434 716 424 747 413 781 c 1
 539 794 l 1
 543 760 549 726 556 694 c 1
 616 701 665 713 701 724 c 1
 716 615 l 1
 680 605 637 597 584 589 c 1
 598 544 l 1
 614 501 l 1
 691 510 747 527 793 540 c 1
 812 426 l 1
 769 414 717 405 662 396 c 1
 677 366 694 337 710 312 c 0
 723 292 735 278 752 262 c 1
 696 173 l 1
 643 185 540 196 473 204 c 1
 482 295 l 1
 521 291 572 287 600 285 c 1
 580 318 563 352 548 384 c 1
 491 380 424 378 353 378 c 0
 284 378 210 381 139 385 c 1
 132 498 l 1
 203 491 269 487 332 486 c 0
EndSplineSet
Ligature2: "Dakuten and handakuten subtable" uni304D uni309A
EndChar

StartChar: uni304F
Encoding: 12367 12367 128
Width: 1000
Flags: W
LayerCount: 2
Fore
SplineSet
665 755 m 1
 720 706 l 1
 691 683 660 658 638 640 c 0
 577 590 453 492 390 437 c 0
 340 393 341 383 392 338 c 0
 462 277 641 133 737 38 c 1
 681 -14 l 1
 627 -65 l 1
 601 -34 573 -4 545 25 c 0
 488 85 350 205 264 280 c 0
 170 362 178 412 272 493 c 0
 346 554 475 661 538 723 c 0
 565 751 595 782 610 805 c 1
 665 755 l 1
EndSplineSet
AlternateSubs2: "Historical Kana subtable" u1B02B u1B02C u1B02D u1B02E u1B02F u1B030 u1B031
EndChar

StartChar: uni3050
Encoding: 12368 12368 129
Width: 1000
Flags: W
LayerCount: 2
Fore
SplineSet
688 497 m 0
 702 471 716 444 725 427 c 1
 648 393 l 1
 638 413 625 439 611 466 c 0
 598 493 584 519 571 538 c 1
 646 569 l 1
 658 551 673 524 688 497 c 0
802 544 m 0
 816 517 830 491 839 473 c 1
 763 440 l 1
 753 460 739 486 725 512 c 0
 711 538 696 564 682 582 c 1
 759 615 l 1
 772 597 787 570 802 544 c 0
650 755 m 1
 705 706 l 1
 676 683 645 658 622 640 c 0
 562 590 437 492 375 437 c 0
 324 393 325 383 377 338 c 0
 447 277 625 133 721 38 c 1
 666 -14 l 1
 613 -65 l 1
 586 -34 557 -4 530 25 c 0
 473 85 336 205 249 280 c 0
 156 362 163 412 257 493 c 0
 331 554 460 661 524 723 c 0
 550 751 581 782 595 805 c 1
 650 755 l 1
EndSplineSet
AlternateSubs2: "Historical Kana subtable" u1B02B_uni3099.ccmp u1B02C_uni3099.ccmp u1B02D_uni3099.ccmp u1B02E_uni3099.ccmp u1B02F_uni3099.ccmp u1B030_uni3099.ccmp u1B031_uni3099.ccmp
EndChar

StartChar: uni304F_uni309A.ccmp
Encoding: 1114126 -1 130
Width: 1000
Flags: W
LayerCount: 2
Fore
SplineSet
765 551 m 0
 754 562 740 569 723 569 c 0
 707 569 692 562 680 551 c 0
 669 540 663 525 663 507 c 0
 663 474 690 446 723 446 c 0
 756 446 782 474 782 507 c 0
 782 524 776 540 765 551 c 0
809 596 m 0
 831 573 845 542 845 507 c 0
 845 438 790 383 723 383 c 0
 689 383 658 397 636 419 c 0
 614 442 601 473 601 507 c 0
 601 577 654 632 723 632 c 0
 757 632 787 618 809 596 c 0
623 753 m 1
 678 703 l 1
 649 681 617 656 595 638 c 0
 534 588 410 490 348 434 c 0
 297 391 298 381 350 336 c 0
 419 274 597 131 694 36 c 1
 639 -16 l 1
 585 -67 l 1
 557 -37 530 -7 503 22 c 0
 445 82 307 203 221 278 c 0
 128 359 135 410 229 490 c 0
 304 553 431 659 495 722 c 0
 522 749 552 780 568 803 c 1
 623 753 l 1
EndSplineSet
Ligature2: "Dakuten and handakuten subtable" uni304F uni309A
EndChar

StartChar: uni3051
Encoding: 12369 12369 131
Width: 1000
Flags: W
LayerCount: 2
Fore
SplineSet
238 474 m 0
 230 396 228 316 241 256 c 1
 253 285 270 332 286 367 c 1
 315 348 356 310 350 290 c 0
 342 264 329 279 313 228 c 0
 299 176 287 128 280 95 c 0
 276 80 274 59 274 48 c 0
 274 38 275 22 276 8 c 1
 172 -2 l 1
 151 55 118 190 118 309 c 0
 118 466 137 614 148 692 c 0
 153 719 154 751 155 775 c 1
 225 768 l 1
 294 761 l 1
 286 738 276 703 272 683 c 0
 260 630 246 553 238 474 c 0
726 147 m 0
 698 68 647 3 553 -58 c 1
 445 29 l 1
 480 46 527 76 554 106 c 0
 626 183 641 268 641 431 c 2
 641 465 l 1
 536 463 l 2
 495 463 437 466 391 468 c 1
 391 590 l 1
 437 583 483 579 533 579 c 0
 567 579 603 580 639 581 c 1
 638 635 637 685 635 711 c 0
 633 735 629 762 625 777 c 1
 693 777 l 1
 761 777 l 1
 759 756 758 733 757 712 c 2
 757 589 l 1
 809 593 859 599 898 606 c 1
 897 482 l 1
 859 477 810 473 758 470 c 1
 758 430 l 2
 758 317 754 225 726 147 c 0
EndSplineSet
AlternateSubs2: "Historical Kana subtable" u1B032 u1B033 u1B034 u1B035 u1B036 u1B037 u1B022
EndChar

StartChar: uni3052
Encoding: 12370 12370 132
Width: 1000
Flags: W
LayerCount: 2
Fore
SplineSet
222 454 m 0
 214 376 212 296 225 236 c 1
 237 266 255 313 270 347 c 1
 299 328 341 290 335 270 c 0
 327 244 314 259 298 208 c 0
 283 156 271 108 264 75 c 0
 261 60 258 39 258 28 c 0
 259 18 260 2 261 -12 c 1
 156 -22 l 1
 135 35 102 170 102 289 c 0
 102 446 121 594 133 673 c 0
 137 698 138 731 139 755 c 1
 209 748 l 1
 278 742 l 1
 271 718 260 683 257 663 c 0
 245 610 231 533 222 454 c 0
837 724 m 0
 846 700 854 676 859 657 c 1
 794 635 l 1
 788 656 780 680 772 704 c 0
 763 728 755 752 745 771 c 1
 809 792 l 1
 818 773 828 748 837 724 c 0
935 754 m 0
 944 730 953 706 958 688 c 1
 894 667 l 1
 887 688 879 712 869 735 c 0
 861 759 852 782 842 801 c 1
 906 822 l 1
 915 803 925 779 935 754 c 0
700 127 m 0
 673 48 622 -17 528 -78 c 1
 419 9 l 1
 456 26 503 56 529 86 c 0
 601 163 617 248 617 410 c 2
 617 444 l 1
 521 443 l 2
 479 443 422 446 375 449 c 1
 375 570 l 1
 421 563 467 560 518 560 c 2
 615 562 l 1
 614 615 612 666 610 692 c 0
 608 715 603 743 600 757 c 1
 667 757 l 1
 735 757 l 1
 733 737 732 714 731 692 c 2
 731 568 l 1
 788 573 840 578 882 586 c 1
 881 461 l 1
 840 457 789 453 732 449 c 1
 732 410 l 2
 732 297 728 205 700 127 c 0
EndSplineSet
AlternateSubs2: "Historical Kana subtable" u1B032_uni3099.ccmp u1B033_uni3099.ccmp u1B034_uni3099.ccmp u1B035_uni3099.ccmp u1B036_uni3099.ccmp u1B037_uni3099.ccmp u1B022_uni3099.ccmp
EndChar

StartChar: uni3051_uni309A.ccmp
Encoding: 1114127 -1 133
Width: 1000
Flags: W
LayerCount: 2
Fore
SplineSet
880 699 m 0
 889 709 895 722 895 736 c 0
 895 751 889 764 880 773 c 0
 870 783 857 789 843 789 c 0
 815 789 792 766 792 736 c 0
 792 707 815 684 843 684 c 0
 857 684 870 690 880 699 c 0
766 815 m 0
 786 835 813 847 843 847 c 0
 873 847 900 835 920 815 c 0
 940 795 952 768 952 736 c 0
 952 674 903 626 843 626 c 0
 783 626 734 674 734 736 c 0
 734 767 746 795 766 815 c 0
222 454 m 0
 214 376 212 296 225 236 c 1
 237 266 255 313 270 347 c 1
 299 328 341 290 335 270 c 0
 327 244 314 259 298 208 c 0
 283 156 271 108 264 75 c 0
 261 60 258 39 258 28 c 0
 259 18 260 2 261 -12 c 1
 156 -22 l 1
 135 35 102 170 102 289 c 0
 102 446 121 594 133 673 c 0
 137 698 138 731 139 755 c 1
 209 748 l 1
 278 742 l 1
 271 718 260 683 257 663 c 0
 245 610 231 533 222 454 c 0
700 127 m 0
 673 48 622 -17 528 -78 c 1
 419 9 l 1
 456 26 503 56 529 86 c 0
 601 163 617 248 617 410 c 2
 617 444 l 1
 521 443 l 2
 479 443 422 446 375 449 c 1
 375 570 l 1
 421 563 467 560 518 560 c 2
 615 562 l 1
 614 615 612 666 610 692 c 0
 608 715 603 743 600 757 c 1
 667 757 l 1
 735 757 l 1
 733 737 732 714 731 692 c 2
 731 568 l 1
 788 573 840 578 882 586 c 1
 881 461 l 1
 840 457 789 453 732 449 c 1
 732 410 l 2
 732 297 728 205 700 127 c 0
EndSplineSet
Ligature2: "Dakuten and handakuten subtable" uni3051 uni309A
EndChar

StartChar: uni3053
Encoding: 12371 12371 134
Width: 1000
Flags: W
LayerCount: 2
Fore
SplineSet
636 578 m 0
 588 576 537 575 492 575 c 0
 393 575 311 578 235 585 c 1
 235 712 l 1
 304 704 392 700 491 700 c 0
 538 700 587 702 634 704 c 0
 682 707 727 710 763 714 c 1
 763 586 l 1
 730 583 685 580 636 578 c 0
253 26 m 0
 199 61 172 113 172 178 c 0
 172 234 183 281 191 316 c 1
 252 310 324 295 322 285 c 0
 319 272 308 280 302 256 c 0
 300 240 298 225 298 208 c 0
 298 146 355 102 491 102 c 0
 618 102 738 117 821 141 c 1
 821 73 l 1
 821 5 l 1
 740 -15 627 -27 495 -27 c 0
 388 -27 307 -9 253 26 c 0
EndSplineSet
AlternateSubs2: "Historical Kana subtable" u1B038 u1B039 u1B03A u1B03B u1B098
EndChar

StartChar: uni3054
Encoding: 12372 12372 135
Width: 1000
Flags: W
LayerCount: 2
Fore
SplineSet
652 103 m 0
 708 109 759 119 800 130 c 1
 801 -4 l 1
 719 -24 606 -38 475 -38 c 0
 367 -38 287 -20 232 16 c 0
 179 50 151 102 151 169 c 0
 151 223 163 270 169 307 c 1
 231 301 303 285 301 275 c 0
 298 262 287 270 282 246 c 0
 279 230 277 214 277 198 c 0
 277 136 335 93 470 93 c 0
 534 93 595 97 652 103 c 0
920 778 m 0
 934 754 947 731 955 714 c 1
 880 681 l 1
 870 701 857 725 844 749 c 0
 831 772 817 795 804 814 c 1
 879 844 l 1
 891 827 906 802 920 778 c 0
608 694 m 0
 654 696 697 699 733 702 c 1
 720 727 706 751 693 770 c 1
 767 801 l 1
 790 767 824 705 842 670 c 1
 766 636 l 1
 743 683 l 1
 743 576 l 1
 710 574 665 571 616 568 c 0
 567 566 516 564 471 564 c 0
 372 564 290 569 214 575 c 1
 214 702 l 1
 284 694 371 690 470 690 c 0
 515 690 562 692 608 694 c 0
EndSplineSet
AlternateSubs2: "Historical Kana subtable" u1B038_uni3099.ccmp u1B039_uni3099.ccmp u1B03A_uni3099.ccmp u1B03B_uni3099.ccmp u1B098_uni3099.ccmp
EndChar

StartChar: uni3053_uni309A.ccmp
Encoding: 1114128 -1 136
Width: 1000
Flags: W
LayerCount: 2
Fore
SplineSet
872 758 m 0
 862 769 849 775 833 775 c 0
 818 775 805 769 794 759 c 0
 785 748 778 734 778 719 c 0
 778 688 803 663 833 663 c 0
 864 663 888 688 888 719 c 0
 888 734 882 748 872 758 c 0
652 103 m 0
 708 109 759 119 800 130 c 1
 801 -4 l 1
 719 -24 606 -38 475 -38 c 0
 367 -38 287 -20 232 16 c 0
 179 50 151 102 151 169 c 0
 151 223 163 270 169 307 c 1
 231 301 303 285 301 275 c 0
 298 262 287 270 282 246 c 0
 279 230 277 214 277 198 c 0
 277 136 335 93 470 93 c 0
 534 93 595 97 652 103 c 0
334 567 m 0
 292 569 252 572 214 575 c 1
 214 702 l 1
 284 694 371 690 470 690 c 0
 554 690 649 696 721 701 c 1
 719 719 l 1
 719 783 771 836 833 836 c 0
 896 836 947 783 947 719 c 0
 947 655 896 602 833 602 c 0
 796 602 763 621 743 649 c 1
 743 576 l 1
 710 574 665 571 616 568 c 0
 567 566 516 564 471 564 c 0
 422 564 376 565 334 567 c 0
EndSplineSet
Ligature2: "Dakuten and handakuten subtable" uni3053 uni309A
EndChar

StartChar: uni3055
Encoding: 12373 12373 137
Width: 1000
Flags: W
LayerCount: 2
Fore
SplineSet
270 14 m 0
 216 51 186 106 186 177 c 0
 186 340 306 384 429 384 c 0
 535 384 628 356 657 349 c 1
 628 395 594 460 568 525 c 1
 513 520 452 518 385 518 c 0
 319 518 246 522 166 528 c 1
 164 650 l 1
 304 633 428 629 526 636 c 1
 507 696 l 2
 500 718 489 751 477 783 c 1
 603 798 l 1
 612 750 626 696 642 649 c 1
 708 658 775 673 836 692 c 1
 851 573 l 1
 802 558 740 547 682 538 c 1
 709 476 742 416 767 380 c 0
 783 356 800 336 817 315 c 1
 759 231 l 1
 707 242 517 284 440 284 c 0
 355 284 306 256 306 197 c 0
 306 114 377 78 506 77 c 0
 608 77 691 87 758 100 c 1
 751 -20 l 1
 696 -29 613 -42 498 -42 c 0
 402 -42 324 -23 270 14 c 0
EndSplineSet
AlternateSubs2: "Historical Kana subtable" u1B03C u1B03D u1B03E u1B03F u1B040 u1B041 u1B042 u1B043
EndChar

StartChar: uni3056
Encoding: 12374 12374 138
Width: 1000
Flags: W
LayerCount: 2
Fore
SplineSet
721 732 m 0
 712 748 701 763 690 779 c 1
 764 810 l 1
 776 793 788 776 798 761 c 0
 809 745 820 729 828 711 c 1
 749 681 l 1
 741 699 731 716 721 732 c 0
917 785 m 0
 931 761 944 737 952 720 c 1
 878 687 l 1
 868 707 855 731 842 755 c 0
 829 779 815 802 802 820 c 1
 876 851 l 1
 888 833 903 809 917 785 c 0
256 6 m 0
 202 43 172 98 172 169 c 0
 172 332 291 376 414 376 c 0
 520 376 613 347 642 340 c 1
 614 386 580 452 554 516 c 1
 498 511 438 509 371 509 c 0
 304 510 232 513 152 520 c 1
 150 641 l 1
 290 625 413 621 511 627 c 1
 492 687 l 2
 486 709 475 744 462 775 c 1
 588 790 l 1
 598 742 612 687 628 640 c 1
 693 650 761 664 821 683 c 1
 836 564 l 1
 787 550 726 538 667 530 c 1
 694 467 727 408 752 371 c 0
 768 347 786 327 803 307 c 1
 745 222 l 1
 693 234 503 275 426 275 c 0
 340 275 291 247 291 189 c 0
 291 105 362 70 492 69 c 0
 594 69 677 79 743 92 c 1
 736 -28 l 1
 682 -38 598 -50 484 -50 c 0
 388 -50 310 -31 256 6 c 0
EndSplineSet
AlternateSubs2: "Historical Kana subtable" u1B03C_uni3099.ccmp u1B03D_uni3099.ccmp u1B03E_uni3099.ccmp u1B03F_uni3099.ccmp u1B040_uni3099.ccmp u1B041_uni3099.ccmp u1B042_uni3099.ccmp u1B043_uni3099.ccmp
EndChar

StartChar: uni3057
Encoding: 12375 12375 139
Width: 1000
Flags: W
LayerCount: 2
Fore
SplineSet
235 433 m 0
 238 523 240 607 240 648 c 0
 240 693 236 739 227 777 c 1
 303 776 l 1
 379 775 l 1
 373 735 368 686 367 648 c 0
 363 544 355 329 355 210 c 0
 355 113 412 81 485 81 c 0
 640 81 739 172 806 277 c 1
 892 171 l 1
 832 79 698 -49 484 -49 c 0
 330 -49 230 20 230 184 c 0
 230 249 233 344 235 433 c 0
EndSplineSet
Substitution2: "Stylistic Kana variants subtable" uni3057.salt
AlternateSubs2: "Historical Kana subtable" u1B044 u1B045 u1B046 u1B047 u1B048 u1B049
EndChar

StartChar: uni3057.salt
Encoding: 1114129 -1 140
Width: 1000
Flags: W
LayerCount: 2
Fore
SplineSet
484 -49 m 0
 403 -49 341 -31 299 6 c 0
 253 46 230 105 230 184 c 0
 231 211 231 240 231 271 c 0
 231 290 230 310 230 330 c 128
 230 350 230 370 229 392 c 0
 229 442 225 485 216 521 c 1
 292 520 l 1
 368 519 l 1
 363 485 360 444 358 396 c 0
 353 274 351 192 351 151 c 0
 352 104 396 81 485 81 c 0
 616 81 723 146 806 277 c 1
 892 171 l 1
 854 113 805 65 746 27 c 0
 667 -24 580 -49 484 -49 c 0
332 611 m 4
 290 641 248 668 205 691 c 1
 274 797 l 1
 307 780 351 754 405 717 c 0
 420 707 451 684 500 648 c 1
 428 541 l 1
 389 570 357 594 332 611 c 4
EndSplineSet
EndChar

StartChar: uni3058
Encoding: 12376 12376 141
Width: 1000
Flags: W
LayerCount: 2
Fore
SplineSet
653 617 m 0
 670 589 686 560 696 538 c 1
 612 501 l 1
 598 531 585 558 571 583 c 0
 557 609 542 633 525 657 c 1
 607 693 l 1
 620 673 637 645 653 617 c 0
781 672 m 0
 798 644 814 617 824 595 c 1
 743 554 l 1
 727 585 713 611 699 635 c 0
 685 660 670 683 652 707 c 1
 733 746 l 1
 747 726 764 699 781 672 c 0
221 427 m 0
 223 517 225 601 225 642 c 0
 225 688 221 734 213 771 c 1
 289 770 l 1
 365 770 l 1
 359 729 354 680 352 642 c 0
 348 538 340 324 340 204 c 0
 340 107 398 75 471 75 c 0
 626 75 724 168 792 272 c 1
 878 166 l 1
 817 74 683 -54 469 -54 c 0
 315 -54 216 15 216 178 c 0
 216 243 218 338 221 427 c 0
EndSplineSet
Substitution2: "Stylistic Kana variants subtable" uni3058.salt
AlternateSubs2: "Historical Kana subtable" u1B044_uni3099.ccmp u1B045_uni3099.ccmp u1B046_uni3099.ccmp u1B047_uni3099.ccmp u1B048_uni3099.ccmp u1B049_uni3099.ccmp
EndChar

StartChar: uni3058.salt
Encoding: 1114130 -1 142
Width: 1000
Flags: W
LayerCount: 2
Fore
SplineSet
612 501 m 1
 595 536 582 564 571 583 c 0
 558 608 542 633 525 657 c 1
 607 693 l 1
 621 671 636 646 653 617 c 0
 672 586 686 560 696 538 c 1
 612 501 l 1
743 554 m 1
 726 586 712 613 699 635 c 0
 685 660 669 684 652 707 c 1
 733 746 l 1
 742 733 758 708 781 672 c 0
 802 637 817 612 824 595 c 1
 743 554 l 1
484 -49 m 0
 403 -49 341 -31 299 6 c 0
 253 46 230 105 230 184 c 0
 231 211 231 240 231 271 c 0
 231 290 230 310 230 330 c 128
 230 350 230 370 229 392 c 0
 229 442 225 485 216 521 c 1
 292 520 l 1
 368 519 l 1
 363 485 360 444 358 396 c 0
 353 274 351 192 351 151 c 0
 352 104 396 81 485 81 c 0
 616 81 723 146 806 277 c 1
 892 171 l 1
 854 113 805 65 746 27 c 0
 667 -24 580 -49 484 -49 c 0
332 611 m 0
 290 641 248 668 205 691 c 1
 274 797 l 1
 307 780 351 754 405 717 c 0
 420 707 451 684 500 648 c 1
 428 541 l 1
 389 570 357 594 332 611 c 0
EndSplineSet
EndChar

StartChar: uni3059
Encoding: 12377 12377 143
Width: 1000
Flags: W
LayerCount: 2
Fore
SplineSet
431 386 m 0
 417 373 408 354 408 328 c 0
 408 284 443 256 480 256 c 0
 500 256 519 264 531 282 c 0
 543 300 549 329 542 370 c 1
 528 393 507 405 480 405 c 0
 462 405 444 399 431 386 c 0
636 495 m 1
 637 423 l 1
 660 387 671 342 671 292 c 0
 671 168 600 8 370 -57 c 1
 270 45 l 1
 365 65 447 97 499 154 c 1
 486 151 472 149 457 149 c 0
 384 149 295 209 295 326 c 0
 295 434 381 506 483 506 c 0
 496 506 508 505 521 503 c 1
 520 567 l 1
 378 565 231 559 116 553 c 1
 113 669 l 1
 220 669 391 673 519 674 c 1
 517 704 l 2
 514 744 510 776 508 788 c 1
 575 788 l 1
 644 788 l 1
 642 772 638 721 637 705 c 2
 636 675 l 1
 731 675 860 677 909 676 c 1
 908 563 l 1
 852 566 764 568 636 568 c 1
 636 495 l 1
EndSplineSet
AlternateSubs2: "Historical Kana subtable" u1B04A u1B04B u1B04C u1B04D u1B04E u1B04F u1B050 u1B051
EndChar

StartChar: uni305A
Encoding: 12378 12378 144
Width: 1000
Flags: W
LayerCount: 2
Fore
SplineSet
899 774 m 0
 911 755 922 736 931 718 c 1
 852 684 l 1
 842 703 832 723 821 743 c 0
 810 762 798 780 786 797 c 1
 864 830 l 1
 876 813 888 793 899 774 c 0
403 371 m 0
 390 359 381 340 381 314 c 0
 381 270 415 242 453 242 c 0
 473 242 492 249 503 267 c 0
 515 286 521 314 514 356 c 1
 501 379 478 390 452 390 c 0
 435 390 417 384 403 371 c 0
292 -20 m 1
 242 31 l 1
 338 52 421 83 473 141 c 1
 460 138 445 136 430 136 c 0
 357 136 267 195 267 312 c 0
 267 420 353 492 456 492 c 0
 469 492 481 491 493 489 c 1
 492 554 l 1
 351 552 204 545 88 538 c 1
 85 654 l 1
 193 655 364 659 491 661 c 1
 490 691 l 2
 487 729 483 762 481 774 c 1
 549 774 l 1
 617 774 l 1
 614 759 611 707 610 692 c 2
 609 662 l 1
 722 662 l 1
 703 698 683 736 661 770 c 1
 738 803 l 1
 761 769 787 723 804 690 c 1
 739 662 l 1
 882 663 l 1
 881 549 l 1
 824 552 735 554 608 554 c 1
 609 412 l 1
 633 376 645 330 645 279 c 0
 645 152 572 -5 342 -71 c 1
 292 -20 l 1
EndSplineSet
AlternateSubs2: "Historical Kana subtable" u1B04A_uni3099.ccmp u1B04B_uni3099.ccmp u1B04C_uni3099.ccmp u1B04D_uni3099.ccmp u1B04E_uni3099.ccmp u1B04F_uni3099.ccmp u1B050_uni3099.ccmp u1B051_uni3099.ccmp
EndChar

StartChar: uni305B
Encoding: 12379 12379 145
Width: 1000
Flags: W
LayerCount: 2
Fore
SplineSet
501 559 m 1
 630 571 l 1
 630 679 l 2
 630 703 626 748 623 768 c 1
 749 768 l 1
 747 752 744 710 743 684 c 2
 742 580 l 1
 812 585 l 2
 838 587 875 589 902 592 c 1
 902 474 l 1
 886 475 837 474 812 473 c 2
 740 469 l 1
 737 396 733 317 726 277 c 0
 715 226 692 214 644 214 c 0
 610 214 535 223 502 228 c 1
 505 335 l 1
 534 328 572 322 591 322 c 0
 610 322 618 325 620 344 c 0
 624 370 627 414 628 460 c 1
 544 454 452 444 372 436 c 1
 371 348 370 260 372 218 c 0
 374 124 383 103 524 103 c 0
 616 103 734 115 805 127 c 1
 800 -3 l 1
 737 -11 621 -19 532 -19 c 0
 289 -19 259 33 255 199 c 2
 254 423 l 1
 191 416 l 2
 161 412 102 403 78 399 c 1
 65 522 l 1
 92 522 135 524 183 529 c 2
 255 535 l 1
 255 632 l 2
 255 672 252 704 247 739 c 1
 313 739 l 1
 380 739 l 1
 375 706 374 679 374 639 c 2
 373 547 l 1
 501 559 l 1
EndSplineSet
AlternateSubs2: "Historical Kana subtable" u1B052 u1B053 u1B054 u1B055 u1B056
EndChar

StartChar: uni305C
Encoding: 12380 12380 146
Width: 1000
Flags: W
LayerCount: 2
Fore
SplineSet
831 682 m 0
 840 659 848 636 853 617 c 1
 789 595 l 1
 782 616 774 639 767 662 c 0
 759 685 750 708 741 727 c 1
 805 748 l 1
 813 729 823 706 831 682 c 0
929 716 m 0
 938 692 947 669 952 650 c 1
 888 629 l 1
 882 650 873 674 865 697 c 0
 856 720 847 742 837 761 c 1
 901 781 l 1
 910 763 920 739 929 716 c 0
483 542 m 1
 612 554 l 1
 612 663 l 2
 612 688 608 733 605 751 c 1
 731 751 l 1
 729 737 727 694 726 669 c 2
 723 564 l 1
 794 570 l 2
 820 571 857 574 884 577 c 1
 884 458 l 1
 868 459 819 458 794 458 c 2
 721 454 l 1
 718 380 714 302 707 262 c 0
 697 211 674 198 625 198 c 0
 592 198 517 207 484 213 c 1
 487 317 l 1
 516 312 555 307 573 307 c 0
 592 307 601 310 602 328 c 0
 606 355 609 398 610 445 c 1
 526 437 434 429 354 420 c 1
 353 333 352 244 354 203 c 0
 356 108 365 87 506 87 c 0
 598 87 716 98 787 112 c 1
 782 -19 l 1
 718 -26 603 -35 514 -35 c 0
 270 -35 242 18 237 184 c 1
 236 407 l 1
 173 400 l 2
 143 396 85 388 59 384 c 1
 47 506 l 1
 73 506 117 508 165 512 c 2
 237 519 l 1
 237 616 l 2
 237 656 234 689 229 722 c 1
 295 722 l 1
 362 722 l 1
 357 691 356 664 356 623 c 2
 355 530 l 1
 483 542 l 1
EndSplineSet
AlternateSubs2: "Historical Kana subtable" u1B052_uni3099.ccmp u1B053_uni3099.ccmp u1B054_uni3099.ccmp u1B055_uni3099.ccmp u1B056_uni3099.ccmp
EndChar

StartChar: uni305D
Encoding: 12381 12381 147
Width: 1000
Flags: W
LayerCount: 2
Fore
SplineSet
668 462 m 0
 737 466 805 469 862 469 c 1
 862 356 l 1
 772 361 678 362 620 353 c 0
 534 341 462 279 462 200 c 0
 462 124 521 95 604 85 c 0
 657 79 712 79 748 82 c 1
 723 -44 l 1
 602 -49 508 -33 443 4 c 0
 377 42 342 100 342 180 c 0
 342 239 375 298 411 332 c 1
 324 324 219 310 125 293 c 1
 114 410 l 1
 163 414 229 423 279 429 c 1
 363 484 485 594 543 647 c 1
 505 644 389 638 351 634 c 0
 327 632 296 629 266 626 c 1
 260 748 l 1
 290 746 318 746 350 746 c 0
 390 746 567 754 624 760 c 0
 654 764 676 768 689 772 c 1
 726 728 764 670 757 665 c 0
 747 658 744 671 726 659 c 0
 713 650 699 640 689 631 c 0
 622 577 530 497 465 446 c 1
 528 452 599 458 668 462 c 0
EndSplineSet
Substitution2: "Stylistic Kana variants subtable" uni305D.salt
AlternateSubs2: "Historical Kana subtable" u1B057 u1B058 u1B059 u1B05A u1B05B u1B05C u1B05D
EndChar

StartChar: uni305D.salt
Encoding: 1114131 -1 148
Width: 1000
Flags: W
LayerCount: 2
Fore
SplineSet
443 4 m 0
 376 43 342 101 342 180 c 0
 342 208 349 236 363 265 c 0
 376 292 392 314 411 332 c 1
 316 323 220 310 125 293 c 1
 114 410 l 1
 138 412 179 417 238 424 c 0
 257 426 270 428 279 429 c 1
 339 468 427 541 543 647 c 1
 543 647 543 647 689 772 c 1
 708 749 725 727 740 704 c 0
 755 681 761 668 758 666 c 128
 755 664 751 662 746 663 c 0
 739 665 733 664 726 659 c 0
 709 647 696 638 689 631 c 0
 669 615 636 588 590 549 c 0
 531 499 489 465 465 446 c 1
 541 453 609 459 668 462 c 0
 749 467 813 469 862 469 c 1
 862 356 l 1
 753 362 672 361 620 353 c 0
 576 347 539 330 509 302 c 0
 478 273 462 239 462 200 c 0
 462 135 509 96 604 85 c 0
 655 79 703 78 748 82 c 1
 723 -44 l 1
 602 -49 508 -33 443 4 c 0
367 574 m 1
 338 603 315 624 298 639 c 0
 282 653 257 674 224 701 c 1
 302 789 l 1
 327 771 354 749 385 723 c 0
 410 701 431 681 448 662 c 1
 367 574 l 1
EndSplineSet
EndChar

StartChar: uni305E
Encoding: 12382 12382 149
Width: 1000
Flags: W
LayerCount: 2
Fore
SplineSet
639 462 m 0
 708 466 776 469 834 469 c 1
 834 356 l 1
 743 361 649 362 592 354 c 0
 506 341 433 279 433 200 c 0
 433 124 492 95 576 85 c 0
 628 79 684 80 719 83 c 1
 695 -44 l 1
 574 -49 478 -33 414 4 c 0
 349 42 314 100 314 180 c 0
 314 240 347 299 382 332 c 1
 296 325 191 310 97 293 c 1
 85 410 l 1
 135 414 201 423 250 429 c 1
 335 485 457 594 515 647 c 1
 476 644 361 638 322 635 c 0
 299 633 268 629 238 626 c 1
 232 749 l 1
 261 746 289 746 321 746 c 0
 362 746 538 754 596 761 c 0
 626 764 648 769 661 772 c 1
 698 728 736 670 729 666 c 0
 720 660 716 672 698 660 c 0
 684 650 671 640 661 631 c 0
 594 577 501 497 437 446 c 1
 500 452 570 458 639 462 c 0
762 574 m 0
 773 555 783 535 792 515 c 1
 721 483 l 1
 712 505 703 524 693 542 c 0
 683 561 672 579 659 599 c 1
 728 629 l 1
 740 612 751 593 762 574 c 0
799 587 m 0
 788 605 776 623 763 640 c 1
 832 673 l 1
 843 657 856 638 868 618 c 0
 880 599 892 578 900 560 c 1
 830 528 l 1
 820 549 810 568 799 587 c 0
EndSplineSet
Substitution2: "Stylistic Kana variants subtable" uni305E.salt
AlternateSubs2: "Historical Kana subtable" u1B057_uni3099.ccmp u1B058_uni3099.ccmp u1B059_uni3099.ccmp u1B05A_uni3099.ccmp u1B05B_uni3099.ccmp u1B05C_uni3099.ccmp u1B05D_uni3099.ccmp
EndChar

StartChar: uni305E.salt
Encoding: 1114132 -1 150
Width: 1000
Flags: W
LayerCount: 2
Fore
SplineSet
763 640 m 1
 754 662 745 682 735 699 c 0
 726 716 715 735 701 756 c 1
 770 786 l 1
 778 775 789 756 804 731 c 0
 814 713 824 693 834 672 c 1
 763 640 l 1
872 685 m 1
 862 706 852 725 841 744 c 0
 829 763 817 781 805 797 c 1
 874 830 l 1
 890 807 902 789 910 775 c 0
 924 753 935 734 942 717 c 1
 872 685 l 1
434 -18 m 0
 367 21 333 79 333 158 c 0
 333 186 340 214 354 243 c 0
 367 270 383 292 402 310 c 1
 307 301 211 288 116 271 c 1
 105 388 l 1
 129 391 170 396 229 402 c 0
 248 404 261 406 270 407 c 1
 330 446 418 519 534 625 c 1
 534 625 534 625 658 733 c 1
 677 710 694 688 709 665 c 0
 723 642 729 629 726 626 c 0
 722 623 718 623 715 624 c 0
 708 626 702 625 695 620 c 0
 678 607 661 594 643 580 c 128
 625 566 595 540 554 505 c 128
 513 470 480 443 456 424 c 1
 532 431 600 437 659 440 c 0
 740 445 804 447 853 447 c 1
 853 334 l 1
 748 340 668 339 611 331 c 0
 567 325 530 308 500 280 c 0
 469 251 453 217 453 178 c 0
 453 113 500 74 595 63 c 0
 646 57 694 56 739 60 c 1
 714 -66 l 1
 593 -71 499 -55 434 -18 c 0
358 550 m 5
 323 585 300 607 289 617 c 0
 273 631 248 652 215 679 c 1
 293 767 l 1
 318 749 345 727 376 701 c 0
 398 682 419 661 439 638 c 1
 358 550 l 5
EndSplineSet
EndChar

StartChar: uni305F
Encoding: 12383 12383 151
Width: 1000
Flags: W
LayerCount: 2
Fore
SplineSet
619 497 m 0
 650 499 682 500 712 500 c 0
 765 500 821 497 877 491 c 1
 874 376 l 1
 827 382 770 387 712 387 c 0
 680 387 650 386 620 386 c 0
 590 384 561 381 531 377 c 1
 531 490 l 1
 558 493 588 495 619 497 c 0
793 100 m 0
 826 104 859 109 893 115 c 1
 888 -8 l 1
 836 -15 772 -22 696 -22 c 0
 618 -22 556 -8 516 19 c 0
 475 45 453 83 453 131 c 0
 453 175 462 221 470 260 c 1
 526 254 593 239 591 231 c 0
 589 220 577 227 573 206 c 0
 570 193 569 180 569 169 c 0
 569 126 597 95 697 95 c 0
 729 95 761 97 793 100 c 0
326 180 m 0
 300 100 271 22 244 -35 c 1
 114 10 l 1
 170 106 242 308 276 442 c 2
 296 523 l 1
 234 521 l 2
 189 521 153 523 120 525 c 1
 117 644 l 1
 165 638 197 637 236 637 c 0
 263 637 291 638 320 640 c 1
 329 695 l 2
 333 730 335 770 332 792 c 1
 403 786 l 1
 476 780 l 1
 468 754 460 711 456 690 c 2
 448 653 l 1
 501 661 554 672 605 684 c 1
 605 564 l 1
 549 551 485 540 423 532 c 1
 394 410 l 2
 377 343 353 260 326 180 c 0
EndSplineSet
AlternateSubs2: "Historical Kana subtable" u1B05E u1B05F u1B060 u1B061
EndChar

StartChar: uni3060
Encoding: 12384 12384 152
Width: 1000
Flags: W
LayerCount: 2
Fore
SplineSet
590 485 m 0
 621 487 653 488 683 488 c 0
 737 488 793 485 849 480 c 1
 846 364 l 1
 799 370 742 377 684 377 c 0
 652 377 621 376 591 375 c 0
 562 373 533 370 503 366 c 1
 503 479 l 1
 529 482 559 484 590 485 c 0
765 89 m 0
 798 92 831 97 865 103 c 1
 860 -19 l 1
 806 -26 743 -33 668 -33 c 0
 589 -33 528 -20 488 7 c 0
 446 33 425 72 425 120 c 0
 425 165 433 211 441 248 c 1
 497 243 564 229 562 221 c 0
 559 210 549 216 544 196 c 0
 542 182 540 169 540 158 c 0
 540 116 569 84 669 84 c 0
 701 84 733 86 765 89 c 0
788 676 m 0
 802 652 814 628 822 610 c 1
 747 577 l 1
 738 597 726 621 713 645 c 0
 700 669 687 692 674 710 c 1
 748 742 l 1
 760 724 775 700 788 676 c 0
900 719 m 0
 914 695 927 671 935 654 c 1
 861 622 l 1
 852 642 838 666 825 690 c 0
 812 713 798 736 785 754 c 1
 859 785 l 1
 872 767 887 743 900 719 c 0
298 169 m 0
 271 89 243 11 216 -46 c 1
 85 -1 l 1
 142 96 213 296 248 431 c 2
 268 511 l 1
 206 509 l 2
 160 509 125 511 92 513 c 1
 89 633 l 1
 137 627 168 626 208 626 c 0
 235 626 263 626 292 628 c 1
 301 683 l 2
 304 719 306 758 304 781 c 1
 375 775 l 1
 447 770 l 1
 440 743 430 699 427 678 c 2
 419 643 l 1
 472 650 525 661 577 674 c 1
 577 554 l 1
 521 540 457 530 394 522 c 1
 366 398 l 2
 349 331 324 249 298 169 c 0
EndSplineSet
AlternateSubs2: "Historical Kana subtable" u1B05E_uni3099.ccmp u1B05F_uni3099.ccmp u1B060_uni3099.ccmp u1B061_uni3099.ccmp
EndChar

StartChar: uni3061
Encoding: 12385 12385 153
Width: 1000
Flags: W
LayerCount: 2
Fore
SplineSet
708 5 m 0
 619 -37 492 -48 340 -31 c 1
 307 93 l 1
 513 58 721 84 721 225 c 0
 721 283 673 331 581 331 c 0
 473 331 377 291 320 218 c 0
 310 205 304 193 294 176 c 1
 183 217 l 1
 228 306 266 434 290 539 c 1
 231 540 176 543 128 548 c 1
 128 667 l 1
 184 657 255 650 312 649 c 1
 318 688 l 2
 323 729 324 753 322 785 c 1
 388 782 l 1
 455 779 l 1
 445 746 440 713 433 681 c 2
 428 651 l 1
 535 657 662 672 775 697 c 1
 777 582 l 1
 680 566 530 548 404 541 c 1
 391 482 376 421 362 374 c 1
 438 417 511 434 595 434 c 0
 747 434 848 352 848 229 c 0
 848 121 797 48 708 5 c 0
EndSplineSet
AlternateSubs2: "Historical Kana subtable" u1B062 u1B063 u1B064 u1B065 u1B066 u1B067 u1B068
EndChar

StartChar: uni3062
Encoding: 12386 12386 154
Width: 1000
Flags: W
LayerCount: 2
Fore
SplineSet
802 736 m 0
 815 712 828 688 837 670 c 1
 761 637 l 1
 752 656 740 680 727 704 c 0
 714 728 700 752 687 770 c 1
 762 801 l 1
 774 784 788 760 802 736 c 0
914 778 m 0
 928 754 941 731 949 714 c 1
 875 681 l 1
 866 701 853 725 839 749 c 0
 826 772 812 795 799 814 c 1
 873 844 l 1
 886 827 901 802 914 778 c 0
672 -6 m 0
 583 -48 456 -59 304 -43 c 1
 272 81 l 1
 477 48 685 74 685 215 c 0
 685 272 637 320 545 320 c 0
 437 320 341 280 285 207 c 0
 274 194 268 182 259 166 c 1
 148 205 l 1
 193 294 230 422 255 529 c 1
 195 530 140 532 92 537 c 1
 92 656 l 1
 148 647 219 639 276 638 c 1
 282 677 l 2
 288 718 289 743 287 774 c 1
 353 771 l 1
 420 769 l 1
 410 735 404 701 398 671 c 2
 392 641 l 1
 494 647 613 659 726 684 c 1
 727 569 l 1
 631 553 491 536 368 530 c 1
 355 472 340 410 326 363 c 1
 402 407 476 423 559 423 c 0
 712 423 812 341 812 218 c 0
 812 110 761 37 672 -6 c 0
EndSplineSet
AlternateSubs2: "Historical Kana subtable" u1B062_uni3099.ccmp u1B063_uni3099.ccmp u1B064_uni3099.ccmp u1B065_uni3099.ccmp u1B066_uni3099.ccmp u1B067_uni3099.ccmp u1B068_uni3099.ccmp
EndChar

StartChar: uni3063
Encoding: 12387 12387 155
Width: 1000
Flags: W
LayerCount: 2
Fore
SplineSet
619 143 m 0
 685 175 725 223 725 288 c 0
 725 360 672 410 590 410 c 0
 481 410 293 330 213 295 c 1
 164 420 l 1
 193 426 236 437 264 446 c 0
 328 466 488 521 602 521 c 0
 750 521 850 431 850 286 c 0
 850 199 812 126 738 73 c 0
 663 19 551 -16 401 -25 c 1
 351 93 l 1
 459 96 552 112 619 143 c 0
EndSplineSet
Substitution2: "Vertical forms subtable" uni3063.vert
EndChar

StartChar: uni3063.vert
Encoding: 1114133 -1 156
Width: 1000
Flags: W
LayerCount: 2
Fore
SplineSet
693 259 m 0
 756 288 795 333 795 397 c 0
 795 455 756 510 669 510 c 0
 559 510 389 433 314 399 c 1
 267 521 l 1
 298 526 340 537 368 545 c 0
 427 563 571 613 674 613 c 0
 816 613 914 524 914 396 c 0
 914 314 880 244 809 192 c 0
 740 140 634 107 492 100 c 1
 445 213 l 1
 542 216 630 230 693 259 c 0
EndSplineSet
Comment: "."
EndChar

StartChar: uni3064
Encoding: 12388 12388 157
Width: 1000
Flags: W
LayerCount: 2
Fore
SplineSet
758 121 m 0
 666 57 533 18 367 9 c 1
 313 137 l 1
 568 144 767 218 767 386 c 0
 767 476 706 545 593 545 c 0
 455 545 232 449 134 406 c 1
 107 473 l 1
 81 540 l 1
 116 546 163 559 196 569 c 0
 269 592 461 661 598 661 c 0
 768 661 901 561 901 384 c 0
 901 275 850 186 758 121 c 0
EndSplineSet
AlternateSubs2: "Historical Kana subtable" u1B069 u1B06A u1B06B u1B06C u1B06D
EndChar

StartChar: uni3065
Encoding: 12389 12389 158
Width: 1000
Flags: W
LayerCount: 2
Fore
SplineSet
741 108 m 0
 649 44 516 5 351 -4 c 1
 296 123 l 1
 550 128 750 204 750 372 c 0
 750 462 690 530 576 530 c 0
 437 530 215 434 117 391 c 1
 90 458 l 1
 64 526 l 1
 99 532 146 545 180 555 c 0
 252 578 443 647 581 647 c 0
 751 647 884 547 884 369 c 0
 884 261 833 172 741 108 c 0
793 720 m 0
 806 696 819 672 828 654 c 1
 753 621 l 1
 743 641 731 665 718 689 c 0
 705 713 692 737 679 755 c 1
 754 786 l 1
 766 768 780 744 793 720 c 0
906 763 m 0
 920 739 933 715 941 698 c 1
 866 666 l 1
 856 686 844 710 831 734 c 0
 818 757 804 780 790 798 c 1
 865 829 l 1
 877 812 892 787 906 763 c 0
EndSplineSet
AlternateSubs2: "Historical Kana subtable" u1B069_uni3099.ccmp u1B06A_uni3099.ccmp u1B06B_uni3099.ccmp u1B06C_uni3099.ccmp u1B06D_uni3099.ccmp
EndChar

StartChar: uni3066
Encoding: 12390 12390 159
Width: 1000
Flags: W
LayerCount: 2
Fore
SplineSet
477 64 m 0
 406 119 359 198 359 301 c 0
 359 439 435 549 498 598 c 1
 410 588 218 567 109 543 c 1
 97 674 l 1
 134 675 171 677 190 679 c 0
 268 686 423 700 595 716 c 0
 692 723 795 730 861 732 c 1
 862 609 l 1
 811 608 730 608 680 597 c 0
 567 566 482 441 482 327 c 0
 482 170 627 112 786 103 c 1
 763 37 l 1
 742 -28 l 1
 644 -22 548 9 477 64 c 0
EndSplineSet
AlternateSubs2: "Historical Kana subtable" u1B06E u1B06F u1B070 u1B071 u1B072 u1B073 u1B074 u1B075 u1B076 u1B08E
EndChar

StartChar: uni3067
Encoding: 12391 12391 160
Width: 1000
Flags: W
LayerCount: 2
Fore
SplineSet
474 61 m 0
 403 116 356 195 356 299 c 0
 356 437 432 547 496 596 c 1
 408 586 216 565 107 541 c 1
 95 673 l 1
 132 674 169 675 187 677 c 0
 266 684 421 698 593 713 c 0
 690 722 792 727 859 730 c 1
 860 607 l 1
 809 606 728 606 679 594 c 0
 565 563 479 439 479 325 c 0
 479 167 624 110 784 101 c 1
 761 35 l 1
 740 -30 l 1
 641 -24 545 7 474 61 c 0
765 449 m 0
 779 426 792 402 801 383 c 1
 729 350 l 1
 718 377 707 399 696 420 c 0
 683 442 671 462 656 483 c 1
 726 513 l 1
 737 496 751 473 765 449 c 0
872 495 m 0
 886 472 900 449 910 430 c 1
 839 395 l 1
 827 421 815 443 803 463 c 0
 790 484 777 504 762 525 c 1
 831 557 l 1
 843 541 857 518 872 495 c 0
EndSplineSet
AlternateSubs2: "Historical Kana subtable" u1B06E_uni3099.ccmp u1B06F_uni3099.ccmp u1B070_uni3099.ccmp u1B071_uni3099.ccmp u1B072_uni3099.ccmp u1B073_uni3099.ccmp u1B074_uni3099.ccmp u1B075_uni3099.ccmp u1B076_uni3099.ccmp u1B08E_uni3099.ccmp
EndChar

StartChar: uni3068
Encoding: 12392 12392 161
Width: 1000
Flags: W
LayerCount: 2
Fore
SplineSet
291 20 m 0
 233 54 197 109 197 191 c 0
 197 297 264 375 354 443 c 1
 310 525 265 628 223 730 c 1
 340 779 l 1
 376 679 420 586 459 513 c 1
 535 559 617 601 661 626 c 0
 696 648 724 664 748 685 c 1
 813 574 l 1
 785 556 755 540 720 522 c 0
 662 492 543 436 458 380 c 0
 380 327 327 272 327 205 c 0
 327 136 392 99 523 99 c 0
 619 99 746 114 830 135 c 1
 829 66 l 1
 828 -3 l 1
 748 -18 649 -27 526 -27 c 0
 433 -27 350 -14 291 20 c 0
EndSplineSet
AlternateSubs2: "Historical Kana subtable" u1B077 u1B078 u1B079 u1B07A u1B07B u1B07C u1B07D u1B06D
EndChar

StartChar: uni3069
Encoding: 12393 12393 162
Width: 1000
Flags: W
LayerCount: 2
Fore
SplineSet
807 714 m 0
 821 690 834 666 843 648 c 1
 767 615 l 1
 758 635 745 659 733 682 c 0
 720 706 707 730 694 748 c 1
 768 779 l 1
 780 762 794 738 807 714 c 0
921 756 m 0
 935 732 948 709 956 692 c 1
 881 659 l 1
 871 679 858 703 845 727 c 0
 832 750 818 773 805 792 c 1
 880 823 l 1
 892 805 907 781 921 756 c 0
264 5 m 0
 206 39 170 94 170 177 c 0
 170 283 236 362 326 430 c 1
 283 511 238 615 195 716 c 1
 314 765 l 1
 350 665 393 573 431 499 c 1
 500 540 567 575 611 601 c 0
 646 621 673 638 697 658 c 1
 758 545 l 1
 727 528 697 511 664 494 c 0
 604 464 517 422 430 365 c 0
 352 313 300 258 300 191 c 0
 300 122 366 85 496 85 c 0
 592 85 719 100 803 120 c 1
 802 50 l 1
 801 -18 l 1
 721 -32 621 -43 499 -43 c 0
 406 -43 323 -30 264 5 c 0
EndSplineSet
AlternateSubs2: "Historical Kana subtable" u1B077_uni3099.ccmp u1B078_uni3099.ccmp u1B079_uni3099.ccmp u1B07A_uni3099.ccmp u1B07B_uni3099.ccmp u1B07C_uni3099.ccmp u1B07D_uni3099.ccmp u1B06D_uni3099.ccmp
EndChar

StartChar: uni306A
Encoding: 12394 12394 163
Width: 1000
Flags: W
LayerCount: 2
Fore
SplineSet
746 511 m 0
 705 536 662 559 630 574 c 1
 690 669 l 1
 724 654 770 630 813 605 c 0
 857 581 899 556 922 538 c 1
 855 437 l 1
 828 460 788 486 746 511 c 0
449 164 m 0
 434 154 425 139 425 122 c 0
 425 87 454 62 506 62 c 0
 539 62 559 72 572 87 c 0
 586 103 590 126 590 152 c 2
 590 171 l 1
 566 177 540 181 514 181 c 0
 487 181 465 175 449 164 c 0
369 229 m 0
 405 259 457 277 522 277 c 0
 544 277 565 275 586 273 c 1
 581 381 l 1
 576 488 l 1
 694 488 l 1
 691 448 693 408 694 365 c 2
 699 243 l 1
 780 213 846 165 894 121 c 1
 831 18 l 1
 798 49 756 89 704 121 c 1
 704 111 l 2
 704 22 656 -47 523 -47 c 0
 406 -47 314 5 314 111 c 0
 314 158 333 200 369 229 c 0
317 326 m 0
 282 254 243 185 205 130 c 1
 91 190 l 1
 165 284 242 425 283 529 c 1
 234 528 l 2
 195 528 157 529 116 531 c 1
 108 643 l 1
 148 638 198 636 233 636 c 0
 261 636 289 637 319 640 c 1
 332 693 342 750 344 800 c 1
 474 787 l 1
 457 721 l 1
 440 655 l 1
 486 664 530 674 567 686 c 1
 571 575 l 1
 527 563 469 551 406 541 c 1
 384 474 352 399 317 326 c 0
EndSplineSet
AlternateSubs2: "Historical Kana subtable" u1B07E u1B07F u1B080 u1B081 u1B082 u1B083 u1B084 u1B085 u1B086
EndChar

StartChar: uni306B
Encoding: 12395 12395 164
Width: 1000
Flags: W
LayerCount: 2
Fore
SplineSet
659 675 m 0
 733 676 805 680 855 686 c 1
 855 562 l 1
 798 557 727 554 654 554 c 0
 583 554 510 556 451 562 c 1
 451 685 l 1
 509 677 585 674 659 675 c 0
780 8 m 0
 740 5 695 3 642 3 c 0
 561 3 501 18 461 45 c 0
 422 73 402 112 402 161 c 0
 402 198 408 237 418 286 c 1
 472 280 536 266 535 258 c 0
 533 247 522 254 518 232 c 0
 516 219 515 207 515 194 c 0
 515 152 551 126 647 126 c 0
 730 126 800 134 882 151 c 1
 884 22 l 1
 854 16 820 11 780 8 c 0
142 503 m 0
 150 571 160 630 165 667 c 0
 168 694 174 730 175 761 c 1
 241 755 l 1
 306 749 l 1
 299 729 287 681 283 664 c 0
 271 600 238 408 238 312 c 0
 238 293 239 268 242 249 c 1
 256 282 271 315 284 347 c 1
 313 323 354 281 348 261 c 0
 340 235 327 250 311 199 c 0
 295 146 281 96 274 65 c 0
 272 50 270 29 270 20 c 0
 270 9 271 -6 272 -20 c 1
 163 -27 l 1
 144 39 126 156 126 287 c 0
 126 359 133 436 142 503 c 0
EndSplineSet
AlternateSubs2: "Historical Kana subtable" u1B087 u1B088 u1B089 u1B08A u1B08B u1B08C u1B08D u1B08E
EndChar

StartChar: uni306C
Encoding: 12396 12396 165
Width: 1000
Flags: W
LayerCount: 2
Fore
SplineSet
445 460 m 0
 451 484 456 509 461 534 c 1
 432 526 406 514 383 500 c 0
 359 485 337 468 318 450 c 1
 327 428 336 407 345 389 c 0
 360 357 374 329 389 304 c 1
 402 331 414 360 425 389 c 0
 433 412 439 435 445 460 c 0
796 567 m 0
 847 515 878 441 878 352 c 0
 878 295 872 242 860 193 c 1
 898 165 930 132 954 102 c 1
 884 11 l 1
 866 32 844 60 818 86 c 1
 779 24 721 -16 638 -16 c 0
 540 -16 477 34 477 124 c 0
 477 197 539 274 635 274 c 0
 678 274 716 266 752 253 c 1
 758 284 760 316 760 348 c 0
 760 476 687 547 577 551 c 1
 566 484 552 417 533 360 c 0
 506 273 460 184 405 117 c 0
 350 50 286 3 221 3 c 0
 144 3 80 61 80 171 c 0
 80 279 116 369 164 434 c 2
 194 471 l 1
 170 538 l 2
 159 573 154 595 132 651 c 1
 242 698 l 1
 251 651 265 601 280 554 c 1
 335 594 399 626 476 643 c 1
 479 694 l 2
 481 735 480 750 477 780 c 1
 607 776 l 1
 602 744 598 707 596 690 c 2
 591 652 l 1
 673 649 745 619 796 567 c 0
683 176 m 0
 669 180 654 182 639 182 c 0
 602 182 579 161 579 137 c 0
 579 109 599 91 633 91 c 0
 653 91 671 98 686 110 c 0
 701 122 713 140 724 160 c 1
 711 167 697 172 683 176 c 0
272 146 m 0
 288 158 304 174 320 194 c 1
 304 220 287 250 268 288 c 0
 258 307 249 328 239 351 c 1
 225 326 211 299 202 272 c 0
 194 244 188 218 188 193 c 0
 188 158 203 128 228 128 c 0
 241 128 256 135 272 146 c 0
EndSplineSet
AlternateSubs2: "Historical Kana subtable" u1B08F u1B090 u1B091
EndChar

StartChar: uni306D
Encoding: 12397 12397 166
Width: 1000
Flags: W
LayerCount: 2
Fore
SplineSet
188 507 m 1
 103 496 l 1
 91 619 l 1
 118 618 140 618 173 620 c 0
 200 622 242 626 282 632 c 1
 286 706 l 2
 286 734 287 763 282 793 c 1
 419 788 l 1
 414 761 406 712 398 651 c 1
 433 605 l 1
 421 589 401 557 385 532 c 1
 384 524 l 1
 461 591 562 661 658 661 c 0
 791 661 871 548 871 373 c 0
 871 317 868 266 861 218 c 1
 894 194 926 166 958 130 c 1
 897 30 l 1
 875 57 852 82 828 104 c 1
 794 31 736 -12 642 -12 c 0
 537 -12 457 35 457 144 c 0
 457 230 529 293 643 293 c 0
 680 293 716 288 751 276 c 1
 754 309 756 343 756 381 c 0
 756 483 710 553 637 553 c 0
 553 553 450 467 375 381 c 1
 373 348 372 317 372 289 c 0
 372 210 372 129 378 39 c 0
 379 22 382 -13 384 -35 c 1
 255 -35 l 1
 257 -14 257 21 257 36 c 2
 259 142 l 1
 261 247 l 1
 222 187 175 117 142 72 c 1
 69 176 l 1
 122 243 217 370 270 451 c 1
 274 518 l 1
 188 507 l 1
681 192 m 0
 665 196 649 198 633 198 c 0
 594 198 559 180 559 148 c 0
 559 110 594 96 634 96 c 0
 657 96 676 103 692 117 c 0
 707 130 719 150 728 174 c 1
 713 182 697 188 681 192 c 0
EndSplineSet
AlternateSubs2: "Historical Kana subtable" u1B092 u1B093 u1B094 u1B095 u1B096 u1B097 u1B098
EndChar

StartChar: uni306E
Encoding: 12398 12398 167
Width: 1000
Flags: W
LayerCount: 2
Fore
SplineSet
429 487 m 0
 437 526 444 567 449 606 c 1
 372 590 312 547 272 495 c 0
 231 442 210 381 210 328 c 0
 210 231 248 184 285 184 c 0
 324 184 361 244 399 374 c 0
 410 410 420 448 429 487 c 0
215 604 m 0
 292 679 400 726 522 726 c 0
 755 726 901 561 901 352 c 0
 901 149 780 6 543 -31 c 1
 508 26 l 1
 473 83 l 1
 508 87 535 93 560 98 c 0
 680 127 774 216 774 356 c 0
 774 488 704 587 577 609 c 1
 564 528 548 439 521 349 c 0
 464 155 383 36 281 36 c 0
 177 36 90 153 90 315 c 0
 90 426 137 529 215 604 c 0
EndSplineSet
AlternateSubs2: "Historical Kana subtable" u1B099 u1B09A u1B09B u1B09C u1B09D
EndChar

StartChar: uni306F
Encoding: 12399 12399 168
Width: 1000
Flags: W
LayerCount: 2
Fore
SplineSet
246 496 m 0
 237 423 229 346 229 298 c 0
 229 279 230 255 233 236 c 1
 245 269 261 302 275 335 c 1
 304 311 346 267 339 247 c 0
 331 221 316 236 300 187 c 0
 285 137 272 89 265 58 c 0
 262 45 260 24 260 13 c 0
 260 3 261 -13 262 -26 c 1
 156 -35 l 1
 136 32 118 142 118 272 c 0
 118 345 126 427 133 499 c 0
 142 572 152 636 157 673 c 0
 161 699 165 736 166 767 c 1
 231 761 306 746 304 737 c 0
 301 725 290 733 284 712 c 0
 279 695 276 679 274 670 c 0
 267 638 256 569 246 496 c 0
500 182 m 0
 485 172 476 157 476 139 c 0
 476 99 513 83 563 83 c 0
 592 83 611 91 623 105 c 0
 635 121 640 143 640 170 c 2
 640 188 l 1
 616 194 590 198 565 198 c 0
 538 198 516 192 500 182 c 0
422 244 m 0
 458 273 510 290 574 290 c 0
 596 290 617 290 635 287 c 1
 633 346 630 416 629 484 c 1
 562 483 l 2
 507 483 453 485 398 489 c 1
 398 603 l 1
 451 598 506 595 562 595 c 2
 628 596 l 1
 627 702 l 2
 627 717 624 746 620 766 c 1
 687 766 l 1
 755 766 l 1
 752 747 750 724 749 703 c 0
 748 682 747 647 746 604 c 1
 798 609 847 617 892 626 c 1
 892 506 l 1
 847 500 798 494 746 490 c 1
 748 397 753 320 757 255 c 1
 835 222 894 173 939 131 c 1
 874 30 l 1
 835 68 797 101 759 127 c 1
 755 35 704 -30 576 -30 c 0
 446 -30 366 26 366 126 c 0
 366 175 386 216 422 244 c 0
EndSplineSet
AlternateSubs2: "Historical Kana subtable" u1B09E u1B09F u1B0A0 u1B0A1 u1B0A2 u1B0A3 u1B0A4 u1B0A5 u1B0A6 u1B0A7 u1B0A8
EndChar

StartChar: uni3070
Encoding: 12400 12400 169
Width: 1000
Flags: W
LayerCount: 2
Fore
SplineSet
220 485 m 0
 211 412 203 335 203 287 c 0
 203 268 204 243 207 224 c 1
 219 258 235 290 248 322 c 1
 277 299 318 257 312 237 c 0
 304 211 290 226 274 175 c 0
 258 125 245 78 239 47 c 0
 236 33 233 12 234 2 c 0
 234 -8 234 -24 235 -38 c 1
 130 -46 l 1
 110 21 92 131 92 261 c 0
 92 334 100 415 108 487 c 0
 116 560 126 625 132 661 c 0
 134 688 139 724 140 755 c 1
 205 750 279 736 277 727 c 0
 274 715 263 722 257 700 c 0
 253 683 249 667 247 658 c 0
 240 626 229 557 220 485 c 0
833 727 m 0
 842 704 850 681 855 662 c 1
 790 640 l 1
 783 661 775 684 768 707 c 0
 759 730 751 753 742 772 c 1
 806 793 l 1
 815 774 824 751 833 727 c 0
930 758 m 0
 940 734 948 711 954 693 c 1
 889 672 l 1
 883 693 874 716 866 739 c 0
 857 762 848 784 838 803 c 1
 902 823 l 1
 911 805 921 781 930 758 c 0
474 171 m 0
 458 161 449 147 449 128 c 0
 449 89 487 72 537 72 c 0
 566 72 586 79 598 94 c 0
 610 109 615 131 615 159 c 2
 615 175 l 1
 589 183 564 187 539 187 c 0
 512 187 490 182 474 171 c 0
396 234 m 0
 432 263 484 280 548 280 c 0
 570 280 590 279 610 276 c 1
 607 335 603 405 602 473 c 1
 536 472 l 2
 481 472 427 474 372 478 c 1
 371 592 l 1
 425 587 479 584 536 584 c 2
 602 585 l 1
 601 691 l 2
 601 706 598 736 594 754 c 1
 661 754 l 1
 728 754 l 1
 726 736 724 713 723 693 c 2
 720 593 l 1
 771 598 821 604 867 614 c 1
 867 496 l 1
 821 489 771 483 719 480 c 1
 721 386 726 310 729 244 c 1
 808 212 868 162 912 121 c 1
 849 20 l 1
 809 57 771 90 733 116 c 1
 728 24 678 -42 550 -42 c 0
 420 -42 339 14 339 115 c 0
 339 164 359 205 396 234 c 0
EndSplineSet
AlternateSubs2: "Historical Kana subtable" u1B09E_uni3099.ccmp u1B09F_uni3099.ccmp u1B0A0_uni3099.ccmp u1B0A1_uni3099.ccmp u1B0A2_uni3099.ccmp u1B0A3_uni3099.ccmp u1B0A4_uni3099.ccmp u1B0A5_uni3099.ccmp u1B0A6_uni3099.ccmp u1B0A7_uni3099.ccmp u1B0A8_uni3099.ccmp
EndChar

StartChar: uni3071
Encoding: 12401 12401 170
Width: 1000
Flags: W
LayerCount: 2
Fore
SplineSet
220 485 m 0
 211 412 203 335 203 287 c 0
 203 268 204 243 207 224 c 1
 219 258 235 290 248 322 c 1
 277 299 318 257 312 237 c 0
 304 211 290 226 274 175 c 0
 258 125 245 78 239 47 c 0
 236 33 233 12 234 2 c 0
 234 -8 234 -24 235 -38 c 1
 130 -46 l 1
 110 21 92 131 92 261 c 0
 92 334 100 415 108 487 c 0
 116 560 126 625 132 661 c 0
 134 688 139 724 140 755 c 1
 205 750 279 736 277 727 c 0
 274 715 263 722 257 700 c 0
 253 683 249 667 247 658 c 0
 240 626 229 557 220 485 c 0
887 770 m 0
 879 778 867 783 854 783 c 0
 841 783 830 778 821 770 c 0
 813 761 808 749 808 736 c 0
 808 710 828 690 854 690 c 0
 880 690 900 710 900 736 c 0
 900 750 895 761 887 770 c 0
783 810 m 0
 801 829 826 840 854 840 c 0
 883 840 908 828 927 810 c 0
 945 791 956 765 956 736 c 0
 956 678 911 633 854 633 c 0
 798 633 753 678 753 736 c 0
 753 765 764 791 783 810 c 0
474 171 m 0
 458 161 449 147 449 128 c 0
 449 89 487 72 537 72 c 0
 566 72 586 79 598 94 c 0
 610 109 615 131 615 159 c 2
 615 175 l 1
 589 183 564 187 539 187 c 0
 512 187 490 182 474 171 c 0
396 234 m 0
 432 263 484 280 548 280 c 0
 570 280 590 279 610 276 c 1
 607 335 603 405 602 473 c 1
 536 472 l 2
 481 472 427 474 372 478 c 1
 371 592 l 1
 425 587 479 584 536 584 c 2
 602 585 l 1
 601 691 l 2
 601 706 598 736 594 754 c 1
 661 754 l 1
 728 754 l 1
 726 736 724 713 723 693 c 2
 720 593 l 1
 771 598 821 604 867 614 c 1
 867 496 l 1
 821 489 771 483 719 480 c 1
 721 386 726 310 729 244 c 1
 808 212 868 162 912 121 c 1
 849 20 l 1
 809 57 771 90 733 116 c 1
 728 24 678 -42 550 -42 c 0
 420 -42 339 14 339 115 c 0
 339 164 359 205 396 234 c 0
EndSplineSet
AlternateSubs2: "Historical Kana subtable" u1B09E_uni309A.ccmp u1B09F_uni309A.ccmp u1B0A0_uni309A.ccmp u1B0A1_uni309A.ccmp u1B0A2_uni309A.ccmp u1B0A3_uni309A.ccmp u1B0A4_uni309A.ccmp u1B0A5_uni309A.ccmp u1B0A6_uni309A.ccmp u1B0A7_uni309A.ccmp u1B0A8_uni309A.ccmp
EndChar

StartChar: uni3072
Encoding: 12402 12402 171
Width: 1000
Flags: W
LayerCount: 2
Fore
SplineSet
638 241 m 0
 671 342 669 488 631 663 c 1
 614 715 l 1
 733 748 l 1
 751 628 790 476 933 340 c 1
 895 285 l 1
 857 229 l 1
 819 273 784 322 753 379 c 1
 766 160 693 -47 430 -47 c 0
 279 -47 150 37 150 212 c 0
 150 368 214 484 302 599 c 1
 265 595 206 588 179 584 c 0
 158 581 143 579 122 576 c 1
 113 700 l 1
 130 699 148 699 166 700 c 0
 256 704 412 725 475 748 c 1
 509 642 l 1
 495 636 477 629 462 621 c 0
 398 571 272 423 272 239 c 0
 272 126 342 82 432 82 c 0
 537 82 605 140 638 241 c 0
EndSplineSet
AlternateSubs2: "Historical Kana subtable" u1B0A9 u1B0AA u1B0AB u1B0AC u1B0AD u1B0AE u1B0AF
EndChar

StartChar: uni3073
Encoding: 12403 12403 172
Width: 1000
Flags: W
LayerCount: 2
Fore
SplineSet
824 717 m 0
 834 692 844 668 850 648 c 1
 779 624 l 1
 772 647 763 671 754 696 c 0
 745 720 735 744 725 764 c 1
 795 786 l 1
 804 766 814 741 824 717 c 0
858 731 m 0
 848 755 838 779 828 798 c 1
 896 822 l 1
 906 803 917 778 928 753 c 0
 938 728 947 703 954 684 c 1
 884 660 l 1
 876 682 867 706 858 731 c 0
616 223 m 0
 650 323 648 466 612 640 c 1
 592 699 l 1
 711 733 l 1
 729 612 768 460 912 325 c 1
 873 269 l 1
 836 215 l 1
 797 258 762 307 731 362 c 1
 744 144 671 -62 409 -62 c 0
 257 -62 129 23 129 196 c 0
 129 352 192 469 279 583 c 1
 243 579 184 573 156 569 c 0
 136 566 122 564 101 560 c 1
 92 685 l 1
 108 684 127 684 145 685 c 0
 234 690 391 710 452 733 c 1
 488 626 l 1
 474 621 455 614 440 605 c 0
 376 556 249 408 249 223 c 0
 249 111 320 67 411 67 c 0
 515 67 583 123 616 223 c 0
EndSplineSet
AlternateSubs2: "Historical Kana subtable" u1B0A9_uni3099.ccmp u1B0AA_uni3099.ccmp u1B0AB_uni3099.ccmp u1B0AC_uni3099.ccmp u1B0AD_uni3099.ccmp u1B0AE_uni3099.ccmp u1B0AF_uni3099.ccmp
EndChar

StartChar: uni3074
Encoding: 12404 12404 173
Width: 1000
Flags: W
LayerCount: 2
Fore
SplineSet
814 671 m 0
 823 661 836 655 850 655 c 0
 864 655 877 661 886 671 c 0
 896 680 901 694 901 708 c 0
 901 737 878 760 850 760 c 0
 821 760 799 737 799 708 c 0
 799 694 805 680 814 671 c 0
927 630 m 0
 907 610 880 597 850 597 c 0
 820 597 792 609 773 629 c 0
 753 650 741 677 741 708 c 0
 741 770 790 819 850 819 c 0
 910 819 959 770 959 708 c 0
 959 678 947 650 927 630 c 0
616 223 m 0
 650 323 648 466 612 640 c 1
 592 699 l 1
 711 733 l 1
 729 612 768 460 912 325 c 1
 873 269 l 1
 836 215 l 1
 797 258 762 307 731 362 c 1
 744 144 671 -62 409 -62 c 0
 257 -62 129 23 129 196 c 0
 129 352 192 469 279 583 c 1
 243 579 184 573 156 569 c 0
 136 566 122 564 101 560 c 1
 92 685 l 1
 108 684 127 684 145 685 c 0
 234 690 391 710 452 733 c 1
 488 626 l 1
 474 621 455 614 440 605 c 0
 376 556 249 408 249 223 c 0
 249 111 320 67 411 67 c 0
 515 67 583 123 616 223 c 0
EndSplineSet
AlternateSubs2: "Historical Kana subtable" u1B0A9_uni309A.ccmp u1B0AA_uni309A.ccmp u1B0AB_uni309A.ccmp u1B0AC_uni309A.ccmp u1B0AD_uni309A.ccmp u1B0AE_uni309A.ccmp u1B0AF_uni309A.ccmp
EndChar

StartChar: uni3075
Encoding: 12405 12405 174
Width: 1000
Flags: W
LayerCount: 2
Fore
SplineSet
447 645 m 0
 414 662 377 678 341 691 c 1
 411 779 l 1
 450 765 494 746 538 726 c 0
 580 706 621 685 653 665 c 1
 681 590 l 1
 656 569 584 509 546 482 c 1
 470 553 l 1
 492 569 516 586 529 597 c 1
 509 611 480 628 447 645 c 0
610 4 m 0
 575 -22 529 -31 480 -31 c 0
 428 -31 374 -24 328 -17 c 1
 310 110 l 1
 362 95 410 87 455 87 c 0
 503 87 537 104 537 150 c 0
 537 208 472 294 430 338 c 0
 405 362 374 389 342 413 c 1
 434 492 l 1
 462 463 487 440 510 414 c 0
 561 362 601 315 627 269 c 0
 653 224 667 181 667 136 c 0
 667 72 645 30 610 4 c 0
876 259 m 0
 905 202 931 143 945 98 c 1
 831 36 l 1
 820 84 799 144 773 200 c 0
 746 258 715 313 683 353 c 1
 785 408 l 1
 814 372 847 317 876 259 c 0
186 212 m 0
 229 246 269 282 296 313 c 1
 367 218 l 1
 341 190 306 156 266 122 c 0
 225 87 179 52 128 21 c 1
 56 124 l 1
 97 147 143 178 186 212 c 0
EndSplineSet
AlternateSubs2: "Historical Kana subtable" u1B0B0 u1B0B1 u1B0B2
EndChar

StartChar: uni3076
Encoding: 12406 12406 175
Width: 1000
Flags: W
LayerCount: 2
Fore
SplineSet
433 637 m 0
 400 654 363 671 328 684 c 1
 398 772 l 1
 437 758 481 739 524 720 c 0
 567 699 608 678 640 658 c 1
 667 582 l 1
 643 562 571 502 532 476 c 1
 457 546 l 1
 479 561 503 579 516 590 c 1
 496 604 466 621 433 637 c 0
596 -3 m 0
 562 -28 515 -38 466 -38 c 0
 414 -38 360 -32 314 -23 c 1
 297 103 l 1
 348 88 397 80 442 80 c 0
 490 80 523 98 523 143 c 0
 523 201 458 288 415 331 c 0
 392 354 360 383 329 407 c 1
 421 484 l 1
 448 457 473 433 497 407 c 0
 548 356 586 308 613 263 c 0
 639 218 653 173 653 129 c 0
 653 65 631 23 596 -3 c 0
758 193 m 0
 732 251 701 306 669 345 c 1
 771 401 l 1
 801 364 834 309 863 252 c 0
 892 195 917 137 931 92 c 1
 818 29 l 1
 806 77 785 136 758 193 c 0
172 205 m 0
 215 238 255 274 283 305 c 1
 353 212 l 1
 327 183 292 149 252 115 c 0
 211 80 165 46 115 14 c 1
 43 117 l 1
 84 140 129 171 172 205 c 0
804 601 m 0
 817 577 830 553 838 535 c 1
 763 502 l 1
 754 522 742 546 728 570 c 0
 715 594 702 618 689 636 c 1
 763 667 l 1
 776 649 790 625 804 601 c 0
916 644 m 0
 930 620 943 596 951 579 c 1
 876 547 l 1
 867 567 854 591 841 615 c 0
 828 638 814 661 801 679 c 1
 875 710 l 1
 888 692 902 668 916 644 c 0
EndSplineSet
AlternateSubs2: "Historical Kana subtable" u1B0B0_uni3099.ccmp u1B0B1_uni3099.ccmp u1B0B2_uni3099.ccmp
EndChar

StartChar: uni3077
Encoding: 12407 12407 176
Width: 1000
Flags: W
LayerCount: 2
Fore
SplineSet
877 646 m 0
 867 657 853 663 838 663 c 0
 823 663 809 656 799 647 c 0
 790 636 783 622 783 606 c 0
 783 576 807 550 838 550 c 0
 868 550 893 576 893 606 c 0
 893 622 887 636 877 646 c 0
918 524 m 0
 898 503 869 490 838 490 c 0
 807 490 778 504 758 524 c 0
 737 545 724 575 724 606 c 0
 724 670 775 722 838 722 c 0
 900 722 952 670 952 606 c 0
 952 574 939 545 918 524 c 0
433 637 m 0
 400 654 363 671 328 684 c 1
 398 772 l 1
 437 758 481 739 524 720 c 0
 567 699 608 678 640 658 c 1
 667 582 l 1
 643 562 571 502 532 476 c 1
 457 546 l 1
 479 561 503 579 516 590 c 1
 496 604 466 621 433 637 c 0
596 -3 m 0
 562 -28 515 -38 466 -38 c 0
 414 -38 360 -32 314 -23 c 1
 297 103 l 1
 348 88 397 80 442 80 c 0
 490 80 523 98 523 143 c 0
 523 201 458 288 415 331 c 0
 392 354 360 383 329 407 c 1
 421 484 l 1
 448 457 473 433 497 407 c 0
 548 356 586 308 613 263 c 0
 639 218 653 173 653 129 c 0
 653 65 631 23 596 -3 c 0
758 193 m 0
 732 251 701 306 669 345 c 1
 771 401 l 1
 801 364 834 309 863 252 c 0
 892 195 917 137 931 92 c 1
 818 29 l 1
 806 77 785 136 758 193 c 0
172 205 m 0
 215 238 255 274 283 305 c 1
 353 212 l 1
 327 183 292 149 252 115 c 0
 211 80 165 46 115 14 c 1
 43 117 l 1
 84 140 129 171 172 205 c 0
EndSplineSet
AlternateSubs2: "Historical Kana subtable" u1B0B0_uni309A.ccmp u1B0B1_uni309A.ccmp u1B0B2_uni309A.ccmp
EndChar

StartChar: uni3078
Encoding: 12408 12408 177
Width: 1000
Flags: W
LayerCount: 2
Fore
SplineSet
889 87 m 1
 841 29 l 1
 774 95 694 188 633 259 c 0
 576 330 506 421 461 472 c 0
 429 509 411 505 383 469 c 0
 346 421 279 326 239 271 c 0
 217 240 195 205 179 180 c 1
 122 240 l 1
 65 300 l 1
 93 322 116 344 145 375 c 0
 188 421 260 520 319 589 c 0
 384 665 445 672 514 603 c 0
 578 540 653 441 709 380 c 0
 769 313 849 226 938 145 c 1
 889 87 l 1
EndSplineSet
AlternateSubs2: "Historical Kana subtable" u1B0B3 u1B0B4 u1B0B5 u1B0B6 u1B0B7 u1B0B8 u1B0B9
EndChar

StartChar: uni3079
Encoding: 12409 12409 178
Width: 1000
Flags: W
LayerCount: 2
Fore
SplineSet
882 70 m 1
 833 14 l 1
 765 79 687 175 628 246 c 0
 570 317 499 408 454 458 c 0
 422 496 403 491 376 456 c 0
 338 408 271 314 230 259 c 0
 209 227 187 190 171 164 c 1
 115 223 l 1
 58 283 l 1
 86 306 109 327 137 358 c 0
 181 404 253 503 312 572 c 0
 377 649 438 655 507 586 c 0
 571 523 646 424 701 362 c 0
 761 295 842 210 931 127 c 1
 882 70 l 1
743 600 m 0
 760 572 775 544 786 522 c 1
 701 484 l 1
 688 515 675 541 661 567 c 0
 647 592 633 616 615 641 c 1
 696 675 l 1
 710 655 727 628 743 600 c 0
871 655 m 0
 888 628 904 600 915 578 c 1
 833 538 l 1
 818 569 804 595 789 619 c 0
 774 643 759 666 742 690 c 1
 822 728 l 1
 837 709 854 683 871 655 c 0
EndSplineSet
AlternateSubs2: "Historical Kana subtable" u1B0B3_uni3099.ccmp u1B0B4_uni3099.ccmp u1B0B5_uni3099.ccmp u1B0B6_uni3099.ccmp u1B0B7_uni3099.ccmp u1B0B8_uni3099.ccmp u1B0B9_uni3099.ccmp
EndChar

StartChar: uni307A
Encoding: 12410 12410 179
Width: 1000
Flags: W
LayerCount: 2
Fore
SplineSet
882 70 m 1
 833 14 l 1
 765 79 687 175 628 246 c 0
 570 317 499 408 454 458 c 0
 422 496 403 491 376 456 c 0
 338 408 271 314 230 259 c 0
 209 227 187 190 171 164 c 1
 115 223 l 1
 58 283 l 1
 86 306 109 327 137 358 c 0
 181 404 253 503 312 572 c 0
 377 649 438 655 507 586 c 0
 571 523 646 424 701 362 c 0
 761 295 842 210 931 127 c 1
 882 70 l 1
807 549 m 0
 818 561 824 576 824 593 c 0
 824 626 798 653 765 653 c 0
 732 653 705 626 705 593 c 0
 705 577 712 561 723 550 c 0
 734 538 749 531 765 531 c 0
 782 531 796 538 807 549 c 0
852 504 m 0
 830 482 799 468 765 468 c 0
 731 468 700 482 679 505 c 0
 656 527 643 558 643 593 c 0
 643 662 696 718 765 718 c 0
 833 718 887 662 887 593 c 0
 887 558 874 527 852 504 c 0
EndSplineSet
AlternateSubs2: "Historical Kana subtable" u1B0B3_uni309A.ccmp u1B0B4_uni309A.ccmp u1B0B5_uni309A.ccmp u1B0B6_uni309A.ccmp u1B0B7_uni309A.ccmp u1B0B8_uni309A.ccmp u1B0B9_uni309A.ccmp
EndChar

StartChar: uni307B
Encoding: 12411 12411 180
Width: 1000
Flags: W
LayerCount: 2
Fore
SplineSet
245 496 m 0
 236 423 228 346 228 298 c 0
 228 279 229 252 232 233 c 1
 245 266 262 302 275 335 c 1
 304 311 345 268 339 248 c 0
 331 222 317 237 301 187 c 0
 285 137 272 89 266 57 c 0
 263 44 260 24 260 13 c 0
 261 3 261 -13 262 -26 c 1
 154 -35 l 1
 135 32 117 142 117 272 c 0
 117 345 124 427 132 500 c 0
 140 573 149 637 154 674 c 0
 158 699 163 737 163 768 c 1
 228 762 304 747 302 738 c 0
 299 726 288 734 282 713 c 0
 278 696 274 680 273 671 c 0
 266 639 254 569 245 496 c 0
500 174 m 0
 486 164 478 151 478 135 c 0
 478 99 508 81 555 81 c 0
 583 81 602 89 614 101 c 0
 626 115 631 133 631 156 c 2
 631 178 l 1
 607 185 585 188 562 188 c 0
 535 188 514 183 500 174 c 0
430 12 m 0
 394 37 372 75 372 126 c 0
 372 210 438 278 566 278 c 0
 587 278 607 277 627 274 c 1
 623 387 l 1
 554 386 481 386 409 390 c 1
 409 501 l 1
 482 495 554 494 622 495 c 1
 622 616 l 1
 559 615 492 616 423 619 c 1
 423 725 l 1
 509 719 592 718 668 721 c 0
 743 723 813 730 870 739 c 1
 870 632 l 1
 829 627 782 624 731 621 c 1
 731 500 l 1
 788 504 841 508 890 515 c 1
 890 404 l 1
 844 398 790 394 732 391 c 1
 733 339 736 291 738 247 c 1
 831 214 896 160 931 126 c 1
 870 22 l 1
 831 62 789 98 743 126 c 1
 743 117 l 2
 743 31 691 -25 570 -25 c 0
 516 -25 466 -13 430 12 c 0
EndSplineSet
AlternateSubs2: "Historical Kana subtable" u1B0BA u1B0BB u1B0BC u1B0BD u1B0BE u1B0BF u1B0C0 u1B0C1
EndChar

StartChar: uni307C
Encoding: 12412 12412 181
Width: 1000
Flags: W
LayerCount: 2
Fore
SplineSet
219 482 m 0
 210 409 203 332 203 284 c 0
 203 266 204 239 207 218 c 1
 220 252 236 289 249 320 c 1
 278 296 321 253 314 233 c 0
 306 207 291 222 275 173 c 0
 260 123 247 76 240 44 c 0
 237 30 234 10 235 0 c 0
 235 -11 235 -26 236 -41 c 1
 130 -48 l 1
 110 19 92 128 92 259 c 0
 92 332 99 413 107 486 c 0
 115 559 124 624 130 660 c 0
 132 685 137 722 138 753 c 1
 203 748 278 734 276 725 c 0
 273 713 262 720 256 698 c 0
 252 682 248 665 246 656 c 0
 239 625 228 556 219 482 c 0
935 757 m 0
 944 733 953 710 958 692 c 1
 894 670 l 1
 887 691 879 715 870 737 c 0
 862 760 853 783 843 801 c 1
 907 822 l 1
 916 804 926 780 935 757 c 0
475 159 m 0
 461 150 454 137 454 121 c 0
 454 86 483 68 528 68 c 0
 557 68 576 74 588 88 c 0
 601 100 605 119 605 142 c 2
 605 165 l 1
 582 170 558 174 536 174 c 0
 510 174 489 169 475 159 c 0
404 -3 m 0
 369 23 347 61 347 113 c 0
 347 196 413 264 539 264 c 0
 561 264 582 263 602 260 c 1
 598 374 l 1
 529 373 457 373 384 377 c 1
 383 487 l 1
 457 482 528 481 597 482 c 1
 597 602 l 1
 538 601 471 602 398 605 c 1
 398 711 l 1
 474 706 541 704 602 705 c 0
 664 706 719 710 769 716 c 1
 761 735 754 754 746 771 c 1
 809 792 l 1
 827 753 849 698 859 660 c 1
 807 643 l 1
 807 615 l 1
 775 611 742 608 705 606 c 1
 705 486 l 1
 762 489 816 495 865 501 c 1
 865 390 l 1
 819 385 764 381 706 378 c 1
 707 326 710 278 712 234 c 1
 806 200 869 146 906 113 c 1
 845 8 l 1
 806 49 762 85 717 114 c 1
 717 102 l 2
 717 18 665 -40 543 -40 c 0
 489 -40 440 -28 404 -3 c 0
EndSplineSet
AlternateSubs2: "Historical Kana subtable" u1B0BA_uni3099.ccmp u1B0BB_uni3099.ccmp u1B0BC_uni3099.ccmp u1B0BD_uni3099.ccmp u1B0BE_uni3099.ccmp u1B0BF_uni3099.ccmp u1B0C0_uni3099.ccmp u1B0C1_uni3099.ccmp
EndChar

StartChar: uni307D
Encoding: 12413 12413 182
Width: 1000
Flags: W
LayerCount: 2
Fore
SplineSet
219 482 m 0
 210 409 203 332 203 284 c 0
 203 266 204 239 207 218 c 1
 220 252 236 289 249 320 c 1
 278 296 321 253 314 233 c 0
 306 207 291 222 275 173 c 0
 260 123 247 76 240 44 c 0
 237 30 234 10 235 0 c 0
 235 -11 235 -26 236 -41 c 1
 130 -48 l 1
 110 19 92 128 92 259 c 0
 92 332 99 413 107 486 c 0
 115 559 124 624 130 660 c 0
 132 685 137 722 138 753 c 1
 203 748 278 734 276 725 c 0
 273 713 262 720 256 698 c 0
 252 682 248 665 246 656 c 0
 239 625 228 556 219 482 c 0
894 779 m 0
 886 788 875 793 862 793 c 0
 849 793 837 788 829 779 c 0
 821 770 816 759 816 746 c 0
 816 719 836 698 862 698 c 0
 887 698 908 719 908 746 c 0
 908 759 903 770 894 779 c 0
475 159 m 0
 461 150 454 137 454 121 c 0
 454 86 483 68 528 68 c 0
 557 68 576 74 588 88 c 0
 601 100 605 119 605 142 c 2
 605 165 l 1
 582 170 558 174 536 174 c 0
 510 174 489 169 475 159 c 0
404 -3 m 0
 369 23 347 61 347 113 c 0
 347 196 413 264 539 264 c 0
 561 264 582 263 602 260 c 1
 598 374 l 1
 529 373 457 373 384 377 c 1
 383 487 l 1
 457 482 528 481 597 482 c 1
 597 602 l 1
 538 601 471 602 398 605 c 1
 398 711 l 1
 473 706 539 704 600 705 c 0
 661 706 715 710 765 715 c 1
 762 724 760 735 760 746 c 0
 760 803 806 849 862 849 c 0
 918 849 963 803 963 746 c 0
 963 687 918 642 862 642 c 0
 842 642 823 648 807 658 c 1
 807 615 l 1
 775 611 742 608 705 606 c 1
 705 486 l 1
 762 489 816 495 865 501 c 1
 865 390 l 1
 819 385 764 381 706 378 c 1
 707 326 710 278 712 234 c 1
 806 200 869 146 906 113 c 1
 845 8 l 1
 806 49 762 85 717 114 c 1
 717 102 l 2
 717 18 665 -40 543 -40 c 0
 489 -40 440 -28 404 -3 c 0
EndSplineSet
AlternateSubs2: "Historical Kana subtable" u1B0BA_uni309A.ccmp u1B0BB_uni309A.ccmp u1B0BC_uni309A.ccmp u1B0BD_uni309A.ccmp u1B0BE_uni309A.ccmp u1B0BF_uni309A.ccmp u1B0C0_uni309A.ccmp u1B0C1_uni309A.ccmp
EndChar

StartChar: uni307E
Encoding: 12414 12414 183
Width: 1000
Flags: W
LayerCount: 2
Fore
SplineSet
322 80 m 0
 339 70 364 64 396 64 c 0
 445 64 478 78 478 134 c 2
 477 175 l 1
 453 179 427 182 400 182 c 0
 367 182 341 175 323 165 c 0
 306 154 297 139 297 122 c 0
 297 104 306 90 322 80 c 0
245 235 m 0
 285 264 343 281 415 281 c 0
 435 281 455 280 474 278 c 1
 470 367 l 1
 421 367 l 2
 367 367 259 372 197 380 c 1
 196 493 l 1
 257 482 373 475 423 475 c 2
 468 475 l 1
 469 574 l 1
 434 574 l 2
 375 574 266 582 204 591 c 1
 201 700 l 1
 269 689 376 679 433 679 c 2
 470 679 l 1
 470 724 l 2
 470 743 468 772 464 791 c 1
 591 791 l 1
 588 771 586 747 586 722 c 2
 585 683 l 1
 662 687 740 695 822 709 c 1
 821 599 l 1
 759 591 674 582 583 578 c 1
 583 479 l 1
 678 483 757 491 833 502 c 1
 833 388 l 1
 748 379 675 372 585 369 c 1
 591 255 l 1
 650 238 703 213 747 187 c 0
 791 161 827 133 854 110 c 1
 787 2 l 1
 736 50 672 101 597 136 c 1
 598 100 l 2
 598 19 537 -45 413 -45 c 0
 262 -45 183 14 183 116 c 0
 183 165 205 206 245 235 c 0
EndSplineSet
AlternateSubs2: "Historical Kana subtable" u1B0C2 u1B0C3 u1B0C4 u1B0C5 u1B0C6 u1B0C7 u1B0C8 u1B0D6
EndChar

StartChar: uni307F
Encoding: 12415 12415 184
Width: 1000
Flags: W
LayerCount: 2
Fore
SplineSet
167 376 m 0
 224 424 304 454 398 458 c 1
 425 522 452 587 474 632 c 1
 436 630 355 627 312 625 c 0
 293 624 260 621 236 617 c 1
 231 741 l 1
 257 738 289 736 309 736 c 0
 363 736 462 741 507 745 c 0
 530 746 555 751 571 758 c 1
 608 728 650 689 647 685 c 0
 642 680 637 688 628 678 c 0
 622 672 618 665 614 658 c 0
 589 617 554 533 520 452 c 1
 593 440 663 417 724 390 c 1
 727 423 l 2
 729 460 729 498 727 528 c 1
 850 513 l 1
 846 449 841 389 832 336 c 1
 871 313 905 290 932 271 c 1
 905 204 l 1
 878 138 l 1
 853 161 826 183 797 205 c 1
 756 97 684 12 558 -55 c 1
 459 28 l 1
 601 91 666 182 697 269 c 1
 631 307 555 336 475 347 c 1
 441 266 401 170 368 117 c 0
 331 58 286 32 222 32 c 0
 139 32 77 91 77 188 c 0
 77 263 110 328 167 376 c 0
313 261 m 0
 325 288 338 318 351 348 c 1
 299 340 257 319 230 293 c 0
 202 267 187 237 187 206 c 0
 187 174 205 158 226 158 c 0
 245 158 258 168 275 192 c 0
 288 210 300 234 313 261 c 0
EndSplineSet
AlternateSubs2: "Historical Kana subtable" u1B0C9 u1B0CA u1B0CB u1B0CC u1B0CD u1B0CE u1B0CF
EndChar

StartChar: uni3080
Encoding: 12416 12416 185
Width: 1000
Flags: W
LayerCount: 2
Fore
SplineSet
828 616 m 0
 865 582 900 545 921 519 c 1
 837 431 l 1
 811 462 776 501 741 535 c 0
 706 571 670 602 643 623 c 1
 722 702 l 1
 751 684 790 651 828 616 c 0
225 367 m 0
 213 351 205 328 205 299 c 0
 205 257 229 233 257 233 c 0
 278 233 293 244 303 264 c 0
 313 282 317 307 317 334 c 0
 317 371 299 393 273 393 c 0
 254 393 237 384 225 367 c 0
291 4 m 0
 262 30 259 65 259 98 c 2
 259 119 l 1
 244 118 l 1
 176 118 106 168 106 290 c 0
 106 404 178 489 280 489 c 2
 284 489 l 1
 284 554 l 1
 264 554 l 2
 224 554 173 556 111 562 c 1
 104 674 l 1
 156 667 211 662 256 662 c 2
 284 662 l 1
 284 670 l 2
 284 730 282 763 274 791 c 1
 406 791 l 1
 400 763 397 727 397 671 c 1
 451 677 508 688 565 704 c 1
 565 589 l 1
 509 576 450 567 397 562 c 1
 397 436 l 1
 414 411 424 378 424 339 c 0
 424 279 409 219 376 177 c 1
 375 139 l 2
 375 98 385 76 496 76 c 0
 543 76 604 82 640 94 c 0
 689 108 710 141 710 190 c 0
 710 228 709 264 702 309 c 1
 767 289 l 1
 833 268 l 1
 833 218 834 195 831 156 c 0
 826 69 801 15 692 -19 c 0
 649 -33 552 -40 488 -40 c 0
 379 -40 321 -22 291 4 c 0
EndSplineSet
AlternateSubs2: "Historical Kana subtable" u1B0D0 u1B0D1 u1B0D2 u1B0D3 u1B11D u1B11E
EndChar

StartChar: uni3081
Encoding: 12417 12417 186
Width: 1000
Flags: W
LayerCount: 2
Fore
SplineSet
395 395 m 0
 407 369 418 346 429 327 c 1
 445 358 461 391 476 427 c 0
 490 461 503 498 513 533 c 1
 456 527 406 506 362 480 c 1
 373 450 384 421 395 395 c 0
835 521 m 0
 878 466 902 393 902 309 c 0
 902 207 867 127 807 69 c 0
 747 10 663 -26 565 -42 c 1
 492 70 l 1
 699 87 781 195 781 315 c 0
 781 422 723 502 629 528 c 1
 596 416 555 306 501 222 c 1
 518 202 535 182 553 165 c 1
 458 88 l 1
 426 125 l 1
 363 55 310 24 241 24 c 0
 163 24 91 91 91 215 c 0
 91 324 145 441 230 518 c 1
 205 596 l 2
 195 630 184 661 167 696 c 1
 290 735 l 1
 296 703 304 672 311 643 c 2
 328 584 l 1
 399 621 469 639 541 642 c 1
 550 688 l 2
 555 716 557 757 557 779 c 1
 622 773 697 757 695 747 c 0
 692 734 681 742 676 718 c 0
 672 700 668 682 665 670 c 2
 657 633 l 1
 731 616 792 577 835 521 c 0
219 317 m 0
 207 286 201 254 201 224 c 0
 201 177 221 147 255 147 c 0
 289 147 323 177 358 220 c 1
 343 244 328 272 313 303 c 0
 299 335 285 369 271 405 c 1
 249 379 231 348 219 317 c 0
EndSplineSet
AlternateSubs2: "Historical Kana subtable" u1B0D4 u1B0D5 u1B0D6
EndChar

StartChar: uni3082
Encoding: 12418 12418 187
Width: 1000
Flags: W
LayerCount: 2
Fore
SplineSet
779 25 m 0
 721 -19 638 -45 535 -45 c 0
 387 -45 283 21 283 181 c 0
 283 204 286 239 289 278 c 1
 221 285 159 295 109 310 c 1
 116 426 l 1
 177 405 240 394 301 387 c 1
 317 519 l 1
 252 526 185 537 130 554 c 1
 135 664 l 1
 191 646 261 633 330 627 c 1
 337 705 l 2
 340 750 340 770 338 791 c 1
 471 783 l 1
 462 748 459 722 455 698 c 2
 445 624 l 1
 512 625 572 630 617 637 c 1
 613 523 l 1
 557 517 506 513 430 513 c 1
 414 383 l 1
 420 383 l 2
 478 383 548 386 609 394 c 1
 606 280 l 1
 554 275 499 271 440 271 c 2
 402 271 l 1
 400 242 398 218 398 201 c 0
 398 122 446 79 539 79 c 0
 670 79 742 141 742 219 c 0
 742 285 707 346 645 406 c 1
 711 420 l 1
 777 434 l 1
 839 354 868 286 868 204 c 0
 868 132 836 69 779 25 c 0
EndSplineSet
AlternateSubs2: "Historical Kana subtable" u1B0D7 u1B0D8 u1B0D9 u1B0DA u1B0DB u1B0DC u1B11D u1B11E
EndChar

StartChar: uni3083
Encoding: 12419 12419 188
Width: 1000
Flags: W
LayerCount: 2
Fore
SplineSet
452 543 m 0
 434 559 415 575 398 587 c 1
 481 650 l 1
 495 641 515 624 535 606 c 0
 555 589 573 571 585 557 c 1
 501 495 l 1
 487 510 470 527 452 543 c 0
392 91 m 0
 374 147 354 202 336 246 c 2
 313 300 l 1
 251 269 197 241 172 229 c 1
 118 345 l 1
 154 354 189 365 202 371 c 2
 269 399 l 1
 257 423 245 445 236 461 c 0
 226 480 209 507 192 528 c 1
 308 574 l 1
 318 556 330 531 336 517 c 2
 372 444 l 1
 471 485 570 523 640 523 c 0
 776 523 838 436 838 352 c 0
 838 234 774 160 633 160 c 0
 593 160 543 173 516 184 c 1
 519 294 l 1
 553 279 594 268 625 268 c 0
 690 268 722 302 722 352 c 0
 722 384 694 416 635 416 c 0
 582 416 498 386 415 349 c 1
 440 292 l 2
 458 251 480 189 502 125 c 0
 524 63 544 0 557 -43 c 1
 439 -71 l 1
 428 -23 411 34 392 91 c 0
EndSplineSet
Substitution2: "Vertical forms subtable" uni3083.vert
EndChar

StartChar: uni3083.vert
Encoding: 1114134 -1 189
Width: 1000
Flags: W
LayerCount: 2
Fore
SplineSet
514 187 m 0
 497 239 479 291 461 333 c 2
 442 382 l 1
 388 354 342 329 318 318 c 1
 266 430 l 1
 301 439 333 449 344 454 c 2
 400 477 l 1
 390 499 380 518 370 535 c 0
 359 554 344 579 327 599 c 1
 441 644 l 1
 450 628 462 603 469 589 c 2
 501 522 l 1
 539 538 576 554 612 566 c 1
 586 595 549 632 517 655 c 1
 598 714 l 1
 624 696 679 650 698 623 c 1
 631 572 l 1
 670 585 709 593 743 593 c 0
 872 593 935 510 935 432 c 0
 935 329 877 251 748 251 c 0
 709 251 660 263 633 273 c 1
 635 382 l 1
 668 367 710 357 740 357 c 0
 793 357 821 392 821 432 c 0
 821 466 790 492 738 492 c 0
 687 492 614 465 541 432 c 1
 564 378 l 2
 581 338 602 280 621 222 c 0
 641 164 660 105 672 64 c 1
 556 35 l 1
 546 82 531 135 514 187 c 0
EndSplineSet
Comment: "."
EndChar

StartChar: uni3084
Encoding: 12420 12420 190
Width: 1000
Flags: W
LayerCount: 2
Fore
SplineSet
500 195 m 0
 528 117 554 39 569 -15 c 1
 504 -32 l 1
 440 -49 l 1
 411 72 362 234 314 350 c 2
 289 410 l 1
 221 375 162 342 121 324 c 1
 66 446 l 1
 102 456 144 470 159 477 c 2
 243 513 l 1
 230 542 216 570 202 595 c 0
 189 619 165 654 147 679 c 1
 269 727 l 1
 277 710 296 671 306 652 c 2
 351 561 l 1
 408 587 465 611 520 629 c 1
 486 664 426 724 390 752 c 1
 477 814 l 1
 510 788 581 725 613 691 c 1
 539 635 l 1
 586 650 632 658 674 658 c 0
 820 658 907 568 907 457 c 0
 907 322 817 237 673 237 c 0
 622 237 564 250 528 264 c 1
 531 385 l 1
 573 366 620 352 662 352 c 0
 732 352 784 391 784 460 c 0
 784 509 742 549 671 549 c 0
 598 549 495 509 395 462 c 1
 421 403 l 2
 443 351 472 273 500 195 c 0
EndSplineSet
AlternateSubs2: "Historical Kana subtable" u1B0DD u1B0DE u1B0DF u1B0E0 u1B0E1 u1B0E2
EndChar

StartChar: uni3085
Encoding: 12421 12421 191
Width: 1000
Flags: W
LayerCount: 2
Fore
SplineSet
788 459 m 0
 828 419 849 365 849 303 c 0
 849 235 827 170 785 123 c 0
 742 76 678 47 591 47 c 1
 572 48 l 1
 548 1 515 -41 468 -76 c 1
 366 -16 l 1
 409 11 440 44 463 80 c 1
 420 105 383 143 358 194 c 1
 417 281 l 1
 440 238 468 202 506 181 c 1
 518 232 522 284 522 334 c 0
 522 363 521 393 519 421 c 1
 400 390 328 287 313 200 c 0
 311 187 310 176 310 163 c 0
 311 148 315 99 319 79 c 1
 218 66 l 1
 201 121 190 205 190 282 c 0
 190 379 203 480 209 528 c 0
 210 545 211 565 210 578 c 1
 331 568 l 1
 324 552 320 530 317 517 c 0
 307 478 294 413 293 362 c 1
 344 446 424 498 508 519 c 1
 501 566 l 2
 497 585 492 601 487 619 c 1
 602 621 l 1
 606 598 611 566 615 529 c 1
 690 525 748 499 788 459 c 0
711 385 m 0
 693 407 664 423 623 428 c 1
 626 394 627 359 627 323 c 0
 627 268 623 215 612 162 c 1
 657 167 688 182 708 206 c 0
 728 231 737 264 737 302 c 0
 737 334 729 362 711 385 c 0
EndSplineSet
Substitution2: "Vertical forms subtable" uni3085.vert
EndChar

StartChar: uni3085.vert
Encoding: 1114135 -1 192
Width: 1000
Flags: W
LayerCount: 2
Fore
SplineSet
867 542 m 0
 904 504 924 453 924 393 c 0
 924 328 904 270 864 227 c 0
 824 186 765 160 685 160 c 2
 674 160 l 1
 651 112 620 69 575 36 c 1
 477 96 l 1
 520 122 550 154 571 190 c 1
 531 212 495 245 471 292 c 1
 534 371 l 1
 555 332 576 302 606 284 c 1
 617 332 619 381 619 428 c 0
 619 455 618 482 618 506 c 1
 515 475 452 377 436 298 c 0
 433 285 433 272 433 259 c 0
 433 246 437 205 441 185 c 1
 346 171 l 1
 332 224 320 306 320 379 c 0
 320 472 332 551 337 598 c 0
 339 613 340 637 339 648 c 1
 453 640 l 1
 447 623 441 603 438 591 c 0
 428 552 419 499 418 449 c 1
 460 529 536 576 609 597 c 1
 602 645 l 2
 598 663 593 682 587 699 c 1
 699 701 l 1
 703 678 707 646 711 608 c 1
 777 604 830 580 867 542 c 0
795 474 m 0
 778 494 752 508 719 513 c 1
 721 482 722 448 722 416 c 0
 722 368 718 317 708 266 c 1
 744 271 773 286 792 308 c 0
 811 331 821 361 821 395 c 0
 821 427 812 454 795 474 c 0
EndSplineSet
Comment: "."
EndChar

StartChar: uni3086
Encoding: 12422 12422 193
Width: 1000
Flags: W
LayerCount: 2
Fore
SplineSet
823 583 m 0
 872 534 899 467 899 391 c 0
 899 309 873 237 822 185 c 0
 772 133 696 101 595 101 c 1
 577 102 l 1
 549 41 508 -15 448 -60 c 1
 336 8 l 1
 391 41 430 84 458 134 c 1
 401 163 352 209 323 271 c 1
 391 358 l 1
 418 304 451 262 499 239 c 1
 515 300 520 364 520 425 c 0
 520 467 518 510 516 552 c 1
 367 512 283 370 264 267 c 0
 260 250 259 237 260 220 c 0
 260 204 265 153 271 126 c 1
 163 112 l 1
 144 180 132 284 132 379 c 0
 132 482 148 605 154 662 c 0
 156 682 157 704 156 719 c 1
 220 713 293 700 291 694 c 0
 288 686 279 693 274 678 c 0
 272 668 269 659 267 650 c 0
 255 601 240 511 242 448 c 1
 303 556 398 627 507 654 c 1
 504 678 500 700 496 719 c 0
 492 742 486 770 480 786 c 1
 603 789 l 1
 608 759 615 717 620 666 c 1
 705 663 775 632 823 583 c 0
744 503 m 0
 720 533 683 555 630 560 c 1
 633 516 634 470 634 424 c 0
 634 356 630 287 616 219 c 1
 669 224 710 242 738 271 c 0
 766 301 780 341 780 389 c 0
 780 432 769 472 744 503 c 0
EndSplineSet
AlternateSubs2: "Historical Kana subtable" u1B0E3 u1B0E4 u1B0E5 u1B0E6
EndChar

StartChar: uni3087
Encoding: 12423 12423 194
Width: 1000
Flags: W
LayerCount: 2
Fore
SplineSet
329 59 m 0
 344 50 366 45 392 45 c 0
 434 45 455 68 455 112 c 2
 455 141 l 1
 436 144 417 146 398 146 c 0
 368 146 345 141 330 131 c 0
 314 122 305 110 305 94 c 0
 305 80 314 68 329 59 c 0
255 199 m 0
 291 226 345 241 413 241 c 2
 450 239 l 1
 447 292 445 349 445 392 c 0
 445 430 445 494 445 528 c 0
 445 565 441 605 437 623 c 1
 564 623 l 1
 561 604 556 563 556 530 c 2
 556 484 l 1
 618 486 711 491 774 498 c 1
 776 391 l 1
 713 386 619 382 556 381 c 1
 556 339 560 276 564 215 c 1
 613 199 657 176 696 151 c 0
 734 127 767 100 792 76 c 1
 727 -28 l 1
 687 14 633 63 570 98 c 1
 571 74 l 2
 571 2 532 -62 406 -62 c 0
 292 -62 199 -13 199 88 c 0
 199 134 218 172 255 199 c 0
EndSplineSet
Substitution2: "Vertical forms subtable" uni3087.vert
EndChar

StartChar: uni3087.vert
Encoding: 1114136 -1 195
Width: 1000
Flags: W
LayerCount: 2
Fore
SplineSet
451 193 m 0
 466 185 487 181 513 181 c 0
 554 181 569 205 569 248 c 2
 569 271 l 1
 550 273 531 275 512 275 c 0
 484 275 462 270 448 261 c 0
 434 252 427 240 427 225 c 0
 427 212 436 201 451 193 c 0
375 326 m 0
 409 353 460 368 526 368 c 2
 565 366 l 1
 562 417 559 471 559 513 c 0
 559 550 558 605 558 638 c 0
 558 674 555 713 551 731 c 1
 675 731 l 1
 671 712 667 672 667 640 c 2
 667 593 l 1
 726 594 808 598 867 605 c 1
 869 503 l 1
 812 497 728 493 668 491 c 1
 669 453 672 397 675 344 c 1
 722 331 765 311 802 289 c 0
 839 266 870 242 895 218 c 1
 832 117 l 1
 792 158 741 201 680 232 c 1
 680 210 l 2
 680 142 642 80 521 80 c 0
 408 80 323 122 323 220 c 0
 323 263 341 300 375 326 c 0
EndSplineSet
Comment: "."
EndChar

StartChar: uni3088
Encoding: 12424 12424 196
Width: 1000
Flags: W
LayerCount: 2
Fore
SplineSet
283 87 m 0
 304 77 332 73 365 73 c 0
 425 73 446 99 446 164 c 2
 445 197 l 1
 421 201 395 204 368 204 c 0
 332 204 303 197 282 186 c 0
 262 174 251 158 251 137 c 0
 251 114 263 98 283 87 c 0
731 210 m 0
 780 182 821 150 853 119 c 1
 781 4 l 1
 727 59 657 116 573 155 c 1
 574 122 l 2
 574 36 532 -45 374 -45 c 0
 240 -45 130 1 130 131 c 0
 130 231 213 311 386 311 c 0
 405 311 424 310 442 308 c 1
 439 383 435 464 435 515 c 0
 435 574 435 630 434 672 c 0
 432 719 430 760 424 784 c 1
 494 784 l 1
 566 784 l 1
 561 756 558 709 557 672 c 2
 556 602 l 1
 632 602 742 606 820 616 c 1
 823 502 l 1
 744 495 633 490 557 488 c 1
 559 431 563 354 568 283 c 1
 628 265 683 239 731 210 c 0
EndSplineSet
AlternateSubs2: "Historical Kana subtable" u1B0E7 u1B0E8 u1B0E9 u1B0EA u1B0EB u1B0EC u1B0E2
EndChar

StartChar: uni3089
Encoding: 12425 12425 197
Width: 1000
Flags: W
LayerCount: 2
Fore
SplineSet
535 742 m 0
 607 729 679 717 720 712 c 1
 692 595 l 1
 645 602 569 616 494 630 c 0
 421 646 351 662 314 672 c 1
 344 787 l 1
 389 773 462 756 535 742 c 0
611 107 m 0
 684 135 721 183 721 243 c 0
 721 306 663 352 581 352 c 0
 475 352 379 312 320 239 c 0
 303 218 293 202 285 183 c 1
 177 211 l 1
 195 305 217 492 224 611 c 1
 287 602 365 578 362 560 c 0
 358 536 342 548 333 502 c 0
 325 453 317 401 314 369 c 1
 399 433 492 460 591 460 c 0
 756 460 852 357 852 241 c 0
 852 153 818 76 735 25 c 0
 652 -26 521 -52 325 -35 c 1
 289 91 l 1
 430 71 538 79 611 107 c 0
EndSplineSet
AlternateSubs2: "Historical Kana subtable" u1B0ED u1B0EE u1B0EF u1B0F0 u1B07D
EndChar

StartChar: uni308A
Encoding: 12426 12426 198
Width: 1000
Flags: W
LayerCount: 2
Fore
SplineSet
570 156 m 0
 633 207 669 282 669 398 c 0
 669 546 621 628 542 628 c 0
 431 628 335 458 330 332 c 0
 328 306 329 275 335 230 c 1
 219 222 l 1
 213 260 207 318 207 383 c 0
 207 472 220 591 233 690 c 0
 238 726 241 765 241 791 c 1
 305 788 384 768 380 750 c 0
 375 727 359 739 349 694 c 0
 341 654 335 613 332 585 c 1
 377 660 459 741 565 741 c 0
 696 741 797 610 797 399 c 0
 797 264 757 163 684 91 c 0
 613 19 510 -25 385 -48 c 1
 314 63 l 1
 419 80 507 105 570 156 c 0
EndSplineSet
AlternateSubs2: "Historical Kana subtable" u1B0F1 u1B0F2 u1B0F3 u1B0F4 u1B0F5 u1B0F6 u1B0F7
EndChar

StartChar: uni308B
Encoding: 12427 12427 199
Width: 1000
Flags: W
LayerCount: 2
Fore
SplineSet
423 84 m 0
 439 74 463 68 492 68 c 0
 511 68 529 69 546 71 c 1
 543 102 533 127 518 146 c 0
 502 164 480 173 455 173 c 0
 419 173 397 151 397 127 c 0
 397 110 406 95 423 84 c 0
351 323 m 0
 297 289 249 241 198 182 c 1
 113 272 l 1
 179 327 293 425 349 472 c 0
 401 516 499 597 545 638 c 1
 497 637 367 631 318 628 c 0
 292 626 262 624 241 621 c 1
 237 746 l 1
 263 742 296 741 322 741 c 0
 372 741 573 745 627 749 c 0
 665 753 687 756 698 760 c 1
 759 674 l 1
 738 660 715 647 694 630 c 0
 643 594 544 509 485 461 c 1
 516 469 544 472 574 472 c 0
 734 472 855 370 855 230 c 0
 855 154 827 86 771 37 c 0
 714 -12 629 -42 515 -42 c 0
 384 -42 286 20 286 116 c 0
 286 194 354 266 454 266 c 0
 571 266 641 193 654 101 c 1
 706 129 732 173 732 232 c 0
 732 318 648 377 537 377 c 0
 465 377 406 358 351 323 c 0
EndSplineSet
AlternateSubs2: "Historical Kana subtable" u1B0F8 u1B0F9 u1B0FA u1B0FB u1B0FC u1B0FD
EndChar

StartChar: uni308C
Encoding: 12428 12428 200
Width: 1000
Flags: W
LayerCount: 2
Fore
SplineSet
188 507 m 1
 103 496 l 1
 91 619 l 1
 118 618 140 618 173 620 c 0
 200 622 242 626 282 632 c 1
 286 706 l 2
 286 734 287 763 282 793 c 1
 419 788 l 1
 414 761 405 712 398 652 c 1
 433 606 l 1
 420 589 401 557 385 532 c 1
 383 511 l 1
 458 578 566 655 657 655 c 0
 759 655 805 594 805 513 c 0
 805 413 774 272 774 173 c 0
 774 148 786 130 809 130 c 0
 844 130 888 155 931 199 c 1
 947 64 l 1
 903 23 846 -7 770 -7 c 0
 699 -7 652 45 652 137 c 0
 652 242 686 383 686 470 c 0
 686 517 662 541 622 541 c 0
 553 541 451 453 374 366 c 1
 372 289 l 2
 372 210 372 129 378 39 c 0
 379 22 382 -13 384 -35 c 1
 255 -35 l 1
 257 -13 257 21 257 36 c 2
 259 142 l 1
 261 247 l 1
 222 187 176 117 143 72 c 1
 69 176 l 1
 122 243 217 370 270 451 c 1
 274 519 l 1
 188 507 l 1
EndSplineSet
AlternateSubs2: "Historical Kana subtable" u1B0FE u1B0FF u1B100 u1B101
EndChar

StartChar: uni308D
Encoding: 12429 12429 201
Width: 1000
Flags: W
LayerCount: 2
Fore
SplineSet
345 456 m 0
 428 526 504 594 541 633 c 1
 490 631 359 625 314 622 c 0
 290 620 257 617 236 613 c 1
 234 739 l 1
 249 737 279 735 310 735 c 0
 361 735 571 738 632 742 c 0
 653 744 681 747 699 752 c 1
 762 668 l 1
 745 658 724 644 711 635 c 0
 656 594 566 520 484 457 c 1
 515 466 550 469 573 469 c 0
 739 469 852 369 852 235 c 0
 852 140 811 65 727 17 c 0
 643 -32 515 -52 341 -38 c 1
 308 87 l 1
 569 52 723 109 723 236 c 0
 723 312 654 368 547 368 c 0
 401 368 299 273 197 169 c 1
 110 264 l 1
 173 313 262 386 345 456 c 0
EndSplineSet
AlternateSubs2: "Historical Kana subtable" u1B102 u1B103 u1B104 u1B105 u1B106 u1B107
EndChar

StartChar: uni308E
Encoding: 12430 12430 202
Width: 1000
Flags: W
LayerCount: 2
Fore
SplineSet
791 80 m 0
 742 29 669 -7 569 -24 c 1
 516 80 l 1
 664 99 753 162 753 282 c 0
 753 338 708 395 624 395 c 0
 550 395 479 356 417 301 c 1
 416 247 l 2
 416 186 419 98 425 24 c 0
 425 10 428 -17 430 -35 c 1
 315 -35 l 1
 316 -18 317 10 317 22 c 2
 318 114 l 1
 320 207 l 1
 286 153 244 88 218 50 c 1
 154 141 l 1
 196 188 283 306 325 371 c 1
 328 414 l 1
 289 409 221 398 181 389 c 1
 171 490 l 1
 195 490 209 490 234 493 c 0
 257 495 297 500 335 506 c 1
 338 576 l 2
 340 597 338 632 336 646 c 1
 455 643 l 1
 450 617 443 569 436 513 c 1
 462 483 l 1
 427 434 l 1
 426 417 l 1
 497 469 577 495 640 495 c 0
 774 495 863 402 863 279 c 0
 863 198 839 131 791 80 c 0
EndSplineSet
Substitution2: "Vertical forms subtable" uni308E.vert
EndChar

StartChar: uni308E.vert
Encoding: 1114137 -1 203
Width: 1000
Flags: W
LayerCount: 2
Fore
SplineSet
863 167 m 0
 817 120 747 87 653 68 c 1
 605 170 l 1
 734 187 824 245 824 353 c 0
 824 408 782 459 707 459 c 0
 633 459 569 421 510 368 c 1
 509 322 l 2
 509 261 510 184 515 112 c 0
 515 99 518 72 520 56 c 1
 407 56 l 1
 408 72 410 99 410 110 c 2
 411 187 l 1
 413 264 l 1
 383 218 351 166 328 133 c 1
 265 222 l 1
 303 265 377 365 420 429 c 1
 423 483 l 1
 385 478 329 471 292 464 c 1
 283 562 l 1
 304 562 320 562 345 565 c 2
 430 575 l 1
 432 630 l 2
 434 650 431 686 430 701 c 1
 545 698 l 1
 540 674 534 632 528 584 c 1
 554 552 l 1
 544 540 530 517 519 498 c 1
 517 481 l 1
 586 533 660 556 721 556 c 0
 848 556 932 469 932 351 c 0
 932 276 909 214 863 167 c 0
EndSplineSet
Comment: "."
EndChar

StartChar: uni308F
Encoding: 12431 12431 204
Width: 1000
Flags: W
LayerCount: 2
Fore
SplineSet
830 111 m 0
 772 52 684 12 567 -12 c 1
 510 104 l 1
 676 129 794 198 793 348 c 0
 793 423 734 492 640 492 c 0
 540 492 453 443 374 369 c 1
 372 289 l 2
 372 210 372 129 378 39 c 0
 379 22 382 -13 384 -35 c 1
 255 -35 l 1
 257 -14 257 21 257 36 c 2
 259 142 l 1
 261 247 l 1
 222 187 176 117 143 72 c 1
 69 176 l 1
 122 243 217 370 270 451 c 1
 274 519 l 1
 228 513 156 504 103 496 c 1
 91 619 l 1
 118 618 140 618 173 620 c 0
 200 622 242 626 282 632 c 1
 286 706 l 2
 286 734 287 763 282 793 c 1
 419 788 l 1
 414 761 406 712 398 651 c 1
 433 606 l 1
 420 589 401 557 385 532 c 1
 383 506 l 1
 478 578 575 604 660 604 c 0
 805 604 918 500 919 345 c 0
 919 248 889 171 830 111 c 0
EndSplineSet
AlternateSubs2: "Historical Kana subtable" u1B108 u1B109 u1B10A u1B10B u1B10C
EndChar

StartChar: uni3090
Encoding: 12432 12432 205
Width: 1000
Flags: W
LayerCount: 2
Fore
SplineSet
343 277 m 0
 365 327 384 378 396 413 c 2
 401 430 l 1
 336 398 286 350 252 301 c 0
 219 252 201 203 201 170 c 0
 201 143 215 127 229 127 c 0
 244 127 259 132 276 153 c 0
 297 181 321 228 343 277 c 0
796 483 m 0
 853 429 885 353 885 263 c 0
 885 102 799 -40 609 -40 c 0
 509 -40 435 11 435 103 c 0
 435 182 500 245 586 245 c 0
 663 245 715 209 743 154 c 1
 759 187 768 226 768 266 c 0
 768 384 688 466 560 466 c 1
 524 464 l 1
 482 338 l 2
 446 231 392 106 340 46 c 0
 311 12 274 -6 214 -6 c 0
 154 -6 95 43 95 136 c 0
 95 228 132 319 194 393 c 0
 255 467 341 526 440 552 c 1
 451 591 461 627 468 655 c 1
 417 654 289 644 223 638 c 1
 216 757 l 1
 242 754 268 752 284 753 c 0
 320 751 424 753 481 758 c 0
 502 761 526 765 545 770 c 1
 580 743 624 705 621 699 c 0
 616 690 607 700 598 683 c 0
 591 671 586 657 581 643 c 2
 556 568 l 1
 561 568 l 2
 658 568 739 537 796 483 c 0
550 78 m 0
 562 69 578 64 598 64 c 0
 624 64 647 69 667 78 c 1
 662 107 650 127 635 141 c 0
 621 154 604 160 586 160 c 0
 557 160 532 142 532 113 c 0
 532 99 539 87 550 78 c 0
EndSplineSet
AlternateSubs2: "Historical Kana subtable" u1B10D u1B10E u1B10F u1B110 u1B111
EndChar

StartChar: uni3091
Encoding: 12433 12433 206
Width: 1000
Flags: W
LayerCount: 2
Fore
SplineSet
200 147 m 0
 247 193 295 239 336 274 c 1
 309 295 294 322 294 357 c 0
 294 423 368 468 449 468 c 0
 540 468 593 425 593 371 c 0
 593 357 589 342 583 330 c 1
 649 345 695 382 695 430 c 0
 695 486 628 530 541 530 c 0
 488 530 422 518 375 495 c 0
 325 471 263 428 194 366 c 1
 122 455 l 1
 168 485 234 526 300 567 c 0
 367 607 433 648 481 675 c 1
 445 674 308 669 250 662 c 1
 245 761 l 1
 261 760 303 758 329 758 c 0
 360 758 552 761 598 767 c 0
 624 769 652 774 665 778 c 1
 728 695 l 1
 677 680 581 638 516 601 c 1
 539 604 564 605 585 605 c 0
 722 603 813 527 813 432 c 0
 813 290 669 226 513 226 c 0
 491 226 468 228 447 231 c 1
 379 176 l 1
 423 177 465 156 495 99 c 1
 541 163 608 201 678 201 c 0
 790 201 872 115 920 0 c 1
 800 -46 l 1
 770 51 724 100 667 100 c 0
 619 100 580 61 558 4 c 0
 555 -6 549 -24 549 -38 c 1
 428 -37 l 1
 426 -19 425 -7 421 7 c 0
 405 66 370 95 329 95 c 0
 270 95 221 26 174 -46 c 1
 71 14 l 1
 108 53 153 100 200 147 c 0
405 392 m 0
 395 387 388 378 388 367 c 0
 388 358 392 348 403 340 c 0
 414 334 432 328 460 325 c 1
 484 340 492 355 492 369 c 0
 492 388 472 401 441 401 c 0
 428 401 415 398 405 392 c 0
EndSplineSet
AlternateSubs2: "Historical Kana subtable" u1B112 u1B113 u1B114 u1B115
EndChar

StartChar: uni3092
Encoding: 12434 12434 207
Width: 1000
Flags: W
LayerCount: 2
Fore
SplineSet
347 271 m 0
 388 313 443 346 496 375 c 1
 482 399 457 408 431 408 c 0
 379 408 320 377 285 341 c 0
 257 313 229 278 197 236 c 1
 97 313 l 1
 195 406 261 491 304 578 c 1
 292 578 l 2
 254 578 185 579 133 583 c 1
 133 696 l 1
 181 688 251 684 299 684 c 2
 344 684 l 1
 354 722 361 760 363 794 c 1
 425 789 498 775 496 767 c 0
 494 756 482 763 478 742 c 0
 475 726 470 708 464 688 c 1
 553 693 647 701 729 716 c 1
 728 604 l 1
 639 591 523 583 422 580 c 1
 406 545 387 510 368 482 c 1
 393 494 444 502 475 502 c 0
 532 502 579 477 600 428 c 1
 649 451 688 467 727 484 c 0
 763 501 796 516 831 534 c 1
 878 423 l 1
 848 414 798 395 766 383 c 0
 724 365 670 344 613 317 c 1
 615 233 l 1
 617 148 l 1
 504 148 l 1
 507 177 508 223 508 265 c 1
 438 224 400 187 400 139 c 0
 400 86 445 72 537 72 c 0
 617 72 721 82 804 98 c 1
 800 -25 l 1
 738 -34 622 -42 534 -42 c 0
 386 -42 277 -5 277 119 c 0
 277 181 305 230 347 271 c 0
EndSplineSet
AlternateSubs2: "Historical Kana subtable" u1B116 u1B117 u1B118 u1B119 u1B11A u1B11B u1B11C u1B005
EndChar

StartChar: uni3093
Encoding: 12435 12435 208
Width: 1000
Flags: W
LayerCount: 2
Fore
SplineSet
244 384 m 0
 307 518 368 639 393 684 c 0
 405 710 423 742 439 782 c 1
 506 754 l 1
 572 727 l 1
 563 714 553 698 542 682 c 0
 496 613 430 490 383 406 c 1
 418 426 456 434 492 434 c 0
 562 434 604 389 608 310 c 0
 610 266 607 190 612 149 c 0
 616 112 642 98 673 98 c 0
 755 98 805 205 832 324 c 1
 882 282 943 217 935 196 c 0
 924 168 911 185 890 130 c 1
 838 28 762 -34 653 -34 c 0
 549 -34 500 29 496 99 c 0
 492 150 493 229 491 268 c 0
 488 302 469 322 435 322 c 0
 371 322 319 255 285 177 c 0
 260 122 227 14 213 -37 c 1
 81 9 l 1
 116 105 181 251 244 384 c 0
EndSplineSet
AlternateSubs2: "Historical Kana subtable" u1B11D u1B11E
EndChar

StartChar: uni3093_uni3099.ccmp
Encoding: 1114138 -1 209
Width: 1000
Flags: W
LayerCount: 2
Fore
SplineSet
247 390 m 0
 312 527 374 651 398 697 c 0
 411 722 429 753 445 794 c 1
 511 766 l 1
 578 739 l 1
 569 726 558 709 548 694 c 0
 502 625 430 490 383 406 c 1
 418 426 456 434 492 434 c 0
 562 434 604 389 608 310 c 0
 610 266 607 190 612 149 c 0
 616 112 642 98 673 98 c 0
 755 98 805 205 832 324 c 1
 882 282 943 217 935 196 c 0
 924 168 911 185 890 130 c 1
 838 28 762 -34 653 -34 c 0
 549 -34 500 29 496 99 c 0
 492 150 493 229 491 268 c 0
 488 302 469 322 435 322 c 0
 371 322 319 255 285 177 c 0
 260 122 227 14 213 -37 c 1
 81 9 l 1
 116 105 183 254 247 390 c 0
794 629 m 0
 809 601 823 574 832 556 c 1
 755 523 l 1
 745 543 731 570 717 597 c 0
 703 625 689 651 676 671 c 1
 751 701 l 1
 764 684 779 656 794 629 c 0
911 676 m 0
 926 648 941 621 950 603 c 1
 874 570 l 1
 864 590 850 617 835 644 c 0
 821 671 806 697 792 715 c 1
 868 748 l 1
 881 730 896 703 911 676 c 0
EndSplineSet
Ligature2: "Dakuten and handakuten subtable" uni3093 uni3099
EndChar

StartChar: uni3094
Encoding: 12436 12436 210
Width: 1000
Flags: W
LayerCount: 2
Fore
SplineSet
653 76 m 0
 574 14 462 -28 331 -46 c 1
 263 74 l 1
 497 100 647 178 647 329 c 0
 647 392 599 444 510 444 c 0
 407 444 314 411 266 397 c 0
 238 388 202 374 175 363 c 1
 157 432 l 1
 139 501 l 1
 170 504 211 510 242 517 c 0
 311 532 416 560 525 560 c 0
 675 560 779 474 779 324 c 0
 779 222 733 138 653 76 c 0
912 670 m 0
 926 646 939 622 947 605 c 1
 872 573 l 1
 863 593 850 617 837 641 c 0
 823 664 809 687 796 705 c 1
 870 736 l 1
 883 718 898 694 912 670 c 0
493 759 m 0
 572 752 651 747 700 746 c 1
 687 663 l 1
 759 693 l 1
 783 658 817 597 834 561 c 1
 759 529 l 1
 740 567 712 623 686 660 c 1
 681 628 l 1
 627 632 548 639 470 648 c 0
 391 655 313 665 258 674 c 1
 277 790 l 1
 332 778 413 767 493 759 c 0
EndSplineSet
EndChar

StartChar: uni3095
Encoding: 12437 12437 211
Width: 1000
Flags: W
LayerCount: 2
Fore
SplineSet
834 401 m 0
 863 342 888 282 897 244 c 1
 792 194 l 1
 783 241 761 302 735 361 c 0
 710 418 679 473 651 506 c 1
 750 550 l 1
 774 518 806 460 834 401 c 0
264 179 m 0
 291 242 312 303 326 354 c 1
 253 345 l 2
 232 341 204 338 184 333 c 1
 170 451 l 1
 201 449 225 449 251 450 c 0
 273 451 308 454 349 458 c 1
 359 520 365 577 364 620 c 1
 427 613 501 599 500 594 c 0
 498 586 487 593 484 579 c 0
 482 570 480 561 478 554 c 2
 461 467 l 1
 488 469 511 470 526 470 c 0
 608 470 666 419 666 320 c 0
 666 238 656 102 623 34 c 0
 601 -14 563 -46 498 -46 c 0
 459 -46 418 -39 396 -35 c 1
 378 79 l 1
 413 71 452 64 475 64 c 0
 493 64 513 71 525 91 c 0
 545 127 557 239 557 300 c 0
 557 361 535 368 490 368 c 2
 439 365 l 1
 424 306 400 227 372 151 c 0
 344 74 312 1 279 -50 c 1
 165 -6 l 1
 205 51 238 116 264 179 c 0
EndSplineSet
Substitution2: "Vertical forms subtable" uni3095.vert
EndChar

StartChar: uni3095.vert
Encoding: 1114139 -1 212
Width: 1000
Flags: W
LayerCount: 2
Fore
SplineSet
886 505 m 0
 911 452 932 397 942 359 c 1
 839 311 l 1
 829 357 810 413 789 465 c 0
 766 518 741 568 715 599 c 1
 812 639 l 1
 835 609 862 558 886 505 c 0
352 297 m 0
 377 357 395 415 408 464 c 1
 337 454 l 2
 319 451 289 446 270 442 c 1
 258 557 l 1
 287 555 310 555 336 556 c 0
 356 557 391 560 430 563 c 1
 440 626 444 679 444 721 c 1
 567 708 l 1
 563 690 557 667 555 653 c 2
 539 573 l 1
 563 575 584 576 599 576 c 0
 677 576 730 528 730 432 c 0
 730 352 722 227 694 159 c 0
 673 113 638 81 578 81 c 0
 539 81 502 88 480 92 c 1
 462 203 l 1
 496 196 529 189 550 189 c 0
 569 189 584 195 594 215 c 0
 614 250 625 350 625 409 c 0
 625 467 605 478 564 478 c 2
 517 475 l 1
 503 417 481 343 455 270 c 0
 430 198 399 128 368 79 c 1
 258 122 l 1
 296 177 327 238 352 297 c 0
EndSplineSet
Comment: "."
EndChar

StartChar: uni3096
Encoding: 12438 12438 213
Width: 1000
Flags: W
LayerCount: 2
Fore
SplineSet
206 394 m 0
 211 449 217 498 223 534 c 0
 226 558 227 583 227 602 c 1
 289 595 360 581 358 574 c 0
 355 565 345 572 340 556 c 0
 337 544 334 533 332 525 c 0
 322 482 311 422 304 360 c 0
 298 298 296 236 303 189 c 1
 312 212 327 249 338 277 c 1
 365 260 406 223 400 204 c 0
 393 179 378 193 363 143 c 0
 352 103 343 66 337 42 c 0
 335 29 334 13 334 5 c 0
 334 -3 335 -20 335 -31 c 1
 243 -40 l 1
 227 6 197 117 197 213 c 0
 197 277 201 339 206 394 c 0
615 162 m 0
 627 205 631 258 631 321 c 2
 631 346 l 1
 539 345 l 2
 505 345 462 347 426 350 c 1
 425 458 l 1
 451 454 500 447 543 447 c 2
 631 449 l 1
 631 482 630 515 627 541 c 0
 627 556 623 588 619 601 c 1
 740 601 l 1
 737 582 736 560 736 544 c 2
 736 456 l 1
 780 460 821 465 852 471 c 1
 852 359 l 1
 821 356 782 353 737 350 c 1
 737 320 l 2
 737 227 731 150 707 85 c 0
 682 21 638 -34 561 -82 c 1
 466 -5 l 1
 495 7 531 31 554 54 c 0
 584 83 603 118 615 162 c 0
EndSplineSet
Substitution2: "Vertical forms subtable" uni3096.vert
EndChar

StartChar: uni3096.vert
Encoding: 1114140 -1 214
Width: 1000
Flags: W
LayerCount: 2
Fore
SplineSet
305 519 m 0
 310 569 316 613 321 648 c 0
 324 671 325 695 325 713 c 1
 445 701 l 1
 438 682 430 654 427 639 c 0
 418 598 407 542 400 486 c 0
 394 429 391 372 398 326 c 1
 406 349 418 376 429 403 c 1
 482 370 l 1
 461 306 441 232 431 191 c 0
 429 178 427 162 427 154 c 0
 427 147 428 127 429 116 c 1
 340 107 l 1
 323 153 297 254 297 349 c 0
 297 412 300 469 305 519 c 0
688 297 m 0
 698 338 701 387 699 444 c 2
 699 465 l 1
 621 464 l 2
 587 464 546 466 511 469 c 1
 509 574 l 1
 536 570 583 564 624 564 c 2
 699 566 l 1
 698 603 698 636 696 654 c 0
 696 673 692 703 689 714 c 1
 806 714 l 1
 804 696 803 673 803 657 c 2
 803 573 l 1
 842 576 879 581 909 586 c 1
 909 478 l 1
 880 475 844 472 803 469 c 1
 803 443 l 2
 803 362 800 290 778 227 c 0
 757 165 716 111 641 64 c 1
 547 138 l 1
 576 151 608 172 630 194 c 0
 660 222 678 256 688 297 c 0
EndSplineSet
Comment: "."
EndChar

StartChar: uni3099
Encoding: 12441 12441 215
Width: 0
GlyphClass: 2
Flags: W
LayerCount: 2
Fore
SplineSet
-148 790 m 0
 -133 766 -120 741 -110 721 c 1
 -185 687 l 1
 -198 715 -210 738 -222 760 c 0
 -235 783 -248 804 -263 826 c 1
 -189 856 l 1
 -177 839 -162 815 -148 790 c 0
-35 837 m 0
 -20 813 -6 789 5 769 c 1
 -70 733 l 1
 -84 760 -96 783 -109 805 c 0
 -122 826 -136 847 -152 868 c 1
 -79 902 l 1
 -66 885 -50 861 -35 837 c 0
EndSplineSet
EndChar

StartChar: uni309A
Encoding: 12442 12442 216
Width: 0
GlyphClass: 2
Flags: W
LayerCount: 2
Fore
SplineSet
-72 816 m 0
 -83 826 -97 833 -113 833 c 0
 -129 833 -144 826 -154 816 c 0
 -165 805 -171 790 -171 774 c 0
 -171 743 -145 717 -113 717 c 0
 -81 717 -55 743 -55 774 c 0
 -55 790 -62 805 -72 816 c 0
-198 860 m 0
 -176 882 -146 895 -113 895 c 0
 -80 895 -50 882 -28 860 c 0
 -7 838 7 808 7 774 c 0
 7 709 -47 655 -113 655 c 0
 -179 655 -233 709 -233 774 c 0
 -233 808 -220 838 -198 860 c 0
EndSplineSet
EndChar

StartChar: uni309B
Encoding: 12443 12443 217
Width: 1000
Flags: W
LayerCount: 2
Fore
SplineSet
147 718 m 0
 165 686 183 655 193 635 c 1
 104 598 l 1
 93 620 76 652 59 684 c 0
 42 715 24 746 10 766 c 1
 96 800 l 1
 110 781 129 749 147 718 c 0
191 734 m 0
 174 765 155 796 140 815 c 1
 227 852 l 1
 241 832 260 801 279 769 c 0
 297 738 315 707 325 687 c 1
 237 650 l 1
 226 672 209 704 191 734 c 0
EndSplineSet
EndChar

StartChar: uni309C
Encoding: 12444 12444 218
Width: 1000
Flags: W
LayerCount: 2
Fore
SplineSet
231 624 m 0
 209 603 180 589 147 589 c 0
 115 589 85 603 63 624 c 0
 42 646 28 676 28 708 c 0
 28 773 82 827 147 827 c 0
 212 827 266 773 266 708 c 0
 266 676 253 646 231 624 c 0
106 666 m 0
 116 655 131 648 147 648 c 0
 163 648 178 655 189 666 c 0
 199 677 206 692 206 708 c 0
 206 740 179 766 147 766 c 0
 115 766 88 740 88 708 c 0
 88 692 95 677 106 666 c 0
EndSplineSet
EndChar

StartChar: uni309D
Encoding: 12445 12445 219
Width: 1000
Flags: W
LayerCount: 2
Fore
SplineSet
470 412 m 0
 415 473 354 534 309 574 c 1
 414 651 l 1
 472 598 543 523 608 451 c 0
 673 379 731 309 761 266 c 1
 730 167 l 1
 653 140 499 76 430 48 c 1
 370 166 l 1
 429 188 544 235 598 256 c 1
 575 293 525 352 470 412 c 0
EndSplineSet
EndChar

StartChar: uni309E
Encoding: 12446 12446 220
Width: 1000
Flags: W
LayerCount: 2
Fore
SplineSet
636 631 m 0
 652 603 667 576 676 557 c 1
 594 523 l 1
 584 543 569 571 555 599 c 0
 539 626 524 653 511 672 c 1
 590 704 l 1
 603 686 620 659 636 631 c 0
763 672 m 0
 779 645 795 618 804 600 c 1
 724 564 l 1
 712 585 697 612 682 640 c 0
 667 667 651 694 637 712 c 1
 718 746 l 1
 731 727 747 700 763 672 c 0
433 393 m 0
 378 453 318 514 273 554 c 1
 377 632 l 1
 435 578 508 503 572 431 c 0
 637 359 696 289 726 245 c 1
 695 146 l 1
 618 120 463 57 394 28 c 1
 335 146 l 1
 392 168 508 216 562 237 c 1
 538 274 488 333 433 393 c 0
EndSplineSet
EndChar

StartChar: uni309F
Encoding: 12447 12447 221
Width: 1000
Flags: W
LayerCount: 2
Fore
SplineSet
414 530 m 0
 443 590 468 649 494 720 c 0
 506 748 518 796 521 825 c 1
 586 803 l 1
 653 781 l 1
 641 758 619 710 611 688 c 2
 596 651 l 1
 697 632 776 610 858 579 c 1
 812 472 l 1
 738 502 637 531 551 548 c 1
 518 479 485 416 458 372 c 1
 486 392 534 414 587 414 c 0
 729 414 771 279 747 171 c 0
 717 30 606 -70 484 -70 c 0
 430 -70 376 -50 331 -13 c 1
 361 107 l 1
 398 74 435 51 482 51 c 0
 546 51 612 98 632 185 c 0
 650 269 602 310 540 310 c 0
 465 310 408 253 371 205 c 1
 330 143 260 30 207 -37 c 1
 90 25 l 1
 171 119 250 235 306 331 c 0
 352 408 385 469 414 530 c 0
EndSplineSet
EndChar

StartChar: uni30A1
Encoding: 12449 12449 222
Width: 1000
Flags: W
LayerCount: 2
Fore
SplineSet
488 440 m 0
 398 440 308 440 284 440 c 0
 253 440 221 438 186 434 c 1
 186 558 l 1
 215 554 253 551 284 551 c 0
 307 551 407 551 505 551 c 0
 603 551 700 551 720 551 c 0
 741 551 781 553 796 557 c 1
 831 525 870 484 867 480 c 0
 863 475 858 483 850 473 c 0
 845 466 840 460 837 455 c 0
 805 401 717 280 650 227 c 1
 556 294 l 1
 610 332 669 400 692 440 c 1
 669 440 579 440 488 440 c 0
397 166 m 0
 415 212 420 264 420 324 c 0
 420 347 417 371 414 392 c 1
 543 392 l 1
 540 303 539 216 511 136 c 0
 483 56 428 -18 318 -79 c 1
 218 2 l 1
 242 12 266 24 294 44 c 0
 347 81 379 121 397 166 c 0
EndSplineSet
Substitution2: "Vertical forms subtable" uni30A1.vert
EndChar

StartChar: uni30A1.vert
Encoding: 1114141 -1 223
Width: 1000
Flags: W
LayerCount: 2
Fore
SplineSet
582 548 m 0
 503 549 423 549 400 549 c 0
 369 549 338 547 304 544 c 1
 304 665 l 1
 333 660 369 657 400 657 c 0
 424 657 510 657 596 656 c 0
 681 656 766 656 785 656 c 0
 806 656 846 657 860 662 c 1
 929 599 l 1
 919 589 906 571 900 561 c 0
 870 510 791 400 723 348 c 1
 635 418 l 1
 688 453 740 509 763 547 c 1
 741 547 661 548 582 548 c 0
498 286 m 0
 513 329 515 377 515 432 c 0
 515 456 512 479 508 500 c 1
 631 500 l 1
 630 411 630 326 604 250 c 0
 580 175 529 106 426 51 c 1
 329 131 l 1
 353 142 375 152 403 172 c 0
 455 206 483 244 498 286 c 0
EndSplineSet
Comment: "."
EndChar

StartChar: uni30A2
Encoding: 12450 12450 224
Width: 1000
Flags: W
LayerCount: 2
Fore
SplineSet
496 609 m 0
 388 609 280 609 251 609 c 0
 211 609 180 606 136 602 c 1
 136 736 l 1
 172 730 211 726 251 726 c 0
 280 726 395 726 508 726 c 0
 620 726 733 726 758 726 c 0
 784 726 836 729 853 735 c 1
 890 699 935 653 931 648 c 0
 926 642 918 651 909 639 c 0
 902 630 896 621 891 614 c 0
 847 539 758 418 665 351 c 1
 568 431 l 1
 643 478 716 562 741 609 c 1
 713 609 605 609 496 609 c 0
229 5 m 1
 174 51 l 1
 204 62 238 78 273 104 c 0
 392 189 414 290 414 448 c 0
 414 478 413 504 408 534 c 1
 476 534 l 1
 544 534 l 1
 544 296 539 100 284 -40 c 1
 229 5 l 1
EndSplineSet
EndChar

StartChar: uni30A2_uni3099.ccmp
Encoding: 1114142 -1 225
Width: 1000
Flags: W
LayerCount: 2
Fore
SplineSet
496 589 m 0
 388 589 280 589 251 589 c 0
 211 589 180 586 136 582 c 1
 136 716 l 1
 172 711 211 706 251 706 c 0
 280 706 395 706 508 706 c 0
 620 706 733 706 758 706 c 0
 784 706 836 710 853 715 c 1
 890 679 935 633 931 628 c 0
 926 622 918 631 909 619 c 0
 902 610 896 601 891 594 c 0
 847 519 758 398 665 331 c 1
 568 410 l 1
 643 458 716 542 741 589 c 1
 713 589 605 589 496 589 c 0
229 -15 m 1
 174 31 l 1
 204 42 238 58 273 84 c 0
 392 169 414 270 414 428 c 0
 414 458 413 483 408 514 c 1
 476 514 l 1
 544 514 l 1
 544 276 539 80 284 -60 c 1
 229 -15 l 1
702 761 m 0
 693 779 683 796 671 814 c 1
 756 837 l 1
 766 820 777 802 788 784 c 0
 798 767 807 748 816 731 c 1
 727 708 l 1
 720 727 711 744 702 761 c 0
926 794 m 0
 937 776 947 757 955 739 c 1
 870 715 l 1
 862 735 853 753 842 771 c 0
 833 790 821 808 810 826 c 1
 894 848 l 1
 905 832 916 813 926 794 c 0
EndSplineSet
LCarets2: 1 0
Ligature2: "Dakuten and handakuten subtable" uni30A2 uni3099
EndChar

StartChar: uni30A3
Encoding: 12451 12451 226
Width: 1000
Flags: W
LayerCount: 2
Fore
SplineSet
584 197 m 1
 584 33 l 2
 584 0 585 -51 590 -70 c 1
 521 -70 l 1
 451 -70 l 1
 453 -51 456 0 456 33 c 2
 456 287 l 1
 373 244 268 200 186 174 c 1
 131 288 l 1
 253 314 393 379 467 425 c 0
 558 482 653 568 701 630 c 1
 747 583 798 515 787 504 c 0
 772 489 764 508 735 479 c 0
 692 441 638 399 584 362 c 1
 584 197 l 1
EndSplineSet
Substitution2: "Vertical forms subtable" uni30A3.vert
EndChar

StartChar: uni30A3.vert
Encoding: 1114143 -1 227
Width: 1000
Flags: W
LayerCount: 2
Fore
SplineSet
571 282 m 1
 571 399 l 1
 495 361 399 320 322 296 c 1
 271 400 l 1
 384 426 512 484 582 527 c 0
 666 581 753 658 799 717 c 1
 884 630 l 1
 843 584 768 521 691 470 c 1
 691 318 l 1
 691 165 l 2
 691 134 691 86 696 69 c 1
 567 69 l 1
 569 86 571 134 571 165 c 2
 571 282 l 1
EndSplineSet
Comment: "."
EndChar

StartChar: uni30A4
Encoding: 12452 12452 228
Width: 1000
Flags: W
LayerCount: 2
Fore
SplineSet
613 291 m 1
 613 98 l 2
 613 55 615 -4 621 -28 c 1
 547 -28 l 1
 473 -28 l 1
 476 -5 479 55 479 98 c 2
 479 405 l 1
 383 353 263 301 148 266 c 1
 88 387 l 1
 257 432 395 494 499 559 c 0
 596 621 703 717 764 793 c 1
 866 694 l 1
 794 622 704 547 613 485 c 1
 613 291 l 1
EndSplineSet
EndChar

StartChar: uni30A4_uni3099.ccmp
Encoding: 1114144 -1 229
Width: 1000
Flags: W
LayerCount: 2
Fore
SplineSet
819 465 m 0
 833 441 846 416 855 397 c 1
 784 365 l 1
 773 391 761 414 749 435 c 0
 738 458 726 479 711 500 c 1
 779 530 l 1
 791 513 806 489 819 465 c 0
926 510 m 0
 941 487 955 463 964 444 c 1
 894 410 l 1
 882 435 869 458 856 479 c 0
 844 500 831 520 816 541 c 1
 884 573 l 1
 896 556 911 533 926 510 c 0
613 291 m 1
 613 98 l 2
 613 55 615 -4 621 -28 c 1
 547 -28 l 1
 473 -28 l 1
 476 -5 479 55 479 98 c 2
 479 405 l 1
 383 353 263 301 148 266 c 1
 88 387 l 1
 257 432 395 494 499 559 c 0
 596 621 703 717 764 793 c 1
 866 694 l 1
 794 622 704 547 613 485 c 1
 613 291 l 1
EndSplineSet
Ligature2: "Dakuten and handakuten subtable" uni30A4 uni3099
EndChar

StartChar: uni30A5
Encoding: 12453 12453 230
Width: 1000
Flags: W
LayerCount: 2
Fore
SplineSet
589 395 m 1
 494 395 l 1
 304 395 l 1
 304 369 304 305 304 283 c 0
 304 266 305 241 307 225 c 1
 188 225 l 1
 190 244 192 268 192 290 c 0
 192 314 192 408 192 435 c 0
 192 454 188 492 186 511 c 1
 211 508 247 506 276 506 c 2
 437 506 l 1
 437 557 l 2
 437 578 436 596 430 628 c 1
 562 628 l 1
 558 596 557 578 557 557 c 2
 557 506 l 1
 688 506 l 2
 720 506 741 508 754 513 c 1
 795 491 847 461 845 455 c 0
 843 446 831 452 827 436 c 0
 824 423 822 411 821 404 c 0
 811 336 779 230 742 162 c 0
 680 48 556 -38 413 -73 c 1
 320 34 l 1
 354 41 408 55 434 66 c 0
 500 91 569 132 615 197 c 0
 650 250 679 322 685 395 c 1
 589 395 l 1
EndSplineSet
Substitution2: "Vertical forms subtable" uni30A5.vert
EndChar

StartChar: uni30A5.vert
Encoding: 1114145 -1 231
Width: 1000
Flags: W
LayerCount: 2
Fore
SplineSet
676 480 m 1
 592 480 l 1
 424 480 l 1
 424 454 424 401 424 379 c 0
 424 362 425 338 426 321 c 1
 309 321 l 1
 310 341 312 366 312 386 c 0
 312 410 312 491 312 518 c 0
 312 536 309 574 307 592 c 1
 332 590 367 588 396 588 c 2
 538 588 l 1
 538 642 l 2
 538 663 537 680 531 712 c 1
 660 712 l 1
 655 680 655 663 655 642 c 2
 655 588 l 1
 765 588 l 2
 796 588 817 592 830 597 c 1
 909 550 l 1
 902 532 894 501 891 486 c 0
 880 419 854 335 815 268 c 0
 752 158 651 84 518 49 c 1
 428 155 l 1
 462 161 509 173 534 183 c 0
 591 205 654 242 695 302 c 0
 730 354 753 407 760 480 c 1
 676 480 l 1
EndSplineSet
Comment: "."
EndChar

StartChar: uni30A6
Encoding: 12454 12454 232
Width: 1000
Flags: W
LayerCount: 2
Fore
SplineSet
610 523 m 1
 493 523 l 1
 260 523 l 1
 260 489 260 412 260 383 c 0
 260 361 261 331 263 312 c 1
 133 312 l 1
 136 336 138 366 138 392 c 0
 138 423 138 523 138 558 c 0
 138 579 137 618 133 641 c 1
 165 637 194 636 229 636 c 2
 430 636 l 1
 430 710 l 2
 430 737 430 757 423 798 c 1
 568 798 l 1
 563 757 561 737 561 710 c 2
 561 636 l 1
 725 636 l 2
 764 636 787 641 803 647 c 1
 843 621 894 588 892 580 c 0
 890 570 879 576 874 557 c 0
 870 543 868 529 866 519 c 0
 850 427 824 335 778 247 c 0
 703 105 562 3 395 -41 c 1
 297 74 l 1
 339 82 391 97 430 112 c 0
 508 142 590 198 643 276 c 0
 691 346 715 437 727 523 c 1
 610 523 l 1
EndSplineSet
EndChar

StartChar: uni30A7
Encoding: 12455 12455 233
Width: 1000
Flags: W
LayerCount: 2
Fore
SplineSet
504 530 m 1
 720 530 l 2
 743 530 771 531 793 534 c 1
 793 413 l 1
 770 415 742 417 720 417 c 2
 559 417 l 1
 559 108 l 1
 764 108 l 2
 790 108 816 112 835 114 c 1
 835 -12 l 1
 815 -8 780 -7 764 -7 c 2
 504 -7 l 1
 244 -7 l 2
 222 -7 193 -8 167 -12 c 1
 167 114 l 1
 192 111 221 108 244 108 c 2
 436 108 l 1
 436 417 l 1
 289 417 l 2
 270 417 236 415 215 413 c 1
 215 534 l 1
 236 530 269 530 289 530 c 2
 504 530 l 1
EndSplineSet
Substitution2: "Vertical forms subtable" uni30A7.vert
EndChar

StartChar: uni30A7.vert
Encoding: 1114146 -1 234
Width: 1000
Flags: W
LayerCount: 2
Fore
SplineSet
601 652 m 1
 800 652 l 2
 823 652 850 654 872 657 c 1
 872 539 l 1
 849 541 821 542 800 542 c 2
 656 542 l 1
 656 270 l 1
 843 270 l 2
 869 270 894 272 914 275 c 1
 914 152 l 1
 894 155 860 156 843 156 c 2
 601 156 l 1
 358 156 l 2
 336 156 307 155 283 152 c 1
 283 275 l 1
 306 272 336 270 358 270 c 2
 536 270 l 1
 536 542 l 1
 402 542 l 2
 383 542 349 541 330 539 c 1
 330 657 l 1
 350 654 383 652 402 652 c 2
 601 652 l 1
EndSplineSet
Comment: "."
EndChar

StartChar: uni30A8
Encoding: 12456 12456 235
Width: 1000
Flags: W
LayerCount: 2
Fore
SplineSet
505 678 m 1
 761 678 l 2
 790 678 822 681 850 684 c 1
 850 553 l 1
 821 554 789 556 761 556 c 2
 563 556 l 1
 563 165 l 1
 812 165 l 2
 846 165 876 169 900 172 c 1
 900 33 l 1
 873 37 834 38 812 38 c 2
 502 38 l 1
 193 38 l 2
 164 38 132 37 100 33 c 1
 100 172 l 1
 130 168 163 165 193 165 c 2
 431 165 l 1
 431 556 l 1
 250 556 l 2
 225 556 184 554 161 553 c 1
 161 684 l 1
 185 680 224 678 250 678 c 2
 505 678 l 1
EndSplineSet
EndChar

StartChar: uni30A8_uni3099.ccmp
Encoding: 1114147 -1 236
Width: 1000
Flags: W
LayerCount: 2
Fore
SplineSet
802 754 m 0
 815 732 828 711 837 692 c 1
 760 659 l 1
 749 686 739 706 727 725 c 0
 716 745 705 763 690 784 c 1
 763 813 l 1
 775 796 789 775 802 754 c 0
925 785 m 0
 939 764 952 742 962 723 c 1
 885 689 l 1
 873 715 862 734 851 753 c 0
 839 771 827 790 811 810 c 1
 884 842 l 1
 896 827 911 806 925 785 c 0
505 651 m 1
 761 651 l 2
 790 651 822 654 850 657 c 1
 850 526 l 1
 821 529 789 530 761 530 c 2
 563 530 l 1
 563 138 l 1
 812 138 l 2
 846 138 876 143 900 146 c 1
 900 6 l 1
 873 10 834 11 812 11 c 2
 502 11 l 1
 193 11 l 2
 164 11 132 10 100 6 c 1
 100 146 l 1
 130 141 163 138 193 138 c 2
 431 138 l 1
 431 530 l 1
 250 530 l 2
 225 530 184 529 161 526 c 1
 161 657 l 1
 185 654 224 651 250 651 c 2
 505 651 l 1
EndSplineSet
Ligature2: "Dakuten and handakuten subtable" uni30A8 uni3099
EndChar

StartChar: uni30A9
Encoding: 12457 12457 237
Width: 1000
Flags: W
LayerCount: 2
Fore
SplineSet
666 193 m 1
 669 22 l 2
 670 -28 633 -63 578 -63 c 0
 533 -63 475 -61 432 -58 c 1
 425 51 l 1
 463 46 508 43 533 43 c 0
 551 43 557 53 557 73 c 2
 555 263 l 1
 490 177 363 70 252 10 c 1
 170 106 l 1
 304 169 434 275 499 364 c 1
 298 364 l 2
 271 364 237 362 210 361 c 1
 210 479 l 1
 232 476 271 473 295 473 c 2
 423 473 l 1
 551 473 l 1
 549 531 l 2
 548 554 545 585 541 611 c 1
 663 611 l 1
 660 588 659 557 659 531 c 2
 660 473 l 1
 771 473 l 2
 795 473 831 477 848 479 c 1
 848 362 l 1
 825 363 796 364 775 364 c 2
 663 364 l 1
 666 193 l 1
EndSplineSet
Substitution2: "Vertical forms subtable" uni30A9.vert
EndChar

StartChar: uni30A9.vert
Encoding: 1114148 -1 238
Width: 1000
Flags: W
LayerCount: 2
Fore
SplineSet
511 471 m 1
 423 471 l 2
 396 471 362 469 336 467 c 1
 336 584 l 1
 357 580 395 579 419 579 c 2
 535 579 l 1
 650 579 l 1
 649 626 l 2
 648 649 645 679 641 704 c 1
 760 704 l 1
 757 681 756 651 756 626 c 2
 757 579 l 1
 844 579 l 2
 868 579 903 581 919 584 c 1
 919 469 l 1
 898 470 868 471 849 471 c 2
 759 471 l 1
 762 368 766 250 767 153 c 0
 768 104 742 70 688 70 c 0
 642 70 588 73 547 76 c 1
 540 182 l 1
 577 177 607 174 633 174 c 0
 649 174 657 184 657 204 c 2
 655 374 l 1
 592 293 478 195 371 138 c 1
 290 231 l 1
 418 292 536 387 599 471 c 1
 511 471 l 1
EndSplineSet
Comment: "."
EndChar

StartChar: uni30AA
Encoding: 12458 12458 239
Width: 1000
Flags: W
LayerCount: 2
Fore
SplineSet
675 285 m 1
 680 70 l 2
 680 8 646 -27 574 -27 c 0
 517 -27 464 -25 411 -22 c 1
 400 103 l 1
 443 96 493 92 525 92 c 0
 549 92 558 104 558 132 c 2
 556 392 l 1
 474 281 321 147 173 67 c 1
 86 167 l 1
 269 255 425 390 500 500 c 1
 243 500 l 2
 210 500 169 498 136 496 c 1
 136 624 l 1
 163 620 209 617 241 617 c 2
 396 617 l 1
 552 617 l 1
 549 686 l 2
 546 727 543 758 539 783 c 1
 673 783 l 1
 669 753 667 716 667 686 c 2
 668 617 l 1
 786 617 l 2
 817 617 861 621 884 625 c 1
 884 497 l 1
 853 498 818 500 792 500 c 2
 671 500 l 1
 675 285 l 1
EndSplineSet
EndChar

StartChar: uni30AA_uni3099.ccmp
Encoding: 1114149 -1 240
Width: 1000
Flags: W
LayerCount: 2
Fore
SplineSet
818 737 m 0
 832 714 844 691 853 672 c 1
 782 639 l 1
 770 666 759 687 748 708 c 0
 737 728 726 747 711 769 c 1
 780 798 l 1
 792 782 805 760 818 737 c 0
926 780 m 0
 940 757 953 735 962 716 c 1
 892 681 l 1
 880 707 868 728 856 748 c 0
 845 769 833 787 818 808 c 1
 885 840 l 1
 898 824 912 802 926 780 c 0
675 285 m 1
 680 70 l 2
 680 8 646 -27 574 -27 c 0
 517 -27 464 -25 411 -22 c 1
 400 103 l 1
 443 96 493 92 525 92 c 0
 549 92 558 104 558 132 c 2
 556 392 l 1
 474 281 321 147 173 67 c 1
 86 167 l 1
 269 255 425 390 500 500 c 1
 243 500 l 2
 210 500 169 498 136 496 c 1
 136 624 l 1
 163 620 209 617 241 617 c 2
 396 617 l 1
 552 617 l 1
 549 686 l 2
 547 714 544 749 539 783 c 1
 673 783 l 1
 669 753 667 716 667 686 c 2
 668 617 l 1
 786 617 l 2
 817 617 861 621 884 625 c 1
 884 497 l 1
 853 498 818 500 792 500 c 2
 671 500 l 1
 675 285 l 1
EndSplineSet
Ligature2: "Dakuten and handakuten subtable" uni30AA uni3099
EndChar

StartChar: uni30AB
Encoding: 12459 12459 241
Width: 1000
Flags: W
LayerCount: 2
Fore
SplineSet
609 612 m 1
 697 612 l 2
 721 612 745 615 768 619 c 1
 809 598 858 572 857 567 c 0
 856 560 847 564 845 551 c 0
 844 542 843 533 843 528 c 0
 839 424 828 156 788 58 c 0
 767 9 731 -16 666 -16 c 0
 613 -16 556 -12 511 -8 c 1
 496 121 l 1
 542 112 591 107 628 107 c 0
 658 107 671 118 681 141 c 0
 709 201 721 393 721 497 c 1
 615 497 l 1
 509 497 l 1
 475 243 385 93 217 -29 c 1
 108 61 l 1
 147 83 194 116 231 155 c 0
 319 243 366 351 386 497 c 1
 262 497 l 2
 230 497 179 497 138 493 c 1
 138 619 l 1
 178 615 226 612 262 612 c 2
 397 612 l 1
 398 696 l 2
 398 717 396 761 392 784 c 1
 530 784 l 1
 527 762 525 722 524 698 c 2
 521 612 l 1
 609 612 l 1
EndSplineSet
EndChar

StartChar: uni30AC
Encoding: 12460 12460 242
Width: 1000
Flags: W
LayerCount: 2
Fore
SplineSet
792 717 m 0
 805 693 818 669 827 651 c 1
 752 618 l 1
 743 638 730 662 717 685 c 0
 705 709 692 733 679 751 c 1
 753 783 l 1
 765 765 779 741 792 717 c 0
905 760 m 0
 919 736 932 713 940 696 c 1
 865 662 l 1
 855 682 843 706 830 730 c 0
 817 753 803 776 790 794 c 1
 864 826 l 1
 876 808 891 784 905 760 c 0
590 602 m 1
 679 602 l 2
 702 602 727 604 749 609 c 1
 790 589 839 563 838 558 c 0
 837 551 828 555 826 542 c 0
 825 533 824 524 824 518 c 0
 821 414 809 146 769 48 c 0
 748 0 712 -26 648 -26 c 0
 594 -26 538 -22 492 -18 c 1
 477 110 l 1
 524 102 572 98 609 98 c 0
 639 98 652 107 663 131 c 0
 690 192 702 384 702 487 c 1
 596 487 l 1
 491 487 l 1
 456 233 367 83 198 -39 c 1
 89 51 l 1
 128 74 175 106 212 145 c 0
 300 233 347 341 367 487 c 1
 243 487 l 2
 211 487 160 486 119 482 c 1
 119 609 l 1
 159 604 208 602 243 602 c 2
 378 602 l 1
 380 686 l 2
 380 707 377 751 373 774 c 1
 511 774 l 1
 508 751 507 711 506 688 c 2
 502 602 l 1
 590 602 l 1
EndSplineSet
EndChar

StartChar: uni30AB_uni309A.ccmp
Encoding: 1114150 -1 243
Width: 1000
Flags: W
LayerCount: 2
Fore
SplineSet
806 763 m 0
 796 753 790 739 790 723 c 0
 790 694 815 669 844 669 c 0
 874 669 899 694 899 723 c 0
 899 739 893 753 883 763 c 0
 873 773 859 779 844 779 c 0
 830 779 816 773 806 763 c 0
765 805 m 0
 786 826 814 839 844 839 c 0
 875 839 903 826 924 805 c 0
 945 784 957 755 957 723 c 0
 957 661 906 609 844 609 c 0
 783 609 732 661 732 723 c 0
 732 755 745 784 765 805 c 0
592 608 m 1
 680 608 l 2
 705 608 729 611 752 615 c 1
 792 595 841 569 840 564 c 0
 839 557 831 561 829 547 c 0
 828 538 827 529 827 524 c 0
 823 420 811 151 771 54 c 0
 751 5 715 -20 650 -20 c 0
 596 -20 540 -16 494 -12 c 1
 479 117 l 1
 526 108 574 103 612 103 c 0
 642 103 655 114 665 137 c 0
 692 197 705 389 705 493 c 1
 599 493 l 1
 492 493 l 1
 459 240 368 89 201 -33 c 1
 92 57 l 1
 131 79 178 112 215 151 c 0
 303 240 350 347 370 493 c 1
 246 493 l 2
 214 493 162 493 122 489 c 1
 122 615 l 1
 162 611 210 608 246 608 c 2
 381 608 l 1
 383 692 l 2
 383 713 379 757 375 780 c 1
 514 780 l 1
 511 758 508 718 508 695 c 2
 504 608 l 1
 592 608 l 1
EndSplineSet
Ligature2: "Dakuten and handakuten subtable" uni30AB uni309A
EndChar

StartChar: uni30AD
Encoding: 12461 12461 244
Width: 1000
Flags: W
LayerCount: 2
Fore
SplineSet
349 206 m 1
 237 187 l 2
 196 179 164 172 143 167 c 1
 116 295 l 1
 142 296 184 302 214 306 c 2
 327 323 l 1
 440 341 l 1
 412 496 l 1
 227 465 l 2
 197 458 173 454 141 445 c 1
 116 578 l 1
 146 578 174 580 203 584 c 0
 236 588 308 599 389 612 c 1
 372 699 l 2
 367 726 360 749 353 772 c 1
 486 794 l 1
 489 775 492 743 496 720 c 2
 511 631 l 1
 696 663 l 2
 727 669 762 676 785 683 c 1
 807 557 l 1
 787 555 749 550 721 546 c 2
 533 515 l 1
 562 362 l 1
 647 376 724 389 766 398 c 0
 803 406 837 413 862 421 c 1
 887 294 l 1
 862 292 823 286 788 280 c 2
 584 246 l 1
 618 74 l 2
 624 45 633 10 642 -21 c 1
 506 -46 l 1
 502 -10 499 24 493 51 c 2
 461 226 l 1
 349 206 l 1
EndSplineSet
EndChar

StartChar: uni30AE
Encoding: 12462 12462 245
Width: 1000
Flags: W
LayerCount: 2
Fore
SplineSet
898 782 m 0
 912 758 924 735 932 718 c 1
 858 684 l 1
 849 704 836 728 822 752 c 0
 809 775 795 798 782 817 c 1
 856 848 l 1
 869 830 884 806 898 782 c 0
672 246 m 1
 570 229 l 1
 603 56 l 2
 610 27 619 -7 628 -38 c 1
 492 -63 l 1
 488 -26 485 6 479 35 c 2
 447 209 l 1
 351 193 263 177 223 170 c 0
 182 162 150 156 129 150 c 1
 102 278 l 1
 128 279 170 285 200 289 c 2
 313 307 l 1
 426 325 l 1
 398 479 l 1
 213 448 l 2
 183 442 159 436 127 428 c 1
 101 560 l 1
 132 562 160 564 189 567 c 0
 222 571 294 581 375 595 c 1
 358 682 l 2
 352 710 346 733 339 755 c 1
 472 777 l 1
 475 758 477 725 482 703 c 2
 498 614 l 1
 682 646 l 1
 736 657 l 1
 717 695 693 742 671 773 c 1
 745 805 l 1
 769 770 803 709 821 674 c 1
 774 652 l 1
 793 540 l 1
 773 538 735 532 707 529 c 2
 519 499 l 1
 548 345 l 1
 633 360 710 372 752 381 c 0
 789 388 823 397 848 404 c 1
 873 277 l 1
 848 275 809 268 774 263 c 2
 672 246 l 1
EndSplineSet
EndChar

StartChar: uni30AD_uni309A.ccmp
Encoding: 1114151 -1 246
Width: 1000
Flags: W
LayerCount: 2
Fore
SplineSet
881 774 m 0
 871 784 857 790 842 790 c 0
 827 790 814 784 804 773 c 0
 794 764 788 749 788 734 c 0
 788 704 812 679 842 679 c 0
 872 679 897 704 897 734 c 0
 897 750 891 764 881 774 c 0
665 248 m 1
 563 231 l 1
 597 57 l 2
 603 29 612 -5 621 -37 c 1
 485 -61 l 1
 480 -25 478 7 473 36 c 2
 441 210 l 1
 345 194 257 178 216 170 c 0
 176 164 144 157 122 151 c 1
 96 280 l 1
 120 281 163 286 193 290 c 2
 305 308 l 1
 419 326 l 1
 391 481 l 1
 207 449 l 2
 177 443 152 438 120 430 c 1
 95 561 l 1
 125 563 153 565 182 569 c 0
 214 573 288 583 368 596 c 1
 351 684 l 2
 346 711 339 734 333 757 c 1
 465 778 l 1
 468 760 471 727 476 704 c 2
 491 616 l 1
 571 628 642 641 676 648 c 0
 701 652 731 659 753 665 c 1
 738 684 729 708 729 734 c 0
 729 797 780 849 842 849 c 0
 904 849 955 797 955 734 c 0
 955 672 904 620 842 620 c 0
 814 620 788 630 768 649 c 1
 787 542 l 1
 766 540 728 534 700 530 c 2
 512 500 l 1
 541 347 l 1
 745 383 l 2
 782 390 817 398 841 406 c 1
 866 279 l 1
 841 277 803 270 767 265 c 2
 665 248 l 1
EndSplineSet
Ligature2: "Dakuten and handakuten subtable" uni30AD uni309A
EndChar

StartChar: uni30AF
Encoding: 12463 12463 247
Width: 1000
Flags: W
LayerCount: 2
Fore
SplineSet
602 660 m 1
 697 660 l 2
 727 660 758 665 779 672 c 1
 827 641 883 601 880 595 c 0
 876 587 867 595 859 579 c 0
 853 567 848 554 844 542 c 0
 819 457 765 329 680 221 c 0
 591 110 477 22 301 -49 c 1
 190 52 l 1
 382 111 487 194 569 290 c 0
 633 364 687 480 702 552 c 1
 570 552 l 1
 438 552 l 1
 375 468 293 384 201 319 c 1
 96 399 l 1
 260 502 342 626 389 708 c 0
 403 732 423 776 431 809 c 1
 569 763 l 1
 547 729 523 686 511 665 c 2
 508 660 l 1
 602 660 l 1
EndSplineSet
EndChar

StartChar: uni30B0
Encoding: 12464 12464 248
Width: 1000
Flags: W
LayerCount: 2
Fore
SplineSet
914 777 m 0
 928 753 941 730 949 713 c 1
 875 680 l 1
 866 700 853 724 839 748 c 0
 826 771 812 794 799 813 c 1
 873 843 l 1
 886 826 900 801 914 777 c 0
574 638 m 1
 668 638 l 2
 697 638 729 643 750 650 c 1
 757 646 l 1
 738 684 712 735 688 770 c 1
 762 800 l 1
 786 766 820 704 837 669 c 1
 767 639 l 1
 847 589 l 1
 837 571 823 544 816 520 c 0
 790 434 737 307 651 200 c 0
 562 88 449 1 273 -71 c 1
 162 30 l 1
 353 89 458 172 540 268 c 0
 604 342 659 458 674 530 c 1
 541 530 l 1
 410 530 l 1
 347 446 265 362 172 297 c 1
 67 378 l 1
 231 480 314 604 360 687 c 0
 374 710 394 754 402 787 c 1
 540 741 l 1
 518 707 493 664 483 643 c 2
 480 638 l 1
 574 638 l 1
EndSplineSet
EndChar

StartChar: uni30AF_uni309A.ccmp
Encoding: 1114152 -1 249
Width: 1000
Flags: W
LayerCount: 2
Fore
SplineSet
808 693 m 0
 818 683 832 677 847 677 c 0
 876 677 900 702 900 732 c 0
 900 763 876 788 847 788 c 0
 832 788 819 782 808 771 c 0
 799 762 792 747 792 732 c 0
 792 717 798 703 808 693 c 0
767 651 m 0
 747 672 734 701 734 732 c 0
 734 764 747 793 767 814 c 0
 788 835 816 847 847 847 c 0
 908 847 959 795 959 732 c 0
 959 669 908 618 847 618 c 0
 816 618 788 631 767 651 c 0
571 642 m 1
 666 642 l 2
 695 642 727 647 748 653 c 1
 796 623 852 583 849 577 c 0
 845 569 836 577 828 561 c 0
 822 549 817 536 813 524 c 0
 788 438 734 311 649 203 c 0
 559 92 446 3 270 -68 c 1
 159 34 l 1
 351 93 456 176 538 271 c 0
 602 346 656 461 671 533 c 1
 539 533 l 1
 407 533 l 1
 344 450 262 365 169 301 c 1
 64 381 l 1
 229 483 311 607 358 690 c 0
 372 714 391 758 400 791 c 1
 538 745 l 1
 515 711 492 668 480 647 c 2
 477 642 l 1
 571 642 l 1
EndSplineSet
Ligature2: "Dakuten and handakuten subtable" uni30AF uni309A
EndChar

StartChar: uni30B1
Encoding: 12465 12465 250
Width: 1000
Flags: W
LayerCount: 2
Fore
SplineSet
698 618 m 1
 800 618 l 2
 824 618 867 619 898 625 c 1
 898 493 l 1
 863 497 821 497 800 497 c 2
 668 497 l 1
 651 242 554 71 383 -39 c 1
 257 49 l 1
 290 62 323 82 346 101 c 0
 445 178 523 296 538 497 c 1
 339 497 l 1
 302 427 243 345 187 295 c 1
 69 368 l 1
 136 419 196 506 232 566 c 0
 257 610 275 660 287 697 c 0
 298 728 304 766 306 795 c 1
 452 766 l 1
 441 742 429 708 421 688 c 2
 395 618 l 1
 597 618 l 1
 698 618 l 1
EndSplineSet
EndChar

StartChar: uni30B2
Encoding: 12466 12466 251
Width: 1000
Flags: W
LayerCount: 2
Fore
SplineSet
795 724 m 0
 808 700 821 676 830 658 c 1
 755 626 l 1
 745 646 733 670 720 693 c 0
 707 717 694 741 680 759 c 1
 756 790 l 1
 768 773 782 749 795 724 c 0
908 767 m 0
 922 744 935 720 943 703 c 1
 868 670 l 1
 858 690 845 714 832 738 c 0
 819 761 806 784 792 802 c 1
 867 834 l 1
 879 816 894 791 908 767 c 0
689 596 m 1
 791 596 l 2
 816 596 858 597 889 602 c 1
 889 471 l 1
 854 474 813 475 791 475 c 2
 660 475 l 1
 643 219 545 49 375 -61 c 1
 248 26 l 1
 282 40 315 60 337 78 c 0
 436 156 514 274 529 475 c 1
 331 475 l 1
 292 405 235 323 179 272 c 1
 61 345 l 1
 128 396 188 483 224 543 c 0
 249 588 267 638 278 674 c 0
 289 706 296 743 298 772 c 1
 443 744 l 1
 432 720 420 686 413 665 c 2
 386 596 l 1
 588 596 l 1
 689 596 l 1
EndSplineSet
EndChar

StartChar: uni30B1_uni309A.ccmp
Encoding: 1114153 -1 252
Width: 1000
Flags: W
LayerCount: 2
Fore
SplineSet
883 771 m 0
 873 782 859 788 844 788 c 0
 829 788 816 781 806 771 c 0
 796 761 790 747 790 732 c 0
 790 701 814 676 844 676 c 0
 874 676 899 701 899 732 c 0
 899 747 893 761 883 771 c 0
924 651 m 0
 903 630 875 617 844 617 c 0
 813 617 785 630 764 650 c 0
 744 672 731 700 731 732 c 0
 731 795 782 847 844 847 c 0
 906 847 957 795 957 732 c 0
 957 701 944 672 924 651 c 0
468 602 m 1
 570 602 l 1
 773 602 l 2
 796 602 839 603 870 609 c 1
 870 478 l 1
 835 481 794 482 773 482 c 2
 641 482 l 1
 624 226 526 55 356 -54 c 1
 229 32 l 1
 263 47 296 67 319 85 c 0
 416 163 495 281 510 482 c 1
 312 482 l 1
 273 411 216 330 160 279 c 1
 42 352 l 1
 109 404 169 490 205 550 c 0
 230 595 248 645 259 681 c 0
 270 713 277 749 279 779 c 1
 424 750 l 1
 414 726 401 693 394 672 c 2
 367 602 l 1
 468 602 l 1
EndSplineSet
Ligature2: "Dakuten and handakuten subtable" uni30B1 uni309A
EndChar

StartChar: uni30B3
Encoding: 12467 12467 253
Width: 1000
Flags: W
LayerCount: 2
Fore
SplineSet
847 354 m 1
 847 106 l 2
 847 73 849 22 851 -7 c 1
 714 -7 l 1
 715 43 l 1
 287 43 l 2
 250 43 196 40 165 37 c 1
 165 174 l 1
 198 171 241 169 283 169 c 2
 716 169 l 1
 716 566 l 1
 294 566 l 2
 255 566 204 564 178 562 c 1
 178 696 l 1
 212 692 261 690 293 690 c 2
 530 690 l 1
 767 690 l 2
 794 690 834 691 850 692 c 1
 849 670 847 631 847 603 c 2
 847 354 l 1
EndSplineSet
EndChar

StartChar: uni30B4
Encoding: 12468 12468 254
Width: 1000
Flags: W
LayerCount: 2
Fore
SplineSet
899 783 m 0
 912 760 925 737 934 720 c 1
 856 685 l 1
 846 705 834 728 821 751 c 0
 808 774 794 796 781 814 c 1
 859 846 l 1
 871 829 885 806 899 783 c 0
824 324 m 1
 824 75 l 2
 824 42 826 -9 829 -38 c 1
 693 -38 l 1
 694 12 l 1
 264 12 l 2
 227 12 174 9 144 6 c 1
 144 144 l 1
 176 141 218 138 260 138 c 2
 695 138 l 1
 695 535 l 1
 272 535 l 2
 232 535 181 533 155 531 c 1
 155 665 l 1
 191 661 239 659 272 659 c 2
 498 659 l 1
 725 659 l 1
 707 698 679 749 655 783 c 1
 732 816 l 1
 756 781 789 722 806 687 c 1
 741 659 l 1
 744 659 l 2
 773 659 811 660 827 661 c 1
 826 639 824 601 824 573 c 2
 824 324 l 1
EndSplineSet
EndChar

StartChar: uni30B3_uni309A.ccmp
Encoding: 1114154 -1 255
Width: 1000
Flags: W
LayerCount: 2
Fore
SplineSet
884 772 m 0
 875 782 861 788 846 788 c 0
 831 788 818 782 807 771 c 0
 798 762 791 747 791 732 c 0
 791 702 816 677 846 677 c 0
 876 677 900 702 900 732 c 0
 900 748 894 762 884 772 c 0
824 324 m 1
 824 75 l 2
 824 42 826 -9 829 -38 c 1
 693 -38 l 1
 694 12 l 1
 264 12 l 2
 227 12 174 9 144 6 c 1
 144 144 l 1
 176 141 218 138 260 138 c 2
 695 138 l 1
 695 535 l 1
 272 535 l 2
 232 535 181 533 155 531 c 1
 155 665 l 1
 191 661 239 659 272 659 c 2
 508 659 l 1
 744 659 l 1
 759 659 l 1
 743 679 733 704 733 732 c 0
 733 795 784 847 846 847 c 0
 908 847 959 795 959 732 c 0
 959 670 908 618 846 618 c 1
 825 620 l 1
 824 573 l 1
 824 324 l 1
EndSplineSet
Ligature2: "Dakuten and handakuten subtable" uni30B3 uni309A
EndChar

StartChar: uni30B5
Encoding: 12469 12469 256
Width: 1000
Flags: W
LayerCount: 2
Fore
SplineSet
499 588 m 1
 611 588 l 1
 611 689 l 2
 611 727 608 759 605 778 c 1
 739 778 l 1
 737 759 733 727 733 689 c 2
 733 588 l 1
 803 588 l 2
 853 588 881 590 906 595 c 1
 906 467 l 1
 885 469 853 470 803 470 c 2
 733 470 l 1
 733 438 l 2
 733 200 677 55 450 -46 c 1
 350 50 l 1
 531 115 611 197 611 434 c 2
 611 470 l 1
 499 470 l 1
 388 470 l 1
 388 339 l 2
 388 297 391 258 392 239 c 1
 260 239 l 1
 263 258 266 296 266 339 c 2
 266 470 l 1
 186 470 l 2
 139 470 105 468 85 466 c 1
 85 597 l 1
 101 594 139 588 186 588 c 2
 266 588 l 1
 266 683 l 2
 266 711 263 741 260 770 c 1
 394 770 l 1
 391 751 388 721 388 683 c 2
 388 588 l 1
 499 588 l 1
EndSplineSet
EndChar

StartChar: uni30B6
Encoding: 12470 12470 257
Width: 1000
Flags: W
LayerCount: 2
Fore
SplineSet
761 675 m 0
 753 698 744 721 735 740 c 1
 798 761 l 1
 807 742 817 719 826 695 c 0
 835 672 843 649 848 629 c 1
 783 608 l 1
 777 629 769 652 761 675 c 0
859 707 m 0
 850 729 841 752 831 770 c 1
 895 792 l 1
 904 772 914 749 923 725 c 0
 932 702 941 679 947 661 c 1
 882 640 l 1
 875 661 867 684 859 707 c 0
483 573 m 1
 595 573 l 1
 595 674 l 2
 595 713 592 745 589 764 c 1
 724 764 l 1
 721 744 717 713 717 674 c 2
 717 573 l 1
 787 573 l 2
 837 573 865 576 890 580 c 1
 890 453 l 1
 869 455 837 456 788 456 c 2
 717 456 l 1
 717 424 l 2
 717 186 662 41 434 -62 c 1
 334 35 l 1
 515 100 595 183 595 419 c 2
 595 456 l 1
 483 456 l 1
 372 456 l 1
 372 325 l 2
 372 282 375 243 376 224 c 1
 244 224 l 1
 247 243 250 282 250 325 c 2
 250 456 l 1
 170 456 l 2
 123 456 89 453 69 452 c 1
 69 582 l 1
 85 579 123 573 170 573 c 2
 250 573 l 1
 250 669 l 2
 250 697 247 725 244 755 c 1
 378 755 l 1
 376 737 372 706 372 668 c 2
 372 573 l 1
 483 573 l 1
EndSplineSet
EndChar

